M48
;DRILL file {KiCad 4.0.1-stable} date 2018/09/14 14:23:04
;FORMAT={-:-/ absolute / metric / decimal}
FMAT,2
METRIC,TZ
T1C0.800
T2C1.000
T3C1.001
T4C2.000
T5C3.000
%
G90
G05
M71
T1
X160.93Y-105.89
X160.93Y-108.39
X160.93Y-110.89
T2
X127.6Y-75.7
X127.92Y-84.5
X127.92Y-94.75
X127.92Y-105.
X127.92Y-115.25
X130.1Y-75.7
X133.Y-84.5
X133.Y-94.75
X133.Y-105.
X133.Y-115.25
X135.65Y-75.7
X138.15Y-75.7
X143.4Y-82.8
X143.7Y-75.7
X144.67Y-114.07
X145.9Y-82.8
X146.2Y-75.7
X147.17Y-114.07
X151.8Y-75.7
X152.146Y-98.044
X152.146Y-100.544
X152.146Y-103.044
X152.146Y-105.544
X154.3Y-75.7
X160.5Y-81.
X160.5Y-83.5
X160.5Y-89.25
X160.5Y-91.75
X160.71Y-97.47
X160.71Y-99.97
T3
X137.33Y-123.5
X139.87Y-123.5
X143.06Y-94.3
X144.272Y-100.33
X144.272Y-102.87
X144.272Y-105.41
X145.6Y-94.3
X153.36Y-92.51
X153.46Y-87.5
X155.9Y-92.51
X156.Y-87.5
X160.56Y-117.37
X163.1Y-117.37
T4
X124.745Y-83.23
X124.745Y-93.48
X124.745Y-103.73
X124.745Y-113.98
X136.175Y-83.23
X136.175Y-93.48
X136.175Y-103.73
X136.175Y-113.98
T5
X122.5Y-75.5
X122.5Y-123.
X162.Y-75.5
X162.Y-123.
T4
X153.25Y-113.34G85X153.25Y-111.84
G05
X153.25Y-121.34G85X153.25Y-119.84
G05
T0
M30
