M48
;DRILL file {KiCad 4.0.1-stable} date 2018/08/21 16:15:21
;FORMAT={-:-/ absolute / metric / decimal}
FMAT,2
METRIC,TZ
T1C1.000
T2C1.001
T3C1.016
T4C2.301
T5C3.000
%
G90
G05
M71
T1
X132.75Y-77.75
X132.75Y-80.25
X132.75Y-82.75
X132.75Y-85.25
X132.75Y-91.
X132.75Y-93.5
X132.75Y-96.
X132.75Y-98.5
X133.Y-104.25
X133.Y-106.75
X133.Y-109.25
X133.Y-111.75
X140.14Y-113.79
X142.64Y-113.79
X145.14Y-113.79
X147.64Y-113.79
X153.39Y-113.79
X155.89Y-113.79
X158.39Y-113.79
X160.89Y-113.79
X166.55Y-113.76
X167.Y-64.6
X169.05Y-113.76
X169.5Y-64.6
X171.55Y-113.76
X174.05Y-113.76
X178.5Y-83.25
X178.5Y-85.75
X178.5Y-88.25
X178.5Y-90.75
X187.5Y-68.5
X187.5Y-71.
X187.5Y-73.5
X187.5Y-76.
T2
X179.13Y-69.86
X179.13Y-72.4
X179.15Y-64.67
X179.15Y-67.21
X183.49Y-104.67
X183.49Y-107.21
X183.5Y-98.96
X183.5Y-101.5
X183.51Y-110.51
X183.51Y-113.05
X183.998Y-83.637
X183.998Y-86.177
X183.998Y-88.209
X183.998Y-90.749
X190.25Y-99.
X190.25Y-101.54
X190.26Y-104.65
X190.26Y-107.19
X190.26Y-110.26
X190.26Y-112.8
T3
X133.Y-68.
X133.Y-70.54
X133.Y-73.08
X138.96Y-71.
X138.96Y-73.54
X138.96Y-76.08
X138.96Y-78.62
X138.96Y-81.16
X138.96Y-83.7
X138.96Y-86.24
X138.96Y-88.78
X138.96Y-91.32
X138.96Y-93.86
X138.96Y-96.4
X138.96Y-98.94
X138.96Y-101.48
X138.96Y-104.02
X138.96Y-106.56
X141.5Y-71.
X141.5Y-73.54
X141.5Y-76.08
X141.5Y-78.62
X141.5Y-81.16
X141.5Y-83.7
X141.5Y-86.24
X141.5Y-88.78
X141.5Y-91.32
X141.5Y-93.86
X141.5Y-96.4
X141.5Y-98.94
X141.5Y-101.48
X141.5Y-104.02
X141.5Y-106.56
X146.Y-70.5
X148.54Y-70.5
X151.08Y-70.5
X153.62Y-70.5
X156.16Y-70.5
X158.7Y-70.5
X166.96Y-71.
X166.96Y-73.54
X166.96Y-76.08
X166.96Y-78.62
X166.96Y-81.16
X166.96Y-83.7
X166.96Y-86.24
X166.96Y-88.78
X166.96Y-91.32
X166.96Y-93.86
X166.96Y-96.4
X166.96Y-98.94
X166.96Y-101.48
X166.96Y-104.02
X166.96Y-106.56
X169.5Y-71.
X169.5Y-73.54
X169.5Y-76.08
X169.5Y-78.62
X169.5Y-81.16
X169.5Y-83.7
X169.5Y-86.24
X169.5Y-88.78
X169.5Y-91.32
X169.5Y-93.86
X169.5Y-96.4
X169.5Y-98.94
X169.5Y-101.48
X169.5Y-104.02
X169.5Y-106.56
T4
X186.665Y-80.589
X186.665Y-94.305
T5
X130.Y-63.
X130.Y-117.
X194.Y-63.
X194.Y-72.25
X194.Y-117.
T0
M30
