G04 #@! TF.FileFunction,Copper,L2,Bot,Signal*
%FSLAX46Y46*%
G04 Gerber Fmt 4.6, Leading zero omitted, Abs format (unit mm)*
G04 Created by KiCad (PCBNEW 4.0.1-stable) date 2018/06/27 20:21:40*
%MOMM*%
G01*
G04 APERTURE LIST*
%ADD10C,0.100000*%
%ADD11R,1.000000X1.200000*%
%ADD12O,1.699260X3.500120*%
%ADD13R,1.300000X1.300000*%
%ADD14C,1.300000*%
%ADD15C,6.000000*%
%ADD16C,0.250000*%
G04 APERTURE END LIST*
D10*
D11*
X145650000Y-107500000D03*
X147530000Y-107500000D03*
X151250000Y-107500000D03*
X149370000Y-107500000D03*
D12*
X148500000Y-104700000D03*
X151040000Y-104700000D03*
X145960000Y-104700000D03*
D13*
X152150000Y-111000000D03*
D14*
X150150000Y-111000000D03*
D13*
X144900000Y-111000000D03*
D14*
X146900000Y-111000000D03*
D15*
X148600000Y-133900000D03*
D16*
G36*
X149675000Y-106100000D02*
X149698887Y-106222295D01*
X149770190Y-106329810D01*
X149775000Y-106334620D01*
X149775000Y-109300000D01*
X149784848Y-109348632D01*
X149821913Y-109397609D01*
X150775000Y-110160079D01*
X150775000Y-130275000D01*
X146325000Y-130275000D01*
X146325000Y-110151776D01*
X147088388Y-109388388D01*
X147115813Y-109347037D01*
X147125000Y-109300000D01*
X147125000Y-106434620D01*
X147229810Y-106329810D01*
X147299395Y-106226443D01*
X147315326Y-106147771D01*
X147315813Y-106147037D01*
X147325000Y-106100000D01*
X147325000Y-102725000D01*
X149675000Y-102725000D01*
X149675000Y-106100000D01*
X149675000Y-106100000D01*
G37*
X149675000Y-106100000D02*
X149698887Y-106222295D01*
X149770190Y-106329810D01*
X149775000Y-106334620D01*
X149775000Y-109300000D01*
X149784848Y-109348632D01*
X149821913Y-109397609D01*
X150775000Y-110160079D01*
X150775000Y-130275000D01*
X146325000Y-130275000D01*
X146325000Y-110151776D01*
X147088388Y-109388388D01*
X147115813Y-109347037D01*
X147125000Y-109300000D01*
X147125000Y-106434620D01*
X147229810Y-106329810D01*
X147299395Y-106226443D01*
X147315326Y-106147771D01*
X147315813Y-106147037D01*
X147325000Y-106100000D01*
X147325000Y-102725000D01*
X149675000Y-102725000D01*
X149675000Y-106100000D01*
G36*
X146875000Y-106048224D02*
X146511612Y-106411612D01*
X146484187Y-106452963D01*
X146475000Y-106500000D01*
X146475000Y-109348224D01*
X145811612Y-110011612D01*
X145784187Y-110052963D01*
X145775000Y-110100000D01*
X145775000Y-130275000D01*
X143700000Y-130275000D01*
X143700000Y-102725000D01*
X146875000Y-102725000D01*
X146875000Y-106048224D01*
X146875000Y-106048224D01*
G37*
X146875000Y-106048224D02*
X146511612Y-106411612D01*
X146484187Y-106452963D01*
X146475000Y-106500000D01*
X146475000Y-109348224D01*
X145811612Y-110011612D01*
X145784187Y-110052963D01*
X145775000Y-110100000D01*
X145775000Y-130275000D01*
X143700000Y-130275000D01*
X143700000Y-102725000D01*
X146875000Y-102725000D01*
X146875000Y-106048224D01*
G36*
X153400000Y-130275000D02*
X151225000Y-130275000D01*
X151225000Y-109900000D01*
X151215152Y-109851368D01*
X151181349Y-109805093D01*
X150525000Y-109242508D01*
X150525000Y-106500000D01*
X150515152Y-106451368D01*
X150488388Y-106411612D01*
X150125000Y-106048224D01*
X150125000Y-102725000D01*
X153400000Y-102725000D01*
X153400000Y-130275000D01*
X153400000Y-130275000D01*
G37*
X153400000Y-130275000D02*
X151225000Y-130275000D01*
X151225000Y-109900000D01*
X151215152Y-109851368D01*
X151181349Y-109805093D01*
X150525000Y-109242508D01*
X150525000Y-106500000D01*
X150515152Y-106451368D01*
X150488388Y-106411612D01*
X150125000Y-106048224D01*
X150125000Y-102725000D01*
X153400000Y-102725000D01*
X153400000Y-130275000D01*
M02*
