<?xml version="1.0" standalone="no"?>
 <!DOCTYPE svg PUBLIC "-//W3C//DTD SVG 1.1//EN" 
 "http://www.w3.org/Graphics/SVG/1.1/DTD/svg11.dtd"> 
<svg xmlns="http://www.w3.org/2000/svg" version="1.1" 
    width="29.7002cm" height="21.0007cm" viewBox="0 0 116930 82680 ">
<title>SVG Picture created as SBDBT_Mizz-brd.svg date 2018/08/06 19:02:00 </title>
  <desc>Picture generated by PCBNEW </desc>
<g style="fill:#000000; fill-opacity:1;stroke:#000000; stroke-opacity:1;
stroke-linecap:round; stroke-linejoin:round; "
 transform="translate(0 0) scale(1 1)">
</g>
<g style="fill:#000000; fill-opacity:0.0; 
stroke:#000000; stroke-width:-0.000393701; stroke-opacity:1; 
stroke-linecap:round; stroke-linejoin:round;">
</g>
<g style="fill:#000000; fill-opacity:0.0; 
stroke:#000000; stroke-width:39.3701; stroke-opacity:1; 
stroke-linecap:round; stroke-linejoin:round;">
</g>
<g style="fill:#000000; fill-opacity:0.0; 
stroke:#000000; stroke-width:59.0551; stroke-opacity:1; 
stroke-linecap:round; stroke-linejoin:round;">
<rect x="69685.9" y="65357.2" width="42519.7" height="12598.4" rx="0" />
</g>
<g style="fill:#000000; fill-opacity:0.0; 
stroke:#000000; stroke-width:39.3701; stroke-opacity:1; 
stroke-linecap:round; stroke-linejoin:round;">
</g>
<g style="fill:#000000; fill-opacity:0.0; 
stroke:#000000; stroke-width:59.0551; stroke-opacity:1; 
stroke-linecap:round; stroke-linejoin:round;">
<rect x="3937.01" y="3937.01" width="109056" height="74806" rx="0" />
</g>
<g style="fill:#000000; fill-opacity:0.0; 
stroke:#000000; stroke-width:39.3701; stroke-opacity:1; 
stroke-linecap:round; stroke-linejoin:round;">
</g>
<g style="fill:#000000; fill-opacity:0.0; 
stroke:#000000; stroke-width:59.0551; stroke-opacity:1; 
stroke-linecap:round; stroke-linejoin:round;">
<rect x="4724.41" y="4724.41" width="107481" height="73231.2" rx="0" />
</g>
<g style="fill:#000000; fill-opacity:0.0; 
stroke:#000000; stroke-width:39.3701; stroke-opacity:1; 
stroke-linecap:round; stroke-linejoin:round;">
</g>
<g style="fill:#000000; fill-opacity:0.0; 
stroke:#000000; stroke-width:59.0551; stroke-opacity:1; 
stroke-linecap:round; stroke-linejoin:round;">
<path d="M23622 4724
L23622 3937
" />
</g>
<g style="fill:#000000; fill-opacity:0.0; 
stroke:#000000; stroke-width:39.3701; stroke-opacity:1; 
stroke-linecap:round; stroke-linejoin:round;">
</g>
<g style="fill:#000000; fill-opacity:0.0; 
stroke:#000000; stroke-width:59.0551; stroke-opacity:1; 
stroke-linecap:round; stroke-linejoin:round;">
<path d="M43307 4724
L43307 3937
" />
</g>
<g style="fill:#000000; fill-opacity:0.0; 
stroke:#000000; stroke-width:39.3701; stroke-opacity:1; 
stroke-linecap:round; stroke-linejoin:round;">
</g>
<g style="fill:#000000; fill-opacity:0.0; 
stroke:#000000; stroke-width:59.0551; stroke-opacity:1; 
stroke-linecap:round; stroke-linejoin:round;">
<path d="M62992 4724
L62992 3937
" />
</g>
<g style="fill:#000000; fill-opacity:0.0; 
stroke:#000000; stroke-width:39.3701; stroke-opacity:1; 
stroke-linecap:round; stroke-linejoin:round;">
</g>
<g style="fill:#000000; fill-opacity:0.0; 
stroke:#000000; stroke-width:59.0551; stroke-opacity:1; 
stroke-linecap:round; stroke-linejoin:round;">
<path d="M82677 4724
L82677 3937
" />
</g>
<g style="fill:#000000; fill-opacity:0.0; 
stroke:#000000; stroke-width:39.3701; stroke-opacity:1; 
stroke-linecap:round; stroke-linejoin:round;">
</g>
<g style="fill:#000000; fill-opacity:0.0; 
stroke:#000000; stroke-width:59.0551; stroke-opacity:1; 
stroke-linecap:round; stroke-linejoin:round;">
<path d="M102362 4724
L102362 3937
" />
</g>
<g style="fill:#000000; fill-opacity:0.0; 
stroke:#000000; stroke-width:39.3701; stroke-opacity:1; 
stroke-linecap:round; stroke-linejoin:round;">
</g>
<g style="fill:#000000; fill-opacity:0.0; 
stroke:#000000; stroke-width:59.0551; stroke-opacity:1; 
stroke-linecap:round; stroke-linejoin:round;">
<path d="M14169 4562
L13877 4562
" />
<path d="M14023 4562
L14023 4050
L13974 4123
L13925 4172
L13877 4196
" />
</g>
<g style="fill:#000000; fill-opacity:0.0; 
stroke:#000000; stroke-width:39.3701; stroke-opacity:1; 
stroke-linecap:round; stroke-linejoin:round;">
</g>
<g style="fill:#000000; fill-opacity:0.0; 
stroke:#000000; stroke-width:59.0551; stroke-opacity:1; 
stroke-linecap:round; stroke-linejoin:round;">
<path d="M33562 4099
L33586 4074
L33635 4050
L33757 4050
L33805 4074
L33830 4099
L33854 4147
L33854 4196
L33830 4269
L33537 4562
L33854 4562
" />
</g>
<g style="fill:#000000; fill-opacity:0.0; 
stroke:#000000; stroke-width:39.3701; stroke-opacity:1; 
stroke-linecap:round; stroke-linejoin:round;">
</g>
<g style="fill:#000000; fill-opacity:0.0; 
stroke:#000000; stroke-width:59.0551; stroke-opacity:1; 
stroke-linecap:round; stroke-linejoin:round;">
<path d="M53222 4050
L53539 4050
L53368 4245
L53442 4245
L53490 4269
L53515 4294
L53539 4342
L53539 4464
L53515 4513
L53490 4537
L53442 4562
L53295 4562
L53247 4537
L53222 4513
" />
</g>
<g style="fill:#000000; fill-opacity:0.0; 
stroke:#000000; stroke-width:39.3701; stroke-opacity:1; 
stroke-linecap:round; stroke-linejoin:round;">
</g>
<g style="fill:#000000; fill-opacity:0.0; 
stroke:#000000; stroke-width:59.0551; stroke-opacity:1; 
stroke-linecap:round; stroke-linejoin:round;">
<path d="M73175 4221
L73175 4562
" />
<path d="M73053 4026
L72932 4391
L73248 4391
" />
</g>
<g style="fill:#000000; fill-opacity:0.0; 
stroke:#000000; stroke-width:39.3701; stroke-opacity:1; 
stroke-linecap:round; stroke-linejoin:round;">
</g>
<g style="fill:#000000; fill-opacity:0.0; 
stroke:#000000; stroke-width:59.0551; stroke-opacity:1; 
stroke-linecap:round; stroke-linejoin:round;">
<path d="M92885 4050
L92641 4050
L92617 4294
L92641 4269
L92690 4245
L92812 4245
L92860 4269
L92885 4294
L92909 4342
L92909 4464
L92885 4513
L92860 4537
L92812 4562
L92690 4562
L92641 4537
L92617 4513
" />
</g>
<g style="fill:#000000; fill-opacity:0.0; 
stroke:#000000; stroke-width:39.3701; stroke-opacity:1; 
stroke-linecap:round; stroke-linejoin:round;">
</g>
<g style="fill:#000000; fill-opacity:0.0; 
stroke:#000000; stroke-width:59.0551; stroke-opacity:1; 
stroke-linecap:round; stroke-linejoin:round;">
<path d="M112545 4050
L112448 4050
L112399 4074
L112375 4099
L112326 4172
L112302 4269
L112302 4464
L112326 4513
L112350 4537
L112399 4562
L112497 4562
L112545 4537
L112570 4513
L112594 4464
L112594 4342
L112570 4294
L112545 4269
L112497 4245
L112399 4245
L112350 4269
L112326 4294
L112302 4342
" />
</g>
<g style="fill:#000000; fill-opacity:0.0; 
stroke:#000000; stroke-width:39.3701; stroke-opacity:1; 
stroke-linecap:round; stroke-linejoin:round;">
</g>
<g style="fill:#000000; fill-opacity:0.0; 
stroke:#000000; stroke-width:59.0551; stroke-opacity:1; 
stroke-linecap:round; stroke-linejoin:round;">
<path d="M23622 77955
L23622 78742
" />
</g>
<g style="fill:#000000; fill-opacity:0.0; 
stroke:#000000; stroke-width:39.3701; stroke-opacity:1; 
stroke-linecap:round; stroke-linejoin:round;">
</g>
<g style="fill:#000000; fill-opacity:0.0; 
stroke:#000000; stroke-width:59.0551; stroke-opacity:1; 
stroke-linecap:round; stroke-linejoin:round;">
<path d="M43307 77955
L43307 78742
" />
</g>
<g style="fill:#000000; fill-opacity:0.0; 
stroke:#000000; stroke-width:39.3701; stroke-opacity:1; 
stroke-linecap:round; stroke-linejoin:round;">
</g>
<g style="fill:#000000; fill-opacity:0.0; 
stroke:#000000; stroke-width:59.0551; stroke-opacity:1; 
stroke-linecap:round; stroke-linejoin:round;">
<path d="M62992 77955
L62992 78742
" />
</g>
<g style="fill:#000000; fill-opacity:0.0; 
stroke:#000000; stroke-width:39.3701; stroke-opacity:1; 
stroke-linecap:round; stroke-linejoin:round;">
</g>
<g style="fill:#000000; fill-opacity:0.0; 
stroke:#000000; stroke-width:59.0551; stroke-opacity:1; 
stroke-linecap:round; stroke-linejoin:round;">
<path d="M82677 77955
L82677 78742
" />
</g>
<g style="fill:#000000; fill-opacity:0.0; 
stroke:#000000; stroke-width:39.3701; stroke-opacity:1; 
stroke-linecap:round; stroke-linejoin:round;">
</g>
<g style="fill:#000000; fill-opacity:0.0; 
stroke:#000000; stroke-width:59.0551; stroke-opacity:1; 
stroke-linecap:round; stroke-linejoin:round;">
<path d="M102362 77955
L102362 78742
" />
</g>
<g style="fill:#000000; fill-opacity:0.0; 
stroke:#000000; stroke-width:39.3701; stroke-opacity:1; 
stroke-linecap:round; stroke-linejoin:round;">
</g>
<g style="fill:#000000; fill-opacity:0.0; 
stroke:#000000; stroke-width:59.0551; stroke-opacity:1; 
stroke-linecap:round; stroke-linejoin:round;">
<path d="M14169 78580
L13877 78580
" />
<path d="M14023 78580
L14023 78069
L13974 78142
L13925 78190
L13877 78215
" />
</g>
<g style="fill:#000000; fill-opacity:0.0; 
stroke:#000000; stroke-width:39.3701; stroke-opacity:1; 
stroke-linecap:round; stroke-linejoin:round;">
</g>
<g style="fill:#000000; fill-opacity:0.0; 
stroke:#000000; stroke-width:59.0551; stroke-opacity:1; 
stroke-linecap:round; stroke-linejoin:round;">
<path d="M33562 78117
L33586 78093
L33635 78069
L33757 78069
L33805 78093
L33830 78117
L33854 78166
L33854 78215
L33830 78288
L33537 78580
L33854 78580
" />
</g>
<g style="fill:#000000; fill-opacity:0.0; 
stroke:#000000; stroke-width:39.3701; stroke-opacity:1; 
stroke-linecap:round; stroke-linejoin:round;">
</g>
<g style="fill:#000000; fill-opacity:0.0; 
stroke:#000000; stroke-width:59.0551; stroke-opacity:1; 
stroke-linecap:round; stroke-linejoin:round;">
<path d="M53222 78069
L53539 78069
L53368 78263
L53442 78263
L53490 78288
L53515 78312
L53539 78361
L53539 78483
L53515 78532
L53490 78556
L53442 78580
L53295 78580
L53247 78556
L53222 78532
" />
</g>
<g style="fill:#000000; fill-opacity:0.0; 
stroke:#000000; stroke-width:39.3701; stroke-opacity:1; 
stroke-linecap:round; stroke-linejoin:round;">
</g>
<g style="fill:#000000; fill-opacity:0.0; 
stroke:#000000; stroke-width:59.0551; stroke-opacity:1; 
stroke-linecap:round; stroke-linejoin:round;">
<path d="M73175 78239
L73175 78580
" />
<path d="M73053 78044
L72932 78410
L73248 78410
" />
</g>
<g style="fill:#000000; fill-opacity:0.0; 
stroke:#000000; stroke-width:39.3701; stroke-opacity:1; 
stroke-linecap:round; stroke-linejoin:round;">
</g>
<g style="fill:#000000; fill-opacity:0.0; 
stroke:#000000; stroke-width:59.0551; stroke-opacity:1; 
stroke-linecap:round; stroke-linejoin:round;">
<path d="M92885 78069
L92641 78069
L92617 78312
L92641 78288
L92690 78263
L92812 78263
L92860 78288
L92885 78312
L92909 78361
L92909 78483
L92885 78532
L92860 78556
L92812 78580
L92690 78580
L92641 78556
L92617 78532
" />
</g>
<g style="fill:#000000; fill-opacity:0.0; 
stroke:#000000; stroke-width:39.3701; stroke-opacity:1; 
stroke-linecap:round; stroke-linejoin:round;">
</g>
<g style="fill:#000000; fill-opacity:0.0; 
stroke:#000000; stroke-width:59.0551; stroke-opacity:1; 
stroke-linecap:round; stroke-linejoin:round;">
<path d="M112545 78069
L112448 78069
L112399 78093
L112375 78117
L112326 78190
L112302 78288
L112302 78483
L112326 78532
L112350 78556
L112399 78580
L112497 78580
L112545 78556
L112570 78532
L112594 78483
L112594 78361
L112570 78312
L112545 78288
L112497 78263
L112399 78263
L112350 78288
L112326 78312
L112302 78361
" />
</g>
<g style="fill:#000000; fill-opacity:0.0; 
stroke:#000000; stroke-width:39.3701; stroke-opacity:1; 
stroke-linecap:round; stroke-linejoin:round;">
</g>
<g style="fill:#000000; fill-opacity:0.0; 
stroke:#000000; stroke-width:59.0551; stroke-opacity:1; 
stroke-linecap:round; stroke-linejoin:round;">
<path d="M3937 23622
L4724 23622
" />
</g>
<g style="fill:#000000; fill-opacity:0.0; 
stroke:#000000; stroke-width:39.3701; stroke-opacity:1; 
stroke-linecap:round; stroke-linejoin:round;">
</g>
<g style="fill:#000000; fill-opacity:0.0; 
stroke:#000000; stroke-width:59.0551; stroke-opacity:1; 
stroke-linecap:round; stroke-linejoin:round;">
<path d="M3937 43307
L4724 43307
" />
</g>
<g style="fill:#000000; fill-opacity:0.0; 
stroke:#000000; stroke-width:39.3701; stroke-opacity:1; 
stroke-linecap:round; stroke-linejoin:round;">
</g>
<g style="fill:#000000; fill-opacity:0.0; 
stroke:#000000; stroke-width:59.0551; stroke-opacity:1; 
stroke-linecap:round; stroke-linejoin:round;">
<path d="M3937 62992
L4724 62992
" />
</g>
<g style="fill:#000000; fill-opacity:0.0; 
stroke:#000000; stroke-width:39.3701; stroke-opacity:1; 
stroke-linecap:round; stroke-linejoin:round;">
</g>
<g style="fill:#000000; fill-opacity:0.0; 
stroke:#000000; stroke-width:59.0551; stroke-opacity:1; 
stroke-linecap:round; stroke-linejoin:round;">
<path d="M4208 13864
L4452 13864
" />
<path d="M4160 14011
L4330 13499
L4501 14011
" />
</g>
<g style="fill:#000000; fill-opacity:0.0; 
stroke:#000000; stroke-width:39.3701; stroke-opacity:1; 
stroke-linecap:round; stroke-linejoin:round;">
</g>
<g style="fill:#000000; fill-opacity:0.0; 
stroke:#000000; stroke-width:59.0551; stroke-opacity:1; 
stroke-linecap:round; stroke-linejoin:round;">
<path d="M4367 33428
L4440 33452
L4464 33476
L4489 33525
L4489 33598
L4464 33647
L4440 33671
L4391 33696
L4196 33696
L4196 33184
L4367 33184
L4416 33208
L4440 33233
L4464 33281
L4464 33330
L4440 33379
L4416 33403
L4367 33428
L4196 33428
" />
</g>
<g style="fill:#000000; fill-opacity:0.0; 
stroke:#000000; stroke-width:39.3701; stroke-opacity:1; 
stroke-linecap:round; stroke-linejoin:round;">
</g>
<g style="fill:#000000; fill-opacity:0.0; 
stroke:#000000; stroke-width:59.0551; stroke-opacity:1; 
stroke-linecap:round; stroke-linejoin:round;">
<path d="M4489 53332
L4464 53356
L4391 53381
L4342 53381
L4269 53356
L4221 53308
L4196 53259
L4172 53161
L4172 53088
L4196 52991
L4221 52942
L4269 52893
L4342 52869
L4391 52869
L4464 52893
L4489 52918
" />
</g>
<g style="fill:#000000; fill-opacity:0.0; 
stroke:#000000; stroke-width:39.3701; stroke-opacity:1; 
stroke-linecap:round; stroke-linejoin:round;">
</g>
<g style="fill:#000000; fill-opacity:0.0; 
stroke:#000000; stroke-width:59.0551; stroke-opacity:1; 
stroke-linecap:round; stroke-linejoin:round;">
<path d="M4196 73066
L4196 72554
L4318 72554
L4391 72578
L4440 72627
L4464 72676
L4489 72773
L4489 72846
L4464 72944
L4440 72993
L4391 73041
L4318 73066
L4196 73066
" />
</g>
<g style="fill:#000000; fill-opacity:0.0; 
stroke:#000000; stroke-width:39.3701; stroke-opacity:1; 
stroke-linecap:round; stroke-linejoin:round;">
</g>
<g style="fill:#000000; fill-opacity:0.0; 
stroke:#000000; stroke-width:59.0551; stroke-opacity:1; 
stroke-linecap:round; stroke-linejoin:round;">
<path d="M112992 23622
L112205 23622
" />
</g>
<g style="fill:#000000; fill-opacity:0.0; 
stroke:#000000; stroke-width:39.3701; stroke-opacity:1; 
stroke-linecap:round; stroke-linejoin:round;">
</g>
<g style="fill:#000000; fill-opacity:0.0; 
stroke:#000000; stroke-width:59.0551; stroke-opacity:1; 
stroke-linecap:round; stroke-linejoin:round;">
<path d="M112992 43307
L112205 43307
" />
</g>
<g style="fill:#000000; fill-opacity:0.0; 
stroke:#000000; stroke-width:39.3701; stroke-opacity:1; 
stroke-linecap:round; stroke-linejoin:round;">
</g>
<g style="fill:#000000; fill-opacity:0.0; 
stroke:#000000; stroke-width:59.0551; stroke-opacity:1; 
stroke-linecap:round; stroke-linejoin:round;">
<path d="M112992 62992
L112205 62992
" />
</g>
<g style="fill:#000000; fill-opacity:0.0; 
stroke:#000000; stroke-width:39.3701; stroke-opacity:1; 
stroke-linecap:round; stroke-linejoin:round;">
</g>
<g style="fill:#000000; fill-opacity:0.0; 
stroke:#000000; stroke-width:59.0551; stroke-opacity:1; 
stroke-linecap:round; stroke-linejoin:round;">
<path d="M112477 13864
L112721 13864
" />
<path d="M112428 14011
L112599 13499
L112769 14011
" />
</g>
<g style="fill:#000000; fill-opacity:0.0; 
stroke:#000000; stroke-width:39.3701; stroke-opacity:1; 
stroke-linecap:round; stroke-linejoin:round;">
</g>
<g style="fill:#000000; fill-opacity:0.0; 
stroke:#000000; stroke-width:59.0551; stroke-opacity:1; 
stroke-linecap:round; stroke-linejoin:round;">
<path d="M112635 33428
L112708 33452
L112733 33476
L112757 33525
L112757 33598
L112733 33647
L112708 33671
L112660 33696
L112465 33696
L112465 33184
L112635 33184
L112684 33208
L112708 33233
L112733 33281
L112733 33330
L112708 33379
L112684 33403
L112635 33428
L112465 33428
" />
</g>
<g style="fill:#000000; fill-opacity:0.0; 
stroke:#000000; stroke-width:39.3701; stroke-opacity:1; 
stroke-linecap:round; stroke-linejoin:round;">
</g>
<g style="fill:#000000; fill-opacity:0.0; 
stroke:#000000; stroke-width:59.0551; stroke-opacity:1; 
stroke-linecap:round; stroke-linejoin:round;">
<path d="M112757 53332
L112733 53356
L112660 53381
L112611 53381
L112538 53356
L112489 53308
L112465 53259
L112440 53161
L112440 53088
L112465 52991
L112489 52942
L112538 52893
L112611 52869
L112660 52869
L112733 52893
L112757 52918
" />
</g>
<g style="fill:#000000; fill-opacity:0.0; 
stroke:#000000; stroke-width:39.3701; stroke-opacity:1; 
stroke-linecap:round; stroke-linejoin:round;">
</g>
<g style="fill:#000000; fill-opacity:0.0; 
stroke:#000000; stroke-width:59.0551; stroke-opacity:1; 
stroke-linecap:round; stroke-linejoin:round;">
<path d="M112465 73066
L112465 72554
L112587 72554
L112660 72578
L112708 72627
L112733 72676
L112757 72773
L112757 72846
L112733 72944
L112708 72993
L112660 73041
L112587 73066
L112465 73066
" />
</g>
<g style="fill:#000000; fill-opacity:0.0; 
stroke:#000000; stroke-width:39.3701; stroke-opacity:1; 
stroke-linecap:round; stroke-linejoin:round;">
</g>
<g style="fill:#000000; fill-opacity:0.0; 
stroke:#000000; stroke-width:59.0551; stroke-opacity:1; 
stroke-linecap:round; stroke-linejoin:round;">
<path d="M78881 76293
L78881 75703
L79022 75703
L79106 75731
L79162 75787
L79190 75843
L79219 75956
L79219 76040
L79190 76153
L79162 76209
L79106 76265
L79022 76293
L78881 76293
" />
<path d="M79725 76293
L79725 75984
L79697 75928
L79640 75899
L79528 75899
L79472 75928
" />
<path d="M79725 76265
L79669 76293
L79528 76293
L79472 76265
L79444 76209
L79444 76153
L79472 76096
L79528 76068
L79669 76068
L79725 76040
" />
<path d="M79922 75899
L80147 75899
" />
<path d="M80006 75703
L80006 76209
L80034 76265
L80090 76293
L80147 76293
" />
<path d="M80568 76265
L80512 76293
L80400 76293
L80343 76265
L80315 76209
L80315 75984
L80343 75928
L80400 75899
L80512 75899
L80568 75928
L80597 75984
L80597 76040
L80315 76096
" />
<path d="M80850 76237
L80878 76265
L80850 76293
L80822 76265
L80850 76237
L80850 76293
" />
<path d="M80850 75928
L80878 75956
L80850 75984
L80822 75956
L80850 75928
L80850 75984
" />
</g>
<g style="fill:#000000; fill-opacity:0.0; 
stroke:#000000; stroke-width:39.3701; stroke-opacity:1; 
stroke-linecap:round; stroke-linejoin:round;">
</g>
<g style="fill:#000000; fill-opacity:0.0; 
stroke:#000000; stroke-width:59.0551; stroke-opacity:1; 
stroke-linecap:round; stroke-linejoin:round;">
<path d="M69685 76577
L112205 76577
" />
</g>
<g style="fill:#000000; fill-opacity:0.0; 
stroke:#000000; stroke-width:39.3701; stroke-opacity:1; 
stroke-linecap:round; stroke-linejoin:round;">
</g>
<g style="fill:#000000; fill-opacity:0.0; 
stroke:#000000; stroke-width:59.0551; stroke-opacity:1; 
stroke-linecap:round; stroke-linejoin:round;">
<path d="M70220 77395
L70220 76805
" />
<path d="M70557 77395
L70304 77058
" />
<path d="M70557 76805
L70220 77142
" />
<path d="M70810 77395
L70810 77002
" />
<path d="M70810 76805
L70782 76833
L70810 76861
L70838 76833
L70810 76805
L70810 76861
" />
<path d="M71429 77339
L71401 77367
L71316 77395
L71260 77395
L71176 77367
L71120 77311
L71091 77255
L71063 77142
L71063 77058
L71091 76946
L71120 76889
L71176 76833
L71260 76805
L71316 76805
L71401 76833
L71429 76861
" />
<path d="M71935 77395
L71935 77086
L71907 77030
L71851 77002
L71738 77002
L71682 77030
" />
<path d="M71935 77367
L71879 77395
L71738 77395
L71682 77367
L71654 77311
L71654 77255
L71682 77199
L71738 77171
L71879 77171
L71935 77142
" />
<path d="M72469 77395
L72469 76805
" />
<path d="M72469 77367
L72413 77395
L72301 77395
L72244 77367
L72216 77339
L72188 77283
L72188 77114
L72216 77058
L72244 77030
L72301 77002
L72413 77002
L72469 77030
" />
<path d="M73201 77086
L73397 77086
" />
<path d="M73482 77395
L73201 77395
L73201 76805
L73482 76805
" />
<path d="M73735 77339
L73763 77367
L73735 77395
L73707 77367
L73735 77339
L73735 77395
" />
<path d="M74016 77395
L74016 76805
L74157 76805
L74241 76833
L74297 76889
L74325 76946
L74354 77058
L74354 77142
L74325 77255
L74297 77311
L74241 77367
L74157 77395
L74016 77395
" />
<path d="M74607 77339
L74635 77367
L74607 77395
L74579 77367
L74607 77339
L74607 77395
" />
<path d="M74860 77227
L75141 77227
" />
<path d="M74804 77395
L75000 76805
L75197 77395
" />
<path d="M75394 77339
L75422 77367
L75394 77395
L75366 77367
L75394 77339
L75394 77395
" />
<path d="M76575 77395
L76575 76805
" />
<path d="M76631 77171
L76800 77395
" />
<path d="M76800 77002
L76575 77227
" />
<path d="M77053 77395
L77053 77002
" />
<path d="M77053 76805
L77025 76833
L77053 76861
L77081 76833
L77053 76805
L77053 76861
" />
<path d="M77588 77367
L77531 77395
L77419 77395
L77363 77367
L77334 77339
L77306 77283
L77306 77114
L77334 77058
L77363 77030
L77419 77002
L77531 77002
L77588 77030
" />
<path d="M78094 77395
L78094 77086
L78066 77030
L78009 77002
L77897 77002
L77841 77030
" />
<path d="M78094 77367
L78037 77395
L77897 77395
L77841 77367
L77813 77311
L77813 77255
L77841 77199
L77897 77171
L78037 77171
L78094 77142
" />
<path d="M78628 77395
L78628 76805
" />
<path d="M78628 77367
L78572 77395
L78459 77395
L78403 77367
L78375 77339
L78347 77283
L78347 77114
L78375 77058
L78403 77030
L78459 77002
L78572 77002
L78628 77030
" />
<path d="M79612 77002
L79612 77395
" />
<path d="M79472 76777
L79331 77199
L79697 77199
" />
<path d="M79922 77339
L79950 77367
L79922 77395
L79894 77367
L79922 77339
L79922 77395
" />
<path d="M80315 76805
L80372 76805
L80428 76833
L80456 76861
L80484 76917
L80512 77030
L80512 77171
L80484 77283
L80456 77339
L80428 77367
L80372 77395
L80315 77395
L80259 77367
L80231 77339
L80203 77283
L80175 77171
L80175 77030
L80203 76917
L80231 76861
L80259 76833
L80315 76805
" />
<path d="M80765 77339
L80793 77367
L80765 77395
L80737 77367
L80765 77339
L80765 77395
" />
<path d="M81356 77395
L81018 77395
" />
<path d="M81187 77395
L81187 76805
L81131 76889
L81075 76946
L81018 76974
" />
<path d="M81609 77171
L82059 77171
" />
<path d="M82312 77367
L82368 77395
L82481 77395
L82537 77367
L82565 77311
L82565 77283
L82537 77227
L82481 77199
L82396 77199
L82340 77171
L82312 77114
L82312 77086
L82340 77030
L82396 77002
L82481 77002
L82537 77030
" />
<path d="M82734 77002
L82959 77002
" />
<path d="M82818 76805
L82818 77311
L82846 77367
L82903 77395
L82959 77395
" />
<path d="M83409 77395
L83409 77086
L83381 77030
L83324 77002
L83212 77002
L83156 77030
" />
<path d="M83409 77367
L83352 77395
L83212 77395
L83156 77367
L83127 77311
L83127 77255
L83156 77199
L83212 77171
L83352 77171
L83409 77142
" />
<path d="M83690 77395
L83690 76805
" />
<path d="M83690 77030
L83746 77002
L83859 77002
L83915 77030
L83943 77058
L83971 77114
L83971 77283
L83943 77339
L83915 77367
L83859 77395
L83746 77395
L83690 77367
" />
<path d="M84309 77395
L84252 77367
L84224 77311
L84224 76805
" />
<path d="M84759 77367
L84702 77395
L84590 77395
L84534 77367
L84505 77311
L84505 77086
L84534 77030
L84590 77002
L84702 77002
L84759 77030
L84787 77086
L84787 77142
L84505 77199
" />
</g>
<g style="fill:#000000; fill-opacity:0.0; 
stroke:#000000; stroke-width:39.3701; stroke-opacity:1; 
stroke-linecap:round; stroke-linejoin:round;">
</g>
<g style="fill:#000000; fill-opacity:0.0; 
stroke:#000000; stroke-width:59.0551; stroke-opacity:1; 
stroke-linecap:round; stroke-linejoin:round;">
<path d="M69685 75396
L112205 75396
" />
</g>
<g style="fill:#000000; fill-opacity:0.0; 
stroke:#000000; stroke-width:39.3701; stroke-opacity:1; 
stroke-linecap:round; stroke-linejoin:round;">
</g>
<g style="fill:#000000; fill-opacity:0.0; 
stroke:#000000; stroke-width:118.11; stroke-opacity:1; 
stroke-linecap:round; stroke-linejoin:round;">
<path d="M104022 76293
L103825 76012
" />
<path d="M103684 76293
L103684 75703
L103909 75703
L103965 75731
L103994 75759
L104022 75815
L104022 75899
L103994 75956
L103965 75984
L103909 76012
L103684 76012
" />
<path d="M104500 76265
L104444 76293
L104331 76293
L104275 76265
L104247 76209
L104247 75984
L104275 75928
L104331 75899
L104444 75899
L104500 75928
L104528 75984
L104528 76040
L104247 76096
" />
<path d="M104725 75899
L104865 76293
L105006 75899
" />
<path d="M105231 76237
L105259 76265
L105231 76293
L105203 76265
L105231 76237
L105231 76293
" />
<path d="M105231 75928
L105259 75956
L105231 75984
L105203 75956
L105231 75928
L105231 75984
" />
</g>
<g style="fill:#000000; fill-opacity:0.0; 
stroke:#000000; stroke-width:39.3701; stroke-opacity:1; 
stroke-linecap:round; stroke-linejoin:round;">
</g>
<g style="fill:#000000; fill-opacity:0.0; 
stroke:#000000; stroke-width:59.0551; stroke-opacity:1; 
stroke-linecap:round; stroke-linejoin:round;">
<path d="M70192 76265
L70276 76293
L70417 76293
L70473 76265
L70501 76237
L70529 76181
L70529 76124
L70501 76068
L70473 76040
L70417 76012
L70304 75984
L70248 75956
L70220 75928
L70192 75871
L70192 75815
L70220 75759
L70248 75731
L70304 75703
L70445 75703
L70529 75731
" />
<path d="M70782 76293
L70782 75899
" />
<path d="M70782 75703
L70754 75731
L70782 75759
L70810 75731
L70782 75703
L70782 75759
" />
<path d="M71007 75899
L71316 75899
L71007 76293
L71316 76293
" />
<path d="M71766 76265
L71710 76293
L71598 76293
L71541 76265
L71513 76209
L71513 75984
L71541 75928
L71598 75899
L71710 75899
L71766 75928
L71795 75984
L71795 76040
L71513 76096
" />
<path d="M72048 76237
L72076 76265
L72048 76293
L72019 76265
L72048 76237
L72048 76293
" />
<path d="M72048 75928
L72076 75956
L72048 75984
L72019 75956
L72048 75928
L72048 75984
" />
<path d="M72751 76124
L73032 76124
" />
<path d="M72694 76293
L72891 75703
L73088 76293
" />
<path d="M73538 75899
L73538 76293
" />
<path d="M73397 75674
L73257 76096
L73622 76096
" />
</g>
<g style="fill:#000000; fill-opacity:0.0; 
stroke:#000000; stroke-width:39.3701; stroke-opacity:1; 
stroke-linecap:round; stroke-linejoin:round;">
</g>
<g style="fill:#000000; fill-opacity:0.0; 
stroke:#000000; stroke-width:59.0551; stroke-opacity:1; 
stroke-linecap:round; stroke-linejoin:round;">
<path d="M103684 77395
L103684 76805
" />
<path d="M104219 77395
L104219 76805
" />
<path d="M104219 77367
L104162 77395
L104050 77395
L103994 77367
L103965 77339
L103937 77283
L103937 77114
L103965 77058
L103994 77030
L104050 77002
L104162 77002
L104219 77030
" />
<path d="M104500 77339
L104528 77367
L104500 77395
L104472 77367
L104500 77339
L104500 77395
" />
<path d="M104500 77030
L104528 77058
L104500 77086
L104472 77058
L104500 77030
L104500 77086
" />
<path d="M105540 77395
L105203 77395
" />
<path d="M105372 77395
L105372 76805
L105315 76889
L105259 76946
L105203 76974
" />
<path d="M106215 76777
L105709 77536
" />
<path d="M106721 77395
L106384 77395
" />
<path d="M106553 77395
L106553 76805
L106496 76889
L106440 76946
L106384 76974
" />
</g>
<g style="fill:#000000; fill-opacity:0.0; 
stroke:#000000; stroke-width:39.3701; stroke-opacity:1; 
stroke-linecap:round; stroke-linejoin:round;">
</g>
<g style="fill:#000000; fill-opacity:0.0; 
stroke:#000000; stroke-width:59.0551; stroke-opacity:1; 
stroke-linecap:round; stroke-linejoin:round;">
<path d="M69685 73821
L112205 73821
" />
</g>
<g style="fill:#000000; fill-opacity:0.0; 
stroke:#000000; stroke-width:39.3701; stroke-opacity:1; 
stroke-linecap:round; stroke-linejoin:round;">
</g>
<g style="fill:#000000; fill-opacity:0.0; 
stroke:#000000; stroke-width:157.48; stroke-opacity:1; 
stroke-linecap:round; stroke-linejoin:round;">
<path d="M70257 74099
L70707 74099
" />
<path d="M70384 74886
L70482 74099
" />
<path d="M70871 74886
L70937 74361
" />
<path d="M70970 74099
L70927 74136
L70960 74174
L71002 74136
L70970 74099
L70960 74174
" />
<path d="M71199 74361
L71499 74361
" />
<path d="M71345 74099
L71260 74774
L71288 74849
L71359 74886
L71434 74886
" />
<path d="M71809 74886
L71738 74849
L71710 74774
L71795 74099
" />
<path d="M72413 74849
L72334 74886
L72184 74886
L72113 74849
L72085 74774
L72123 74474
L72169 74399
L72249 74361
L72399 74361
L72469 74399
L72498 74474
L72488 74549
L72104 74624
" />
<path d="M72793 74811
L72826 74849
L72783 74886
L72751 74849
L72793 74811
L72783 74886
" />
<path d="M72844 74399
L72877 74436
L72835 74474
L72802 74436
L72844 74399
L72835 74474
" />
</g>
<g style="fill:#000000; fill-opacity:0.0; 
stroke:#000000; stroke-width:39.3701; stroke-opacity:1; 
stroke-linecap:round; stroke-linejoin:round;">
</g>
<g style="fill:#000000; fill-opacity:0.0; 
stroke:#000000; stroke-width:59.0551; stroke-opacity:1; 
stroke-linecap:round; stroke-linejoin:round;">
<path d="M70417 73070
L70220 73070
" />
<path d="M70220 73380
L70220 72789
L70501 72789
" />
<path d="M70726 73380
L70726 72986
" />
<path d="M70726 72789
L70698 72817
L70726 72845
L70754 72817
L70726 72789
L70726 72845
" />
<path d="M71091 73380
L71035 73352
L71007 73295
L71007 72789
" />
<path d="M71541 73352
L71485 73380
L71373 73380
L71316 73352
L71288 73295
L71288 73070
L71316 73014
L71373 72986
L71485 72986
L71541 73014
L71570 73070
L71570 73127
L71288 73183
" />
<path d="M71823 73323
L71851 73352
L71823 73380
L71795 73352
L71823 73323
L71823 73380
" />
<path d="M71823 73014
L71851 73042
L71823 73070
L71795 73042
L71823 73014
L71823 73070
" />
<path d="M72526 73352
L72610 73380
L72751 73380
L72807 73352
L72835 73323
L72863 73267
L72863 73211
L72835 73155
L72807 73127
L72751 73099
L72638 73070
L72582 73042
L72554 73014
L72526 72958
L72526 72902
L72554 72845
L72582 72817
L72638 72789
L72779 72789
L72863 72817
" />
<path d="M73313 73070
L73397 73099
L73426 73127
L73454 73183
L73454 73267
L73426 73323
L73397 73352
L73341 73380
L73116 73380
L73116 72789
L73313 72789
L73369 72817
L73397 72845
L73426 72902
L73426 72958
L73397 73014
L73369 73042
L73313 73070
L73116 73070
" />
<path d="M73707 73380
L73707 72789
L73847 72789
L73932 72817
L73988 72874
L74016 72930
L74044 73042
L74044 73127
L74016 73239
L73988 73295
L73932 73352
L73847 73380
L73707 73380
" />
<path d="M74494 73070
L74579 73099
L74607 73127
L74635 73183
L74635 73267
L74607 73323
L74579 73352
L74522 73380
L74297 73380
L74297 72789
L74494 72789
L74550 72817
L74579 72845
L74607 72902
L74607 72958
L74579 73014
L74550 73042
L74494 73070
L74297 73070
" />
<path d="M74804 72789
L75141 72789
" />
<path d="M74972 73380
L74972 72789
" />
<path d="M75197 73436
L75647 73436
" />
<path d="M75788 73380
L75788 72789
L75985 73211
L76181 72789
L76181 73380
" />
<path d="M76463 73380
L76463 72986
" />
<path d="M76463 72789
L76435 72817
L76463 72845
L76491 72817
L76463 72789
L76463 72845
" />
<path d="M76688 72986
L76997 72986
L76688 73380
L76997 73380
" />
<path d="M77166 72986
L77475 72986
L77166 73380
L77475 73380
" />
<path d="M77700 73323
L77728 73352
L77700 73380
L77672 73352
L77700 73323
L77700 73380
" />
<path d="M77981 73380
L77981 72789
" />
<path d="M78037 73155
L78206 73380
" />
<path d="M78206 72986
L77981 73211
" />
<path d="M78459 73380
L78459 72986
" />
<path d="M78459 72789
L78431 72817
L78459 72845
L78487 72817
L78459 72789
L78459 72845
" />
<path d="M78994 73352
L78937 73380
L78825 73380
L78769 73352
L78741 73323
L78712 73267
L78712 73099
L78741 73042
L78769 73014
L78825 72986
L78937 72986
L78994 73014
" />
<path d="M79500 73380
L79500 73070
L79472 73014
L79415 72986
L79303 72986
L79247 73014
" />
<path d="M79500 73352
L79444 73380
L79303 73380
L79247 73352
L79219 73295
L79219 73239
L79247 73183
L79303 73155
L79444 73155
L79500 73127
" />
<path d="M80034 73380
L80034 72789
" />
<path d="M80034 73352
L79978 73380
L79865 73380
L79809 73352
L79781 73323
L79753 73267
L79753 73099
L79781 73042
L79809 73014
L79865 72986
L79978 72986
L80034 73014
" />
<path d="M80175 73436
L80625 73436
" />
<path d="M80765 72986
L80765 73577
" />
<path d="M80765 73014
L80822 72986
L80934 72986
L80990 73014
L81018 73042
L81046 73099
L81046 73267
L81018 73323
L80990 73352
L80934 73380
L80822 73380
L80765 73352
" />
<path d="M81553 73352
L81496 73380
L81384 73380
L81328 73352
L81300 73323
L81271 73267
L81271 73099
L81300 73042
L81328 73014
L81384 72986
L81496 72986
L81553 73014
" />
<path d="M81806 73380
L81806 72789
" />
<path d="M81806 73014
L81862 72986
L81974 72986
L82031 73014
L82059 73042
L82087 73099
L82087 73267
L82059 73323
L82031 73352
L81974 73380
L81862 73380
L81806 73352
" />
</g>
<g style="fill:#000000; fill-opacity:0.0; 
stroke:#000000; stroke-width:39.3701; stroke-opacity:1; 
stroke-linecap:round; stroke-linejoin:round;">
</g>
<g style="fill:#000000; fill-opacity:0.0; 
stroke:#000000; stroke-width:59.0551; stroke-opacity:1; 
stroke-linecap:round; stroke-linejoin:round;">
<path d="M69685 71459
L112205 71459
" />
</g>
<g style="fill:#000000; fill-opacity:0.0; 
stroke:#000000; stroke-width:39.3701; stroke-opacity:1; 
stroke-linecap:round; stroke-linejoin:round;">
</g>
<g style="fill:#000000; fill-opacity:0.0; 
stroke:#000000; stroke-width:59.0551; stroke-opacity:1; 
stroke-linecap:round; stroke-linejoin:round;">
<path d="M70192 72289
L70276 72317
L70417 72317
L70473 72289
L70501 72260
L70529 72204
L70529 72148
L70501 72092
L70473 72064
L70417 72036
L70304 72007
L70248 71979
L70220 71951
L70192 71895
L70192 71839
L70220 71782
L70248 71754
L70304 71726
L70445 71726
L70529 71754
" />
<path d="M70782 72317
L70782 71726
" />
<path d="M71035 72317
L71035 72007
L71007 71951
L70951 71923
L70867 71923
L70810 71951
L70782 71979
" />
<path d="M71541 72289
L71485 72317
L71373 72317
L71316 72289
L71288 72232
L71288 72007
L71316 71951
L71373 71923
L71485 71923
L71541 71951
L71570 72007
L71570 72064
L71288 72120
" />
<path d="M72048 72289
L71991 72317
L71879 72317
L71823 72289
L71795 72232
L71795 72007
L71823 71951
L71879 71923
L71991 71923
L72048 71951
L72076 72007
L72076 72064
L71795 72120
" />
<path d="M72244 71923
L72469 71923
" />
<path d="M72329 71726
L72329 72232
L72357 72289
L72413 72317
L72469 72317
" />
<path d="M72666 72260
L72694 72289
L72666 72317
L72638 72289
L72666 72260
L72666 72317
" />
<path d="M72666 71951
L72694 71979
L72666 72007
L72638 71979
L72666 71951
L72666 72007
" />
</g>
<g style="fill:#000000; fill-opacity:0.0; 
stroke:#000000; stroke-width:39.3701; stroke-opacity:1; 
stroke-linecap:round; stroke-linejoin:round;">
</g>
<g style="fill:#000000; fill-opacity:0.0; 
stroke:#000000; stroke-width:59.0551; stroke-opacity:1; 
stroke-linecap:round; stroke-linejoin:round;">
<path d="M77559 75396
L77559 76577
" />
</g>
<g style="fill:#000000; fill-opacity:0.0; 
stroke:#000000; stroke-width:39.3701; stroke-opacity:1; 
stroke-linecap:round; stroke-linejoin:round;">
</g>
<g style="fill:#000000; fill-opacity:0.0; 
stroke:#000000; stroke-width:59.0551; stroke-opacity:1; 
stroke-linecap:round; stroke-linejoin:round;">
<path d="M102756 75396
L102756 77955
" />
</g>
<g style="fill:#C2C200; fill-opacity:0.0; 
stroke:#C2C200; stroke-width:59.0551; stroke-opacity:1; 
stroke-linecap:round; stroke-linejoin:round;">
</g>
<g style="fill:#C2C200; fill-opacity:0.0; 
stroke:#C2C200; stroke-width:19.685; stroke-opacity:1; 
stroke-linecap:round; stroke-linejoin:round;">
<path d="M54980 39822
L54980 40964
" />
<path d="M55570 39822
L55570 40964
" />
<path d="M54980 39822
L55570 39822
" />
<path d="M54980 40964
L55570 40964
" />
<path d="M61948 42303
L61948 41161
" />
<path d="M61358 42303
L61358 41161
" />
<path d="M61948 42303
L61358 42303
" />
<path d="M61948 41161
L61358 41161
" />
<path d="M57066 44783
L58208 44783
" />
<path d="M57066 44192
L58208 44192
" />
<path d="M57066 44783
L57066 44192
" />
<path d="M58208 44783
L58208 44192
" />
<path d="M57224 38248
L58366 38248
" />
<path d="M57224 37657
L58366 37657
" />
<path d="M57224 38248
L57224 37657
" />
<path d="M58366 38248
L58366 37657
" />
<path d="M56830 45570
L57972 45570
" />
<path d="M56830 44980
L57972 44980
" />
<path d="M56830 45570
L56830 44980
" />
<path d="M57972 45570
L57972 44980
" />
<path d="M60925 45255
L62066 45255
" />
<path d="M60925 44665
L62066 44665
" />
<path d="M60925 45255
L60925 44665
" />
<path d="M62066 45255
L62066 44665
" />
<path d="M55787 44055
L55787 38622
" />
<path d="M61220 44055
L61220 38622
" />
<path d="M55787 44055
L61220 44055
" />
<path d="M55787 38622
L61220 38622
" />
<path d="M58700 38267
L59724 38267
" />
<path d="M58700 37637
L59724 37637
" />
<path d="M58700 38267
L58700 37637
" />
<path d="M59724 38267
L59724 37637
" />
<path d="M62007 36062
L60984 36062
" />
<path d="M62007 36692
L60984 36692
" />
<path d="M62007 36062
L62007 36692
" />
<path d="M60984 36062
L60984 36692
" />
<path d="M62007 37401
L60984 37401
" />
<path d="M62007 38031
L60984 38031
" />
<path d="M62007 37401
L62007 38031
" />
<path d="M60984 37401
L60984 38031
" />
<path d="M58779 44803
L59803 44803
" />
<path d="M58779 44173
L59803 44173
" />
<path d="M58779 44803
L58779 44173
" />
<path d="M59803 44803
L59803 44173
" />
<path d="M60905 47716
L61929 47716
" />
<path d="M60905 47086
L61929 47086
" />
<path d="M60905 47716
L60905 47086
" />
<path d="M61929 47716
L61929 47086
" />
</g>
<g style="fill:#000000; fill-opacity:0.0; 
stroke:#000000; stroke-width:19.685; stroke-opacity:1; 
stroke-linecap:round; stroke-linejoin:round;">
</g>
<g style="fill:#008400; fill-opacity:0.0; 
stroke:#008400; stroke-width:19.685; stroke-opacity:1; 
stroke-linecap:round; stroke-linejoin:round;">
</g>
<g style="fill:#008400; fill-opacity:0.0; 
stroke:#008400; stroke-width:0; stroke-opacity:1; 
stroke-linecap:round; stroke-linejoin:round;">
</g>
<g style="fill:#008400; fill-opacity:1.0; 
stroke:#008400; stroke-width:0; stroke-opacity:1; 
stroke-linecap:round; stroke-linejoin:round;">
<polyline style="fill-rule:evenodd;"
points="55039,39822
55511,39822
55511,40216
55039,40216
55039,39822
" /> 
<polyline style="fill-rule:evenodd;"
points="55039,40562
55511,40562
55511,40956
55039,40956
55039,40562
" /> 
<polyline style="fill-rule:evenodd;"
points="61889,42303
61417,42303
61417,41909
61889,41909
61889,42303
" /> 
<polyline style="fill-rule:evenodd;"
points="61889,41562
61417,41562
61417,41169
61889,41169
61889,41562
" /> 
<polyline style="fill-rule:evenodd;"
points="57066,44724
57066,44251
57460,44251
57460,44724
57066,44724
" /> 
<polyline style="fill-rule:evenodd;"
points="57807,44724
57807,44251
58200,44251
58200,44724
57807,44724
" /> 
<polyline style="fill-rule:evenodd;"
points="57224,38188
57224,37716
57618,37716
57618,38188
57224,38188
" /> 
<polyline style="fill-rule:evenodd;"
points="57964,38188
57964,37716
58358,37716
58358,38188
57964,38188
" /> 
<polyline style="fill-rule:evenodd;"
points="56830,45511
56830,45039
57224,45039
57224,45511
56830,45511
" /> 
<polyline style="fill-rule:evenodd;"
points="57570,45511
57570,45039
57964,45039
57964,45511
57570,45511
" /> 
<polyline style="fill-rule:evenodd;"
points="60925,45196
60925,44724
61318,44724
61318,45196
60925,45196
" /> 
<polyline style="fill-rule:evenodd;"
points="61665,45196
61665,44724
62059,44724
62059,45196
61665,45196
" /> 
<polyline style="fill-rule:evenodd;"
points="55885,43023
55885,42803
56515,42803
56515,43023
55885,43023
" /> 
<polyline style="fill-rule:evenodd;"
points="55885,42708
55885,42488
56515,42488
56515,42708
55885,42708
" /> 
<polyline style="fill-rule:evenodd;"
points="55885,42393
55885,42173
56515,42173
56515,42393
55885,42393
" /> 
<polyline style="fill-rule:evenodd;"
points="55885,42078
55885,41858
56515,41858
56515,42078
55885,42078
" /> 
<polyline style="fill-rule:evenodd;"
points="55885,41763
55885,41543
56515,41543
56515,41763
55885,41763
" /> 
<polyline style="fill-rule:evenodd;"
points="55885,41448
55885,41228
56515,41228
56515,41448
55885,41448
" /> 
<polyline style="fill-rule:evenodd;"
points="55885,41133
55885,40913
56515,40913
56515,41133
55885,41133
" /> 
<polyline style="fill-rule:evenodd;"
points="55885,40818
55885,40598
56515,40598
56515,40818
55885,40818
" /> 
<polyline style="fill-rule:evenodd;"
points="55885,40503
55885,40283
56515,40283
56515,40503
55885,40503
" /> 
<polyline style="fill-rule:evenodd;"
points="55885,40188
55885,39968
56515,39968
56515,40188
55885,40188
" /> 
<polyline style="fill-rule:evenodd;"
points="55885,39874
55885,39653
56515,39653
56515,39874
55885,39874
" /> 
<polyline style="fill-rule:evenodd;"
points="56818,38720
57039,38720
57039,39350
56818,39350
56818,38720
" /> 
<polyline style="fill-rule:evenodd;"
points="57133,38720
57354,38720
57354,39350
57133,39350
57133,38720
" /> 
<polyline style="fill-rule:evenodd;"
points="57448,38720
57669,38720
57669,39350
57448,39350
57448,38720
" /> 
<polyline style="fill-rule:evenodd;"
points="57763,38720
57984,38720
57984,39350
57763,39350
57763,38720
" /> 
<polyline style="fill-rule:evenodd;"
points="58078,38720
58299,38720
58299,39350
58078,39350
58078,38720
" /> 
<polyline style="fill-rule:evenodd;"
points="58393,38720
58614,38720
58614,39350
58393,39350
58393,38720
" /> 
<polyline style="fill-rule:evenodd;"
points="58708,38720
58929,38720
58929,39350
58708,39350
58708,38720
" /> 
<polyline style="fill-rule:evenodd;"
points="59023,38720
59244,38720
59244,39350
59023,39350
59023,38720
" /> 
<polyline style="fill-rule:evenodd;"
points="59338,38720
59559,38720
59559,39350
59338,39350
59338,38720
" /> 
<polyline style="fill-rule:evenodd;"
points="59653,38720
59874,38720
59874,39350
59653,39350
59653,38720
" /> 
<polyline style="fill-rule:evenodd;"
points="59968,38720
60188,38720
60188,39350
59968,39350
59968,38720
" /> 
<polyline style="fill-rule:evenodd;"
points="60492,39874
60492,39653
61122,39653
61122,39874
60492,39874
" /> 
<polyline style="fill-rule:evenodd;"
points="60492,40188
60492,39968
61122,39968
61122,40188
60492,40188
" /> 
<polyline style="fill-rule:evenodd;"
points="60492,40503
60492,40283
61122,40283
61122,40503
60492,40503
" /> 
<polyline style="fill-rule:evenodd;"
points="60492,40818
60492,40598
61122,40598
61122,40818
60492,40818
" /> 
<polyline style="fill-rule:evenodd;"
points="60492,41133
60492,40913
61122,40913
61122,41133
60492,41133
" /> 
<polyline style="fill-rule:evenodd;"
points="60492,41448
60492,41228
61122,41228
61122,41448
60492,41448
" /> 
<polyline style="fill-rule:evenodd;"
points="60492,41763
60492,41543
61122,41543
61122,41763
60492,41763
" /> 
<polyline style="fill-rule:evenodd;"
points="60492,42078
60492,41858
61122,41858
61122,42078
60492,42078
" /> 
<polyline style="fill-rule:evenodd;"
points="60492,42393
60492,42173
61122,42173
61122,42393
60492,42393
" /> 
<polyline style="fill-rule:evenodd;"
points="60492,42708
60492,42488
61122,42488
61122,42708
60492,42708
" /> 
<polyline style="fill-rule:evenodd;"
points="60492,43023
60492,42803
61122,42803
61122,43023
60492,43023
" /> 
<polyline style="fill-rule:evenodd;"
points="59968,43326
60188,43326
60188,43956
59968,43956
59968,43326
" /> 
<polyline style="fill-rule:evenodd;"
points="59653,43326
59874,43326
59874,43956
59653,43956
59653,43326
" /> 
<polyline style="fill-rule:evenodd;"
points="59338,43326
59559,43326
59559,43956
59338,43956
59338,43326
" /> 
<polyline style="fill-rule:evenodd;"
points="59023,43326
59244,43326
59244,43956
59023,43956
59023,43326
" /> 
<polyline style="fill-rule:evenodd;"
points="58708,43326
58929,43326
58929,43956
58708,43956
58708,43326
" /> 
<polyline style="fill-rule:evenodd;"
points="58393,43326
58614,43326
58614,43956
58393,43956
58393,43326
" /> 
<polyline style="fill-rule:evenodd;"
points="58078,43326
58299,43326
58299,43956
58078,43956
58078,43326
" /> 
<polyline style="fill-rule:evenodd;"
points="57763,43326
57984,43326
57984,43956
57763,43956
57763,43326
" /> 
<polyline style="fill-rule:evenodd;"
points="57448,43326
57669,43326
57669,43956
57448,43956
57448,43326
" /> 
<polyline style="fill-rule:evenodd;"
points="57133,43326
57354,43326
57354,43956
57133,43956
57133,43326
" /> 
<polyline style="fill-rule:evenodd;"
points="56818,43326
57039,43326
57039,43956
56818,43956
56818,43326
" /> 
</g>
<g style="fill:#840000; fill-opacity:1.0; 
stroke:#840000; stroke-width:0; stroke-opacity:1; 
stroke-linecap:round; stroke-linejoin:round;">
<polyline style="fill-rule:evenodd;"
points="54513,37092
53833,37092
53833,36292
54513,36292
54513,37092
" /> 
</g>
<g style="fill:#840000; fill-opacity:1.0; 
stroke:#840000; stroke-width:680; stroke-opacity:1; 
stroke-linecap:round; stroke-linejoin:round;">
</g>
<g style="fill:#840000; fill-opacity:0.0; 
stroke:#840000; stroke-width:680; stroke-opacity:1; 
stroke-linecap:round; stroke-linejoin:round;">
<path d="M55173 36752
L55173 36632
" />
<path d="M56173 36752
L56173 36632
" />
<path d="M57173 36752
L57173 36632
" />
<path d="M58173 36752
L58173 36632
" />
<path d="M59173 36752
L59173 36632
" />
</g>
<g style="fill:#840000; fill-opacity:1.0; 
stroke:#840000; stroke-width:0; stroke-opacity:1; 
stroke-linecap:round; stroke-linejoin:round;">
<circle cx="54487.4" cy="39876.8" r="295.5" /> 
</g>
<g style="fill:#840000; fill-opacity:1.0; 
stroke:#840000; stroke-width:39.3701; stroke-opacity:1; 
stroke-linecap:round; stroke-linejoin:round;">
</g>
<g style="fill:#840000; fill-opacity:1.0; 
stroke:#840000; stroke-width:0; stroke-opacity:1; 
stroke-linecap:round; stroke-linejoin:round;">
<circle cx="54487.4" cy="40876.8" r="295.5" /> 
</g>
<g style="fill:#840000; fill-opacity:1.0; 
stroke:#840000; stroke-width:39.3701; stroke-opacity:1; 
stroke-linecap:round; stroke-linejoin:round;">
</g>
<g style="fill:#840000; fill-opacity:1.0; 
stroke:#840000; stroke-width:0; stroke-opacity:1; 
stroke-linecap:round; stroke-linejoin:round;">
<circle cx="54487.4" cy="41676.8" r="295.5" /> 
</g>
<g style="fill:#840000; fill-opacity:1.0; 
stroke:#840000; stroke-width:39.3701; stroke-opacity:1; 
stroke-linecap:round; stroke-linejoin:round;">
</g>
<g style="fill:#840000; fill-opacity:1.0; 
stroke:#840000; stroke-width:0; stroke-opacity:1; 
stroke-linecap:round; stroke-linejoin:round;">
<circle cx="54487.4" cy="42676.8" r="295.5" /> 
</g>
<g style="fill:#840000; fill-opacity:1.0; 
stroke:#840000; stroke-width:39.3701; stroke-opacity:1; 
stroke-linecap:round; stroke-linejoin:round;">
</g>
<g style="fill:#840000; fill-opacity:1.0; 
stroke:#840000; stroke-width:0; stroke-opacity:1; 
stroke-linecap:round; stroke-linejoin:round;">
<circle cx="55537.4" cy="38676.8" r="590.5" /> 
</g>
<g style="fill:#840000; fill-opacity:1.0; 
stroke:#840000; stroke-width:39.3701; stroke-opacity:1; 
stroke-linecap:round; stroke-linejoin:round;">
</g>
<g style="fill:#840000; fill-opacity:1.0; 
stroke:#840000; stroke-width:0; stroke-opacity:1; 
stroke-linecap:round; stroke-linejoin:round;">
<circle cx="55537.4" cy="44076.8" r="590.5" /> 
</g>
<g style="fill:#840000; fill-opacity:1.0; 
stroke:#840000; stroke-width:39.3701; stroke-opacity:1; 
stroke-linecap:round; stroke-linejoin:round;">
</g>
<g style="fill:#008400; fill-opacity:1.0; 
stroke:#008400; stroke-width:39.3701; stroke-opacity:1; 
stroke-linecap:round; stroke-linejoin:round;">
</g>
<g style="fill:#008400; fill-opacity:1.0; 
stroke:#008400; stroke-width:0; stroke-opacity:1; 
stroke-linecap:round; stroke-linejoin:round;">
<polyline style="fill-rule:evenodd;"
points="58708,38188
58708,37716
59102,37716
59102,38188
58708,38188
" /> 
<polyline style="fill-rule:evenodd;"
points="59322,38188
59322,37716
59716,37716
59716,38188
59322,38188
" /> 
<polyline style="fill-rule:evenodd;"
points="62000,36141
62000,36614
61606,36614
61606,36141
62000,36141
" /> 
<polyline style="fill-rule:evenodd;"
points="61385,36141
61385,36614
60992,36614
60992,36141
61385,36141
" /> 
<polyline style="fill-rule:evenodd;"
points="62000,37480
62000,37952
61606,37952
61606,37480
62000,37480
" /> 
<polyline style="fill-rule:evenodd;"
points="61385,37480
61385,37952
60992,37952
60992,37480
61385,37480
" /> 
<polyline style="fill-rule:evenodd;"
points="58787,44724
58787,44251
59181,44251
59181,44724
58787,44724
" /> 
<polyline style="fill-rule:evenodd;"
points="59401,44724
59401,44251
59795,44251
59795,44724
59401,44724
" /> 
<polyline style="fill-rule:evenodd;"
points="60913,47637
60913,47165
61307,47165
61307,47637
60913,47637
" /> 
<polyline style="fill-rule:evenodd;"
points="61527,47637
61527,47165
61921,47165
61921,47637
61527,47637
" /> 
<polyline style="fill-rule:evenodd;"
points="59251,46456
58464,46456
58464,45984
59251,45984
59251,46456
" /> 
<polyline style="fill-rule:evenodd;"
points="59251,47362
58464,47362
58464,46889
59251,46889
59251,47362
" /> 
<polyline style="fill-rule:evenodd;"
points="59251,45551
58464,45551
58464,45078
59251,45078
59251,45551
" /> 
<polyline style="fill-rule:evenodd;"
points="61712,46909
60728,46909
60728,45531
61712,45531
61712,46909
" /> 
</g>
<g style="fill:#840000; fill-opacity:1.0; 
stroke:#840000; stroke-width:0; stroke-opacity:1; 
stroke-linecap:round; stroke-linejoin:round;">
</g>
<g style="fill:#840000; fill-opacity:1.0; 
stroke:#840000; stroke-width:590.551; stroke-opacity:1; 
stroke-linecap:round; stroke-linejoin:round;">
</g>
<g style="fill:#840000; fill-opacity:0.0; 
stroke:#840000; stroke-width:590.551; stroke-opacity:1; 
stroke-linecap:round; stroke-linejoin:round;">
<path d="M54881 46259
L54881 46653
" />
<path d="M55866 46259
L55866 46653
" />
<path d="M56850 46259
L56850 46653
" />
<path d="M57834 46259
L57834 46653
" />
</g>
<g style="fill:#C2C2C2; fill-opacity:0.0; 
stroke:#C2C2C2; stroke-width:590.551; stroke-opacity:1; 
stroke-linecap:round; stroke-linejoin:round;">
</g>
<g style="fill:#C2C2C2; fill-opacity:1.0; 
stroke:#C2C2C2; stroke-width:0; stroke-opacity:1; 
stroke-linecap:round; stroke-linejoin:round;">
<circle cx="63400" cy="37000" r="1181.1" /> 
</g>
<g style="fill:#C2C2C2; fill-opacity:1.0; 
stroke:#C2C2C2; stroke-width:39.3701; stroke-opacity:1; 
stroke-linecap:round; stroke-linejoin:round;">
</g>
<g style="fill:#C2C2C2; fill-opacity:1.0; 
stroke:#C2C2C2; stroke-width:0; stroke-opacity:1; 
stroke-linecap:round; stroke-linejoin:round;">
<circle cx="52400" cy="47200" r="1181.1" /> 
</g>
<g style="fill:#C2C2C2; fill-opacity:1.0; 
stroke:#C2C2C2; stroke-width:39.3701; stroke-opacity:1; 
stroke-linecap:round; stroke-linejoin:round;">
</g>
<g style="fill:#C2C2C2; fill-opacity:1.0; 
stroke:#C2C2C2; stroke-width:0; stroke-opacity:1; 
stroke-linecap:round; stroke-linejoin:round;">
<circle cx="52400" cy="37000" r="1181.1" /> 
</g>
<g style="fill:#C2C2C2; fill-opacity:1.0; 
stroke:#C2C2C2; stroke-width:39.3701; stroke-opacity:1; 
stroke-linecap:round; stroke-linejoin:round;">
</g>
<g style="fill:#C2C2C2; fill-opacity:1.0; 
stroke:#C2C2C2; stroke-width:0; stroke-opacity:1; 
stroke-linecap:round; stroke-linejoin:round;">
<circle cx="63400" cy="47200" r="1181.1" /> 
</g>
<g style="fill:#C2C2C2; fill-opacity:1.0; 
stroke:#C2C2C2; stroke-width:39.3701; stroke-opacity:1; 
stroke-linecap:round; stroke-linejoin:round;">
</g>
<g style="fill:#C2C2C2; fill-opacity:1.0; 
stroke:#C2C2C2; stroke-width:0; stroke-opacity:1; 
stroke-linecap:round; stroke-linejoin:round;">
<circle cx="58161.4" cy="37952.8" r="118.11" /> 
</g>
<g style="fill:#C2C2C2; fill-opacity:1.0; 
stroke:#C2C2C2; stroke-width:39.3701; stroke-opacity:1; 
stroke-linecap:round; stroke-linejoin:round;">
</g>
<g style="fill:#C2C2C2; fill-opacity:1.0; 
stroke:#C2C2C2; stroke-width:0; stroke-opacity:1; 
stroke-linecap:round; stroke-linejoin:round;">
<circle cx="59519.7" cy="37952.8" r="118.11" /> 
</g>
<g style="fill:#C2C2C2; fill-opacity:1.0; 
stroke:#C2C2C2; stroke-width:39.3701; stroke-opacity:1; 
stroke-linecap:round; stroke-linejoin:round;">
</g>
<g style="fill:#C2C2C2; fill-opacity:1.0; 
stroke:#C2C2C2; stroke-width:0; stroke-opacity:1; 
stroke-linecap:round; stroke-linejoin:round;">
<circle cx="61653.5" cy="41366.1" r="118.11" /> 
</g>
<g style="fill:#C2C2C2; fill-opacity:1.0; 
stroke:#C2C2C2; stroke-width:39.3701; stroke-opacity:1; 
stroke-linecap:round; stroke-linejoin:round;">
</g>
<g style="fill:#C2C2C2; fill-opacity:1.0; 
stroke:#C2C2C2; stroke-width:0; stroke-opacity:1; 
stroke-linecap:round; stroke-linejoin:round;">
<circle cx="61102.4" cy="44318.9" r="118.11" /> 
</g>
<g style="fill:#C2C2C2; fill-opacity:1.0; 
stroke:#C2C2C2; stroke-width:39.3701; stroke-opacity:1; 
stroke-linecap:round; stroke-linejoin:round;">
</g>
<g style="fill:#C2C2C2; fill-opacity:1.0; 
stroke:#C2C2C2; stroke-width:0; stroke-opacity:1; 
stroke-linecap:round; stroke-linejoin:round;">
<circle cx="57559.1" cy="43641.7" r="118.11" /> 
</g>
<g style="fill:#C2C2C2; fill-opacity:1.0; 
stroke:#C2C2C2; stroke-width:39.3701; stroke-opacity:1; 
stroke-linecap:round; stroke-linejoin:round;">
</g>
<g style="fill:#C2C2C2; fill-opacity:1.0; 
stroke:#C2C2C2; stroke-width:0; stroke-opacity:1; 
stroke-linecap:round; stroke-linejoin:round;">
<circle cx="58858.3" cy="45315" r="118.11" /> 
</g>
<g style="fill:#C2C2C2; fill-opacity:1.0; 
stroke:#C2C2C2; stroke-width:39.3701; stroke-opacity:1; 
stroke-linecap:round; stroke-linejoin:round;">
</g>
<g style="fill:#C2C2C2; fill-opacity:1.0; 
stroke:#C2C2C2; stroke-width:0; stroke-opacity:1; 
stroke-linecap:round; stroke-linejoin:round;">
<circle cx="57027.6" cy="45275.6" r="118.11" /> 
</g>
<g style="fill:#C2C2C2; fill-opacity:1.0; 
stroke:#C2C2C2; stroke-width:39.3701; stroke-opacity:1; 
stroke-linecap:round; stroke-linejoin:round;">
</g>
<g style="fill:#C2C2C2; fill-opacity:1.0; 
stroke:#C2C2C2; stroke-width:0; stroke-opacity:1; 
stroke-linecap:round; stroke-linejoin:round;">
<circle cx="61803.1" cy="36378" r="118.11" /> 
</g>
<g style="fill:#C2C2C2; fill-opacity:1.0; 
stroke:#C2C2C2; stroke-width:39.3701; stroke-opacity:1; 
stroke-linecap:round; stroke-linejoin:round;">
</g>
<g style="fill:#C2C2C2; fill-opacity:1.0; 
stroke:#C2C2C2; stroke-width:0; stroke-opacity:1; 
stroke-linecap:round; stroke-linejoin:round;">
<circle cx="61803.1" cy="37716.5" r="118.11" /> 
</g>
<g style="fill:#C2C2C2; fill-opacity:1.0; 
stroke:#C2C2C2; stroke-width:39.3701; stroke-opacity:1; 
stroke-linecap:round; stroke-linejoin:round;">
</g>
<g style="fill:#C2C2C2; fill-opacity:1.0; 
stroke:#C2C2C2; stroke-width:0; stroke-opacity:1; 
stroke-linecap:round; stroke-linejoin:round;">
<circle cx="56200.8" cy="42598.4" r="118.11" /> 
</g>
<g style="fill:#C2C2C2; fill-opacity:1.0; 
stroke:#C2C2C2; stroke-width:39.3701; stroke-opacity:1; 
stroke-linecap:round; stroke-linejoin:round;">
</g>
<g style="fill:#C2C2C2; fill-opacity:1.0; 
stroke:#C2C2C2; stroke-width:0; stroke-opacity:1; 
stroke-linecap:round; stroke-linejoin:round;">
<circle cx="56200.8" cy="42283.5" r="118.11" /> 
</g>
<g style="fill:#C2C2C2; fill-opacity:1.0; 
stroke:#C2C2C2; stroke-width:39.3701; stroke-opacity:1; 
stroke-linecap:round; stroke-linejoin:round;">
</g>
<g style="fill:#C2C2C2; fill-opacity:1.0; 
stroke:#C2C2C2; stroke-width:0; stroke-opacity:1; 
stroke-linecap:round; stroke-linejoin:round;">
<circle cx="56200.8" cy="40708.7" r="118.11" /> 
</g>
<g style="fill:#C2C2C2; fill-opacity:1.0; 
stroke:#C2C2C2; stroke-width:39.3701; stroke-opacity:1; 
stroke-linecap:round; stroke-linejoin:round;">
</g>
<g style="fill:#C2C2C2; fill-opacity:1.0; 
stroke:#C2C2C2; stroke-width:0; stroke-opacity:1; 
stroke-linecap:round; stroke-linejoin:round;">
<circle cx="56807.1" cy="40393.7" r="118.11" /> 
</g>
<g style="fill:#C2C2C2; fill-opacity:1.0; 
stroke:#C2C2C2; stroke-width:39.3701; stroke-opacity:1; 
stroke-linecap:round; stroke-linejoin:round;">
</g>
<g style="fill:#C2C2C2; fill-opacity:1.0; 
stroke:#C2C2C2; stroke-width:0; stroke-opacity:1; 
stroke-linecap:round; stroke-linejoin:round;">
<circle cx="61185" cy="36988.2" r="118.11" /> 
</g>
<g style="fill:#C2C2C2; fill-opacity:1.0; 
stroke:#C2C2C2; stroke-width:39.3701; stroke-opacity:1; 
stroke-linecap:round; stroke-linejoin:round;">
</g>
<g style="fill:#C2C2C2; fill-opacity:1.0; 
stroke:#C2C2C2; stroke-width:0; stroke-opacity:1; 
stroke-linecap:round; stroke-linejoin:round;">
<circle cx="57559.1" cy="39035.4" r="118.11" /> 
</g>
<g style="fill:#C2C2C2; fill-opacity:1.0; 
stroke:#C2C2C2; stroke-width:39.3701; stroke-opacity:1; 
stroke-linecap:round; stroke-linejoin:round;">
</g>
<g style="fill:#C2C2C2; fill-opacity:1.0; 
stroke:#C2C2C2; stroke-width:0; stroke-opacity:1; 
stroke-linecap:round; stroke-linejoin:round;">
<circle cx="57874" cy="39035.4" r="118.11" /> 
</g>
<g style="fill:#C2C2C2; fill-opacity:1.0; 
stroke:#C2C2C2; stroke-width:39.3701; stroke-opacity:1; 
stroke-linecap:round; stroke-linejoin:round;">
</g>
<g style="fill:#C2C2C2; fill-opacity:1.0; 
stroke:#C2C2C2; stroke-width:0; stroke-opacity:1; 
stroke-linecap:round; stroke-linejoin:round;">
<circle cx="60933.1" cy="38429.1" r="118.11" /> 
</g>
<g style="fill:#C2C2C2; fill-opacity:1.0; 
stroke:#C2C2C2; stroke-width:39.3701; stroke-opacity:1; 
stroke-linecap:round; stroke-linejoin:round;">
</g>
<g style="fill:#C2C2C2; fill-opacity:1.0; 
stroke:#C2C2C2; stroke-width:0; stroke-opacity:1; 
stroke-linecap:round; stroke-linejoin:round;">
<circle cx="59763.8" cy="39610.2" r="118.11" /> 
</g>
<g style="fill:#C2C2C2; fill-opacity:1.0; 
stroke:#C2C2C2; stroke-width:39.3701; stroke-opacity:1; 
stroke-linecap:round; stroke-linejoin:round;">
</g>
<g style="fill:#C2C2C2; fill-opacity:1.0; 
stroke:#C2C2C2; stroke-width:0; stroke-opacity:1; 
stroke-linecap:round; stroke-linejoin:round;">
<circle cx="59598.4" cy="44488.2" r="118.11" /> 
</g>
<g style="fill:#C2C2C2; fill-opacity:1.0; 
stroke:#C2C2C2; stroke-width:39.3701; stroke-opacity:1; 
stroke-linecap:round; stroke-linejoin:round;">
</g>
<g style="fill:#C2C2C2; fill-opacity:1.0; 
stroke:#C2C2C2; stroke-width:0; stroke-opacity:1; 
stroke-linecap:round; stroke-linejoin:round;">
<circle cx="61724.4" cy="47401.6" r="118.11" /> 
</g>
<g style="fill:#C2C2C2; fill-opacity:1.0; 
stroke:#C2C2C2; stroke-width:39.3701; stroke-opacity:1; 
stroke-linecap:round; stroke-linejoin:round;">
</g>
<g style="fill:#008400; fill-opacity:1.0; 
stroke:#008400; stroke-width:39.3701; stroke-opacity:1; 
stroke-linecap:round; stroke-linejoin:round;">
</g>
<g style="fill:#008400; fill-opacity:1.0; 
stroke:#008400; stroke-width:196.85; stroke-opacity:1; 
stroke-linecap:round; stroke-linejoin:round;">
</g>
<g style="fill:#008400; fill-opacity:0.0; 
stroke:#008400; stroke-width:196.85; stroke-opacity:1; 
stroke-linecap:round; stroke-linejoin:round;">
<path d="M56200 41023
L55539 41023
" />
<path d="M55539 41023
L55275 40759
" />
</g>
<g style="fill:#008400; fill-opacity:0.0; 
stroke:#008400; stroke-width:98.4252; stroke-opacity:1; 
stroke-linecap:round; stroke-linejoin:round;">
<path d="M55275 40759
L55275 40870
" />
</g>
<g style="fill:#008400; fill-opacity:0.0; 
stroke:#008400; stroke-width:196.85; stroke-opacity:1; 
stroke-linecap:round; stroke-linejoin:round;">
<path d="M58503 39035
L58503 39519
" />
<path d="M57944 40078
L56200 40078
" />
<path d="M58503 39519
L57944 40078
" />
<path d="M58503 38295
L58161 37952
" />
<path d="M58503 39035
L58503 38295
" />
<path d="M60807 41338
L59929 41338
" />
<path d="M58503 39913
L58503 39035
" />
<path d="M59929 41338
L58503 39913
" />
<path d="M60807 41338
L61625 41338
" />
<path d="M61625 41338
L61653 41366
" />
</g>
<g style="fill:#008400; fill-opacity:0.0; 
stroke:#008400; stroke-width:393.701; stroke-opacity:1; 
stroke-linecap:round; stroke-linejoin:round;">
<path d="M61122 44960
L61122 44338
" />
<path d="M61102 44318
L61122 44338
" />
</g>
<g style="fill:#008400; fill-opacity:0.0; 
stroke:#008400; stroke-width:196.85; stroke-opacity:1; 
stroke-linecap:round; stroke-linejoin:round;">
<path d="M58003 44488
L58003 44629
" />
<path d="M58003 44629
L58192 44818
" />
<path d="M58192 45842
L58570 46220
" />
<path d="M58192 44818
L58192 45842
" />
<path d="M58570 46220
L58858 46220
" />
<path d="M58188 43641
L58188 44303
" />
<path d="M58188 44303
L58003 44488
" />
</g>
<g style="fill:#008400; fill-opacity:0.0; 
stroke:#008400; stroke-width:393.701; stroke-opacity:1; 
stroke-linecap:round; stroke-linejoin:round;">
<path d="M61220 46220
L61220 45059
" />
<path d="M61220 45059
L61122 44960
" />
<path d="M58858 46220
L61220 46220
" />
<path d="M61110 47401
L61110 46330
" />
<path d="M61110 46330
L61220 46220
" />
<path d="M57027 45275
L55295 45275
" />
<path d="M54487 44467
L54487 42676
" />
<path d="M55295 45275
L54487 44467
" />
<path d="M58984 44488
L58984 45188
" />
<path d="M58984 45188
L58858 45314
" />
<path d="M57027 45275
L57027 46279
" />
<path d="M57027 46279
L56850 46456
" />
</g>
<g style="fill:#008400; fill-opacity:0.0; 
stroke:#008400; stroke-width:196.85; stroke-opacity:1; 
stroke-linecap:round; stroke-linejoin:round;">
<path d="M56200 40393
L56807 40393
" />
<path d="M61188 36984
L61185 36988
" />
<path d="M61188 36377
L61188 36984
" />
<path d="M61188 38173
L61188 37716
" />
<path d="M60933 38429
L61188 38173
" />
<path d="M58905 37952
L58905 37925
" />
<path d="M58905 37925
L58354 37374
" />
<path d="M54854 37374
L54173 36692
" />
<path d="M58354 37374
L54854 37374
" />
<path d="M58818 39035
L58818 38039
" />
<path d="M58818 38039
L58905 37952
" />
<path d="M59763 39035
L59763 39610
" />
<path d="M58173 36692
L58196 36692
" />
<path d="M58196 36692
L58881 37377
" />
<path d="M58881 37377
L59834 37377
" />
<path d="M59834 37377
L60078 37622
" />
<path d="M60078 37622
L60078 39035
" />
</g>
<g style="fill:#008400; fill-opacity:1.0; 
stroke:#008400; stroke-width:98.4252; stroke-opacity:1; 
stroke-linecap:round; stroke-linejoin:round;">
<polyline style="fill-rule:evenodd;"
points="62290,36257
62091,36738
62090,37259
62289,37740
62657,38109
63138,38308
63659,38309
64140,38110
64442,37808
64442,46391
64142,46090
63661,45891
63140,45890
62659,46089
62290,46457
62091,46938
62090,47459
62289,47940
62591,48242
53208,48242
53509,47942
53708,47461
53709,46940
53510,46459
53299,46247
54458,46247
54458,46665
54490,46827
54582,46964
54719,47056
54881,47088
55043,47056
55181,46964
55272,46827
55305,46665
55305,46247
55442,46247
55442,46665
55475,46827
55566,46964
55704,47056
55866,47088
56028,47056
56165,46964
56257,46827
56289,46665
56289,46247
56257,46085
56165,45948
56028,45856
55866,45824
55704,45856
55566,45948
55475,46085
55442,46247
55305,46247
55272,46085
55181,45948
55043,45856
54881,45824
54719,45856
54582,45948
54490,46085
54458,46247
53299,46247
53142,46090
52661,45891
52140,45890
51659,46089
51357,46391
51357,42760
54063,42760
54128,42916
54162,42950
54162,44467
54187,44591
54257,44697
55065,45505
55170,45575
55295,45600
56702,45600
56702,45853
56688,45856
56551,45948
56459,46085
56427,46247
56427,46665
56459,46827
56551,46964
56688,47056
56850,47088
57012,47056
57149,46964
57241,46827
57273,46665
57273,46484
57327,46403
57352,46279
57352,45524
57354,45511
57354,45039
57345,44991
57317,44948
57275,44919
57224,44908
56830,44908
56783,44917
56739,44945
56736,44950
55429,44950
55189,44710
55393,44795
55679,44795
55943,44686
56146,44484
56255,44220
56255,43934
56146,43670
55944,43468
55680,43358
55395,43358
55130,43467
54928,43669
54819,43933
54818,44219
54903,44424
54812,44333
54812,43326
56688,43326
56688,43956
56697,44004
56725,44047
56768,44076
56818,44087
57039,44087
57086,44078
57087,44077
57133,44087
57354,44087
57401,44078
57402,44077
57448,44087
57669,44087
57716,44078
57717,44077
57763,44087
57962,44087
57962,44121
57807,44121
57759,44130
57716,44158
57686,44201
57676,44251
57676,44724
57685,44771
57713,44815
57756,44844
57807,44854
57908,44854
57966,44912
57966,45842
57983,45929
58032,46002
58334,46303
58334,46456
58343,46504
58371,46547
58413,46576
58464,46587
59251,46587
59299,46578
59342,46550
59346,46545
60597,46545
60597,46909
60606,46956
60634,47000
60677,47029
60728,47039
60785,47039
60785,47152
60782,47165
60782,47637
60791,47685
60819,47728
60862,47757
60913,47768
61307,47768
61354,47759
61398,47731
61417,47702
61434,47728
61476,47757
61527,47768
61921,47768
61968,47759
62012,47731
62041,47688
62051,47637
62051,47165
62042,47117
62014,47074
61972,47045
61921,47034
61739,47034
61760,47030
61803,47002
61832,46960
61843,46909
61843,45531
61834,45484
61806,45440
61763,45411
61712,45401
61545,45401
61545,45059
61520,44934
61450,44829
61449,44828
61449,44724
61446,44711
61446,44338
61422,44214
61351,44108
61332,44089
61226,44018
61102,43994
60978,44018
60872,44089
60802,44194
60777,44318
60797,44417
60797,44712
60794,44724
60794,45196
60803,45244
60831,45287
60874,45317
60895,45321
60895,45401
60728,45401
60680,45409
60637,45437
60608,45480
60597,45531
60597,45895
59347,45895
59345,45893
59302,45864
59251,45853
58524,45853
58419,45748
58419,45672
58464,45681
59251,45681
59299,45672
59342,45644
59372,45601
59382,45551
59382,45078
59373,45031
59345,44987
59309,44962
59309,44816
59350,44844
59401,44854
59795,44854
59842,44845
59886,44817
59915,44775
59925,44724
59925,44251
59916,44204
59888,44161
59846,44131
59795,44121
59401,44121
59354,44130
59310,44158
59291,44186
59274,44161
59231,44131
59181,44121
58787,44121
58739,44130
58696,44158
58667,44201
58656,44251
58656,44724
58659,44737
58659,44948
58464,44948
58419,44956
58419,44818
58402,44732
58378,44696
58352,44658
58331,44637
58331,44481
58349,44463
58398,44389
58402,44367
58415,44303
58415,44013
58419,44007
58429,43956
58429,43326
58578,43326
58578,43956
58587,44004
58615,44047
58657,44076
58708,44087
58929,44087
58976,44078
58977,44077
59023,44087
59244,44087
59291,44078
59292,44077
59338,44087
59559,44087
59606,44078
59607,44077
59653,44087
59874,44087
59921,44078
59922,44077
59968,44087
60188,44087
60236,44078
60279,44050
60309,44007
60319,43956
60319,43326
60310,43279
60282,43235
60239,43206
60188,43196
59968,43196
59921,43205
59920,43205
59874,43196
59653,43196
59606,43205
59605,43205
59559,43196
59338,43196
59291,43205
59290,43205
59244,43196
59023,43196
58976,43205
58975,43205
58929,43196
58708,43196
58661,43205
58617,43233
58588,43276
58578,43326
58429,43326
58420,43279
58392,43235
58349,43206
58299,43196
58078,43196
58031,43205
58030,43205
57984,43196
57763,43196
57716,43205
57715,43205
57669,43196
57448,43196
57401,43205
57400,43205
57354,43196
57133,43196
57086,43205
57085,43205
57039,43196
56818,43196
56771,43205
56727,43233
56698,43276
56688,43326
54812,43326
54812,42950
54846,42917
54910,42761
54910,42592
54846,42437
54727,42318
54571,42253
54403,42253
54247,42317
54128,42436
54063,42592
54063,42760
51357,42760
51357,38819
54818,38819
54927,39083
55129,39285
55393,39395
55679,39395
55943,39286
56146,39084
56255,38820
56255,38720
56688,38720
56688,39350
56697,39397
56725,39441
56768,39470
56818,39480
57039,39480
57086,39471
57087,39471
57133,39480
57354,39480
57401,39471
57402,39471
57448,39480
57669,39480
57716,39471
57717,39471
57763,39480
57984,39480
58031,39471
58075,39443
58104,39401
58114,39350
58114,39097
58120,39084
58120,38986
58114,38973
58114,38720
58105,38673
58077,38629
58035,38600
57984,38590
57763,38590
57716,38598
57715,38599
57669,38590
57448,38590
57401,38598
57400,38599
57354,38590
57133,38590
57086,38598
57085,38599
57039,38590
56818,38590
56771,38598
56727,38626
56698,38669
56688,38720
56255,38720
56255,38534
56146,38270
55944,38068
55680,37958
55395,37958
55130,38067
54928,38269
54819,38533
54818,38819
51357,38819
51357,37808
51657,38109
52138,38308
52659,38309
53140,38110
53509,37742
53708,37261
53708,37125
53711,37140
53739,37183
53782,37213
53833,37223
54383,37223
54694,37534
54700,37538
54767,37583
54854,37600
57908,37600
57873,37623
57844,37665
57834,37716
57834,38188
57843,38236
57871,38279
57913,38309
57964,38319
58207,38319
58277,38389
58277,38663
58273,38669
58263,38720
58263,39350
58272,39397
58277,39406
58277,39425
57851,39852
56646,39852
56646,39653
56637,39606
56609,39562
56566,39533
56515,39523
55885,39523
55838,39532
55794,39560
55765,39602
55755,39653
55755,39874
55764,39921
55764,39922
55755,39968
55755,40188
55764,40236
55764,40237
55755,40283
55755,40503
55764,40551
55764,40552
55755,40598
55755,40797
55642,40797
55642,40562
55633,40515
55605,40472
55562,40442
55511,40432
55039,40432
54991,40441
54948,40469
54919,40512
54908,40562
54908,40788
54846,40637
54727,40518
54571,40453
54403,40453
54247,40517
54128,40636
54063,40792
54063,40960
54128,41116
54247,41235
54346,41276
54247,41317
54128,41436
54063,41592
54063,41760
54128,41916
54247,42035
54402,42100
54571,42100
54726,42036
54846,41917
54910,41761
54910,41592
54890,41543
55755,41543
55755,41763
55764,41811
55764,41811
55755,41858
55755,42078
55764,42126
55764,42126
55755,42173
55755,42393
55764,42441
55764,42441
55755,42488
55755,42708
55764,42756
55764,42756
55755,42803
55755,43023
55764,43071
55792,43114
55835,43143
55885,43154
56515,43154
56563,43145
56606,43117
56635,43074
56646,43023
56646,42803
56637,42755
56636,42755
56646,42708
56646,42488
56637,42440
56636,42440
56646,42393
56646,42173
56637,42125
56636,42125
56646,42078
56646,41858
60361,41858
60361,42078
60370,42126
60371,42126
60361,42173
60361,42393
60370,42441
60371,42441
60361,42488
60361,42708
60370,42756
60371,42756
60361,42803
60361,43023
60370,43071
60398,43114
60441,43143
60492,43154
61122,43154
61169,43145
61213,43117
61242,43074
61252,43023
61252,42803
61243,42755
61243,42755
61252,42708
61252,42488
61243,42440
61243,42440
61252,42393
61252,42173
61243,42125
61243,42125
61252,42078
61252,41858
61243,41810
61215,41767
61172,41738
61122,41727
60492,41727
60444,41736
60401,41764
60371,41807
60361,41858
56646,41858
56637,41810
56636,41810
56646,41763
56646,41543
56637,41495
56609,41452
56566,41423
56515,41412
55885,41412
55838,41421
55794,41449
55765,41492
55755,41543
54890,41543
54846,41437
54727,41318
54628,41276
54726,41236
54846,41117
54910,40962
54917,41004
54945,41047
54988,41076
55039,41087
55282,41087
55379,41183
55452,41232
55539,41250
55829,41250
55835,41254
55885,41264
56515,41264
56563,41255
56606,41227
56635,41184
56646,41133
56646,40913
56637,40865
56636,40865
56646,40818
56646,40620
56710,40620
56757,40639
56855,40639
56946,40602
57015,40533
57053,40442
57053,40344
57036,40305
57944,40305
58031,40287
58104,40238
58314,40029
58343,40073
59769,41498
59842,41547
59929,41564
60435,41564
60441,41569
60492,41579
61122,41579
61169,41570
61177,41564
61287,41564
61295,41610
61323,41653
61366,41683
61417,41693
61889,41693
61937,41684
61980,41656
62009,41613
62020,41562
62020,41169
62011,41121
61983,41078
61940,41049
61889,41038
61417,41038
61369,41047
61326,41075
61301,41112
61252,41112
61252,40913
61243,40865
61243,40865
61252,40818
61252,40598
61243,40551
61243,40550
61252,40503
61252,40283
61243,40236
61243,40235
61252,40188
61252,39968
61243,39921
61243,39920
61252,39874
61252,39653
61243,39606
61215,39562
61172,39533
61122,39523
60492,39523
60444,39532
60401,39560
60371,39602
60361,39653
60361,39874
60370,39921
60371,39922
60361,39968
60361,40188
60370,40236
60371,40237
60361,40283
60361,40503
60370,40551
60371,40552
60361,40598
60361,40818
60370,40866
60371,40867
60361,40913
60361,41112
60022,41112
58730,39819
58730,39480
58929,39480
58976,39471
58977,39471
59023,39480
59244,39480
59291,39471
59292,39471
59338,39480
59537,39480
59537,39513
59517,39561
59517,39658
59555,39749
59624,39818
59714,39856
59812,39856
59902,39818
59972,39749
60009,39659
60009,39561
59990,39513
59990,39480
60188,39480
60236,39471
60279,39443
60309,39401
60319,39350
60319,38720
60310,38673
60305,38664
60305,38477
60686,38477
60724,38568
60793,38637
60883,38675
60981,38675
61072,38637
61141,38568
61161,38520
61349,38333
61398,38259
61415,38173
61415,38077
61433,38074
61476,38046
61496,38017
61512,38043
61555,38072
61606,38083
62000,38083
62047,38074
62090,38046
62120,38003
62130,37952
62130,37480
62121,37432
62093,37389
62050,37360
62000,37349
61606,37349
61558,37358
61515,37386
61495,37415
61479,37389
61436,37360
61385,37349
60992,37349
60944,37358
60901,37386
60871,37429
60861,37480
60861,37952
60870,38000
60898,38043
60941,38072
60962,38077
60962,38079
60841,38200
60793,38220
60724,38289
60687,38379
60686,38477
60305,38477
60305,37622
60287,37535
60269,37508
60238,37461
59994,37217
59921,37168
59834,37151
59418,37151
59504,37094
59605,36942
59641,36763
59641,36622
59605,36443
59504,36291
59352,36190
59173,36154
58994,36190
58842,36291
58740,36443
58705,36622
58705,36763
58734,36910
58632,36808
58641,36763
58641,36622
58605,36443
58504,36291
58352,36190
58173,36154
57994,36190
57842,36291
57740,36443
57705,36622
57705,36763
57740,36942
57842,37094
57922,37147
57424,37147
57504,37094
57605,36942
57641,36763
57641,36622
57605,36443
57504,36291
57352,36190
57173,36154
56994,36190
56842,36291
56740,36443
56705,36622
56705,36763
56740,36942
56842,37094
56922,37147
55424,37147
55504,37094
55605,36942
55641,36763
55641,36622
55605,36443
55504,36291
55352,36190
55173,36154
54994,36190
54842,36291
54740,36443
54705,36622
54705,36763
54740,36939
54643,36843
54643,36292
54634,36245
54606,36201
54563,36172
54513,36162
53833,36162
53785,36171
53742,36199
53713,36242
53702,36292
53702,36724
53510,36259
53392,36141
60861,36141
60861,36614
60870,36661
60898,36705
60941,36734
60962,36738
60962,36882
60939,36939
60938,37036
60976,37127
61045,37196
61135,37234
61233,37234
61324,37196
61393,37127
61431,37037
61431,36939
61415,36901
61415,36739
61433,36735
61476,36707
61496,36679
61512,36705
61555,36734
61606,36744
62000,36744
62047,36735
62090,36707
62120,36664
62130,36614
62130,36141
62121,36094
62093,36050
62050,36021
62000,36011
61606,36011
61558,36020
61515,36048
61495,36076
61479,36050
61436,36021
61385,36011
60992,36011
60944,36020
60901,36048
60871,36090
60861,36141
53392,36141
53208,35957
62591,35957
62290,36257
" /> 
</g>
<g style="fill:#FFFFFF; fill-opacity:1.0; 
stroke:#FFFFFF; stroke-width:98.4252; stroke-opacity:1; 
stroke-linecap:round; stroke-linejoin:round;">
</g>
<g style="fill:#FFFFFF; fill-opacity:1.0; 
stroke:#FFFFFF; stroke-width:0; stroke-opacity:1; 
stroke-linecap:round; stroke-linejoin:round;">
<circle cx="63400" cy="37000" r="590.551" /> 
</g>
<g style="fill:#FFFFFF; fill-opacity:1.0; 
stroke:#FFFFFF; stroke-width:39.3701; stroke-opacity:1; 
stroke-linecap:round; stroke-linejoin:round;">
</g>
<g style="fill:#FFFFFF; fill-opacity:1.0; 
stroke:#FFFFFF; stroke-width:0; stroke-opacity:1; 
stroke-linecap:round; stroke-linejoin:round;">
<circle cx="52400" cy="47200" r="590.551" /> 
</g>
<g style="fill:#FFFFFF; fill-opacity:1.0; 
stroke:#FFFFFF; stroke-width:39.3701; stroke-opacity:1; 
stroke-linecap:round; stroke-linejoin:round;">
</g>
<g style="fill:#FFFFFF; fill-opacity:1.0; 
stroke:#FFFFFF; stroke-width:0; stroke-opacity:1; 
stroke-linecap:round; stroke-linejoin:round;">
<circle cx="52400" cy="37000" r="590.551" /> 
</g>
<g style="fill:#FFFFFF; fill-opacity:1.0; 
stroke:#FFFFFF; stroke-width:39.3701; stroke-opacity:1; 
stroke-linecap:round; stroke-linejoin:round;">
</g>
<g style="fill:#FFFFFF; fill-opacity:1.0; 
stroke:#FFFFFF; stroke-width:0; stroke-opacity:1; 
stroke-linecap:round; stroke-linejoin:round;">
<circle cx="63400" cy="47200" r="590.551" /> 
</g>
<g style="fill:#FFFFFF; fill-opacity:1.0; 
stroke:#FFFFFF; stroke-width:39.3701; stroke-opacity:1; 
stroke-linecap:round; stroke-linejoin:round;">
</g>
<g style="fill:#FFFFFF; fill-opacity:1.0; 
stroke:#FFFFFF; stroke-width:0; stroke-opacity:1; 
stroke-linecap:round; stroke-linejoin:round;">
<circle cx="58161.4" cy="37952.8" r="78.7402" /> 
</g>
<g style="fill:#FFFFFF; fill-opacity:1.0; 
stroke:#FFFFFF; stroke-width:39.3701; stroke-opacity:1; 
stroke-linecap:round; stroke-linejoin:round;">
</g>
<g style="fill:#FFFFFF; fill-opacity:1.0; 
stroke:#FFFFFF; stroke-width:0; stroke-opacity:1; 
stroke-linecap:round; stroke-linejoin:round;">
<circle cx="59519.7" cy="37952.8" r="78.7402" /> 
</g>
<g style="fill:#FFFFFF; fill-opacity:1.0; 
stroke:#FFFFFF; stroke-width:39.3701; stroke-opacity:1; 
stroke-linecap:round; stroke-linejoin:round;">
</g>
<g style="fill:#FFFFFF; fill-opacity:1.0; 
stroke:#FFFFFF; stroke-width:0; stroke-opacity:1; 
stroke-linecap:round; stroke-linejoin:round;">
<circle cx="61653.5" cy="41366.1" r="78.7402" /> 
</g>
<g style="fill:#FFFFFF; fill-opacity:1.0; 
stroke:#FFFFFF; stroke-width:39.3701; stroke-opacity:1; 
stroke-linecap:round; stroke-linejoin:round;">
</g>
<g style="fill:#FFFFFF; fill-opacity:1.0; 
stroke:#FFFFFF; stroke-width:0; stroke-opacity:1; 
stroke-linecap:round; stroke-linejoin:round;">
<circle cx="61102.4" cy="44318.9" r="78.7402" /> 
</g>
<g style="fill:#FFFFFF; fill-opacity:1.0; 
stroke:#FFFFFF; stroke-width:39.3701; stroke-opacity:1; 
stroke-linecap:round; stroke-linejoin:round;">
</g>
<g style="fill:#FFFFFF; fill-opacity:1.0; 
stroke:#FFFFFF; stroke-width:0; stroke-opacity:1; 
stroke-linecap:round; stroke-linejoin:round;">
<circle cx="57559.1" cy="43641.7" r="78.7402" /> 
</g>
<g style="fill:#FFFFFF; fill-opacity:1.0; 
stroke:#FFFFFF; stroke-width:39.3701; stroke-opacity:1; 
stroke-linecap:round; stroke-linejoin:round;">
</g>
<g style="fill:#FFFFFF; fill-opacity:1.0; 
stroke:#FFFFFF; stroke-width:0; stroke-opacity:1; 
stroke-linecap:round; stroke-linejoin:round;">
<circle cx="58858.3" cy="45315" r="78.7402" /> 
</g>
<g style="fill:#FFFFFF; fill-opacity:1.0; 
stroke:#FFFFFF; stroke-width:39.3701; stroke-opacity:1; 
stroke-linecap:round; stroke-linejoin:round;">
</g>
<g style="fill:#FFFFFF; fill-opacity:1.0; 
stroke:#FFFFFF; stroke-width:0; stroke-opacity:1; 
stroke-linecap:round; stroke-linejoin:round;">
<circle cx="57027.6" cy="45275.6" r="78.7402" /> 
</g>
<g style="fill:#FFFFFF; fill-opacity:1.0; 
stroke:#FFFFFF; stroke-width:39.3701; stroke-opacity:1; 
stroke-linecap:round; stroke-linejoin:round;">
</g>
<g style="fill:#FFFFFF; fill-opacity:1.0; 
stroke:#FFFFFF; stroke-width:0; stroke-opacity:1; 
stroke-linecap:round; stroke-linejoin:round;">
<circle cx="61803.1" cy="36378" r="78.7402" /> 
</g>
<g style="fill:#FFFFFF; fill-opacity:1.0; 
stroke:#FFFFFF; stroke-width:39.3701; stroke-opacity:1; 
stroke-linecap:round; stroke-linejoin:round;">
</g>
<g style="fill:#FFFFFF; fill-opacity:1.0; 
stroke:#FFFFFF; stroke-width:0; stroke-opacity:1; 
stroke-linecap:round; stroke-linejoin:round;">
<circle cx="61803.1" cy="37716.5" r="78.7402" /> 
</g>
<g style="fill:#FFFFFF; fill-opacity:1.0; 
stroke:#FFFFFF; stroke-width:39.3701; stroke-opacity:1; 
stroke-linecap:round; stroke-linejoin:round;">
</g>
<g style="fill:#FFFFFF; fill-opacity:1.0; 
stroke:#FFFFFF; stroke-width:0; stroke-opacity:1; 
stroke-linecap:round; stroke-linejoin:round;">
<circle cx="56200.8" cy="42598.4" r="78.7402" /> 
</g>
<g style="fill:#FFFFFF; fill-opacity:1.0; 
stroke:#FFFFFF; stroke-width:39.3701; stroke-opacity:1; 
stroke-linecap:round; stroke-linejoin:round;">
</g>
<g style="fill:#FFFFFF; fill-opacity:1.0; 
stroke:#FFFFFF; stroke-width:0; stroke-opacity:1; 
stroke-linecap:round; stroke-linejoin:round;">
<circle cx="56200.8" cy="42283.5" r="78.7402" /> 
</g>
<g style="fill:#FFFFFF; fill-opacity:1.0; 
stroke:#FFFFFF; stroke-width:39.3701; stroke-opacity:1; 
stroke-linecap:round; stroke-linejoin:round;">
</g>
<g style="fill:#FFFFFF; fill-opacity:1.0; 
stroke:#FFFFFF; stroke-width:0; stroke-opacity:1; 
stroke-linecap:round; stroke-linejoin:round;">
<circle cx="56200.8" cy="40708.7" r="78.7402" /> 
</g>
<g style="fill:#FFFFFF; fill-opacity:1.0; 
stroke:#FFFFFF; stroke-width:39.3701; stroke-opacity:1; 
stroke-linecap:round; stroke-linejoin:round;">
</g>
<g style="fill:#FFFFFF; fill-opacity:1.0; 
stroke:#FFFFFF; stroke-width:0; stroke-opacity:1; 
stroke-linecap:round; stroke-linejoin:round;">
<circle cx="56807.1" cy="40393.7" r="78.7402" /> 
</g>
<g style="fill:#FFFFFF; fill-opacity:1.0; 
stroke:#FFFFFF; stroke-width:39.3701; stroke-opacity:1; 
stroke-linecap:round; stroke-linejoin:round;">
</g>
<g style="fill:#FFFFFF; fill-opacity:1.0; 
stroke:#FFFFFF; stroke-width:0; stroke-opacity:1; 
stroke-linecap:round; stroke-linejoin:round;">
<circle cx="61185" cy="36988.2" r="78.7402" /> 
</g>
<g style="fill:#FFFFFF; fill-opacity:1.0; 
stroke:#FFFFFF; stroke-width:39.3701; stroke-opacity:1; 
stroke-linecap:round; stroke-linejoin:round;">
</g>
<g style="fill:#FFFFFF; fill-opacity:1.0; 
stroke:#FFFFFF; stroke-width:0; stroke-opacity:1; 
stroke-linecap:round; stroke-linejoin:round;">
<circle cx="57559.1" cy="39035.4" r="78.7402" /> 
</g>
<g style="fill:#FFFFFF; fill-opacity:1.0; 
stroke:#FFFFFF; stroke-width:39.3701; stroke-opacity:1; 
stroke-linecap:round; stroke-linejoin:round;">
</g>
<g style="fill:#FFFFFF; fill-opacity:1.0; 
stroke:#FFFFFF; stroke-width:0; stroke-opacity:1; 
stroke-linecap:round; stroke-linejoin:round;">
<circle cx="57874" cy="39035.4" r="78.7402" /> 
</g>
<g style="fill:#FFFFFF; fill-opacity:1.0; 
stroke:#FFFFFF; stroke-width:39.3701; stroke-opacity:1; 
stroke-linecap:round; stroke-linejoin:round;">
</g>
<g style="fill:#FFFFFF; fill-opacity:1.0; 
stroke:#FFFFFF; stroke-width:0; stroke-opacity:1; 
stroke-linecap:round; stroke-linejoin:round;">
<circle cx="60933.1" cy="38429.1" r="78.7402" /> 
</g>
<g style="fill:#FFFFFF; fill-opacity:1.0; 
stroke:#FFFFFF; stroke-width:39.3701; stroke-opacity:1; 
stroke-linecap:round; stroke-linejoin:round;">
</g>
<g style="fill:#FFFFFF; fill-opacity:1.0; 
stroke:#FFFFFF; stroke-width:0; stroke-opacity:1; 
stroke-linecap:round; stroke-linejoin:round;">
<circle cx="59763.8" cy="39610.2" r="78.7402" /> 
</g>
<g style="fill:#FFFFFF; fill-opacity:1.0; 
stroke:#FFFFFF; stroke-width:39.3701; stroke-opacity:1; 
stroke-linecap:round; stroke-linejoin:round;">
</g>
<g style="fill:#FFFFFF; fill-opacity:1.0; 
stroke:#FFFFFF; stroke-width:0; stroke-opacity:1; 
stroke-linecap:round; stroke-linejoin:round;">
<circle cx="59598.4" cy="44488.2" r="78.7402" /> 
</g>
<g style="fill:#FFFFFF; fill-opacity:1.0; 
stroke:#FFFFFF; stroke-width:39.3701; stroke-opacity:1; 
stroke-linecap:round; stroke-linejoin:round;">
</g>
<g style="fill:#FFFFFF; fill-opacity:1.0; 
stroke:#FFFFFF; stroke-width:0; stroke-opacity:1; 
stroke-linecap:round; stroke-linejoin:round;">
<circle cx="61724.4" cy="47401.6" r="78.7402" /> 
</g>
<g style="fill:#FFFFFF; fill-opacity:1.0; 
stroke:#FFFFFF; stroke-width:39.3701; stroke-opacity:1; 
stroke-linecap:round; stroke-linejoin:round;">
</g>
<g style="fill:#FFFFFF; fill-opacity:1.0; 
stroke:#FFFFFF; stroke-width:0; stroke-opacity:1; 
stroke-linecap:round; stroke-linejoin:round;">
<circle cx="54173.2" cy="36692.9" r="200" /> 
</g>
<g style="fill:#FFFFFF; fill-opacity:1.0; 
stroke:#FFFFFF; stroke-width:39.3701; stroke-opacity:1; 
stroke-linecap:round; stroke-linejoin:round;">
</g>
<g style="fill:#FFFFFF; fill-opacity:1.0; 
stroke:#FFFFFF; stroke-width:0; stroke-opacity:1; 
stroke-linecap:round; stroke-linejoin:round;">
<circle cx="55173.2" cy="36692.9" r="200" /> 
</g>
<g style="fill:#FFFFFF; fill-opacity:1.0; 
stroke:#FFFFFF; stroke-width:39.3701; stroke-opacity:1; 
stroke-linecap:round; stroke-linejoin:round;">
</g>
<g style="fill:#FFFFFF; fill-opacity:1.0; 
stroke:#FFFFFF; stroke-width:0; stroke-opacity:1; 
stroke-linecap:round; stroke-linejoin:round;">
<circle cx="56173.2" cy="36692.9" r="200" /> 
</g>
<g style="fill:#FFFFFF; fill-opacity:1.0; 
stroke:#FFFFFF; stroke-width:39.3701; stroke-opacity:1; 
stroke-linecap:round; stroke-linejoin:round;">
</g>
<g style="fill:#FFFFFF; fill-opacity:1.0; 
stroke:#FFFFFF; stroke-width:0; stroke-opacity:1; 
stroke-linecap:round; stroke-linejoin:round;">
<circle cx="57173.2" cy="36692.9" r="200" /> 
</g>
<g style="fill:#FFFFFF; fill-opacity:1.0; 
stroke:#FFFFFF; stroke-width:39.3701; stroke-opacity:1; 
stroke-linecap:round; stroke-linejoin:round;">
</g>
<g style="fill:#FFFFFF; fill-opacity:1.0; 
stroke:#FFFFFF; stroke-width:0; stroke-opacity:1; 
stroke-linecap:round; stroke-linejoin:round;">
<circle cx="58173.2" cy="36692.9" r="200" /> 
</g>
<g style="fill:#FFFFFF; fill-opacity:1.0; 
stroke:#FFFFFF; stroke-width:39.3701; stroke-opacity:1; 
stroke-linecap:round; stroke-linejoin:round;">
</g>
<g style="fill:#FFFFFF; fill-opacity:1.0; 
stroke:#FFFFFF; stroke-width:0; stroke-opacity:1; 
stroke-linecap:round; stroke-linejoin:round;">
<circle cx="59173.2" cy="36692.9" r="200" /> 
</g>
<g style="fill:#FFFFFF; fill-opacity:1.0; 
stroke:#FFFFFF; stroke-width:39.3701; stroke-opacity:1; 
stroke-linecap:round; stroke-linejoin:round;">
</g>
<g style="fill:#FFFFFF; fill-opacity:1.0; 
stroke:#FFFFFF; stroke-width:0; stroke-opacity:1; 
stroke-linecap:round; stroke-linejoin:round;">
<circle cx="54487.4" cy="39876.8" r="197" /> 
</g>
<g style="fill:#FFFFFF; fill-opacity:1.0; 
stroke:#FFFFFF; stroke-width:39.3701; stroke-opacity:1; 
stroke-linecap:round; stroke-linejoin:round;">
</g>
<g style="fill:#FFFFFF; fill-opacity:1.0; 
stroke:#FFFFFF; stroke-width:0; stroke-opacity:1; 
stroke-linecap:round; stroke-linejoin:round;">
<circle cx="54487.4" cy="40876.8" r="197" /> 
</g>
<g style="fill:#FFFFFF; fill-opacity:1.0; 
stroke:#FFFFFF; stroke-width:39.3701; stroke-opacity:1; 
stroke-linecap:round; stroke-linejoin:round;">
</g>
<g style="fill:#FFFFFF; fill-opacity:1.0; 
stroke:#FFFFFF; stroke-width:0; stroke-opacity:1; 
stroke-linecap:round; stroke-linejoin:round;">
<circle cx="54487.4" cy="41676.8" r="197" /> 
</g>
<g style="fill:#FFFFFF; fill-opacity:1.0; 
stroke:#FFFFFF; stroke-width:39.3701; stroke-opacity:1; 
stroke-linecap:round; stroke-linejoin:round;">
</g>
<g style="fill:#FFFFFF; fill-opacity:1.0; 
stroke:#FFFFFF; stroke-width:0; stroke-opacity:1; 
stroke-linecap:round; stroke-linejoin:round;">
<circle cx="54487.4" cy="42676.8" r="197" /> 
</g>
<g style="fill:#FFFFFF; fill-opacity:1.0; 
stroke:#FFFFFF; stroke-width:39.3701; stroke-opacity:1; 
stroke-linecap:round; stroke-linejoin:round;">
</g>
<g style="fill:#FFFFFF; fill-opacity:1.0; 
stroke:#FFFFFF; stroke-width:0; stroke-opacity:1; 
stroke-linecap:round; stroke-linejoin:round;">
<circle cx="55537.4" cy="38676.8" r="453" /> 
</g>
<g style="fill:#FFFFFF; fill-opacity:1.0; 
stroke:#FFFFFF; stroke-width:39.3701; stroke-opacity:1; 
stroke-linecap:round; stroke-linejoin:round;">
</g>
<g style="fill:#FFFFFF; fill-opacity:1.0; 
stroke:#FFFFFF; stroke-width:0; stroke-opacity:1; 
stroke-linecap:round; stroke-linejoin:round;">
<circle cx="55537.4" cy="44076.8" r="453" /> 
</g>
<g style="fill:#FFFFFF; fill-opacity:1.0; 
stroke:#FFFFFF; stroke-width:39.3701; stroke-opacity:1; 
stroke-linecap:round; stroke-linejoin:round;">
</g>
<g style="fill:#FFFFFF; fill-opacity:1.0; 
stroke:#FFFFFF; stroke-width:0; stroke-opacity:1; 
stroke-linecap:round; stroke-linejoin:round;">
<circle cx="54881.9" cy="46456.7" r="196.85" /> 
</g>
<g style="fill:#FFFFFF; fill-opacity:1.0; 
stroke:#FFFFFF; stroke-width:39.3701; stroke-opacity:1; 
stroke-linecap:round; stroke-linejoin:round;">
</g>
<g style="fill:#FFFFFF; fill-opacity:1.0; 
stroke:#FFFFFF; stroke-width:0; stroke-opacity:1; 
stroke-linecap:round; stroke-linejoin:round;">
<circle cx="55866.1" cy="46456.7" r="196.85" /> 
</g>
<g style="fill:#FFFFFF; fill-opacity:1.0; 
stroke:#FFFFFF; stroke-width:39.3701; stroke-opacity:1; 
stroke-linecap:round; stroke-linejoin:round;">
</g>
<g style="fill:#FFFFFF; fill-opacity:1.0; 
stroke:#FFFFFF; stroke-width:0; stroke-opacity:1; 
stroke-linecap:round; stroke-linejoin:round;">
<circle cx="56850.4" cy="46456.7" r="196.85" /> 
</g>
<g style="fill:#FFFFFF; fill-opacity:1.0; 
stroke:#FFFFFF; stroke-width:39.3701; stroke-opacity:1; 
stroke-linecap:round; stroke-linejoin:round;">
</g>
<g style="fill:#FFFFFF; fill-opacity:1.0; 
stroke:#FFFFFF; stroke-width:0; stroke-opacity:1; 
stroke-linecap:round; stroke-linejoin:round;">
<circle cx="57834.6" cy="46456.7" r="196.85" /> 
</g>
<g style="fill:#FFFFFF; fill-opacity:1.0; 
stroke:#FFFFFF; stroke-width:39.3701; stroke-opacity:1; 
stroke-linecap:round; stroke-linejoin:round;">
</g>
<g style="fill:#000000; fill-opacity:1.0; 
stroke:#000000; stroke-width:39.3701; stroke-opacity:1; 
stroke-linecap:round; stroke-linejoin:round;">
</g>
<g style="fill:#848484; fill-opacity:1.0; 
stroke:#848484; stroke-width:39.3701; stroke-opacity:1; 
stroke-linecap:round; stroke-linejoin:round;">
</g>
<g style="fill:#848484; fill-opacity:0.0; 
stroke:#848484; stroke-width:39.3701; stroke-opacity:1; 
stroke-linecap:round; stroke-linejoin:round;">
</g>
<g style="fill:#848484; fill-opacity:0.0; 
stroke:#848484; stroke-width:118.11; stroke-opacity:1; 
stroke-linecap:round; stroke-linejoin:round;">
<path d="M67226 44589
L67227 44223
L67452 44421
L67452 44336
L67480 44280
L67508 44252
L67565 44224
L67705 44225
L67762 44253
L67790 44281
L67818 44337
L67817 44506
L67789 44562
L67761 44590
" />
<path d="M67284 43998
L67256 43970
L67228 43914
L67229 43773
L67257 43717
L67285 43689
L67342 43661
L67398 43661
L67482 43690
L67818 44028
L67820 43663
" />
<path d="M67764 43409
L67792 43381
L67820 43409
L67792 43438
L67764 43409
L67820 43409
" />
<path d="M67822 42819
L67821 43156
" />
<path d="M67822 42988
L67231 42986
L67315 43042
L67371 43099
L67399 43155
" />
<path d="M67233 42452
L67233 42395
L67261 42339
L67290 42311
L67346 42283
L67458 42255
L67599 42256
L67711 42284
L67768 42313
L67796 42341
L67824 42397
L67823 42453
L67795 42509
L67767 42538
L67711 42565
L67598 42593
L67457 42593
L67345 42564
L67289 42536
L67261 42508
L67233 42452
" />
<path d="M67235 41889
L67235 41833
L67263 41777
L67291 41749
L67348 41721
L67460 41693
L67601 41693
L67713 41722
L67769 41750
L67797 41778
L67825 41835
L67825 41891
L67797 41947
L67769 41975
L67712 42003
L67600 42031
L67459 42030
L67347 42002
L67291 41974
L67263 41945
L67235 41889
" />
<path d="M67828 40991
L67434 40990
" />
<path d="M67491 40990
L67462 40962
L67435 40905
L67435 40821
L67463 40765
L67519 40737
L67829 40738
" />
<path d="M67519 40737
L67463 40709
L67435 40652
L67436 40568
L67464 40512
L67520 40484
L67830 40485
" />
<path d="M67830 40204
L67437 40202
" />
<path d="M67493 40203
L67465 40174
L67437 40118
L67437 40034
L67466 39978
L67522 39950
L67831 39951
" />
<path d="M67522 39950
L67466 39921
L67438 39865
L67438 39781
L67466 39724
L67523 39696
L67832 39697
" />
<path d="M67045 35795
L67006 48432
" />
<path d="M64606 35787
L68108 35798
" />
<path d="M64566 48425
L68069 48436
" />
<path d="M67006 48432
L66777 47988
" />
<path d="M67006 48432
L67238 47990
" />
<path d="M67045 35795
L66813 36237
" />
<path d="M67045 35795
L67275 36239
" />
<path d="M66113 39659
L66141 39687
L66169 39744
L66169 39884
L66141 39940
L66113 39969
L66057 39997
L66001 39997
L65916 39969
L65579 39631
L65579 39997
" />
<path d="M66169 40531
L66169 40250
L65888 40222
L65916 40250
L65944 40306
L65944 40447
L65916 40503
L65888 40531
L65832 40559
L65691 40559
L65635 40531
L65607 40503
L65579 40447
L65579 40306
L65607 40250
L65635 40222
" />
<path d="M65635 40812
L65607 40840
L65579 40812
L65607 40784
L65635 40812
L65579 40812
" />
<path d="M65579 41122
L65579 41234
L65607 41290
L65635 41318
L65719 41375
L65832 41403
L66057 41403
L66113 41375
L66141 41347
L66169 41290
L66169 41178
L66141 41122
L66113 41093
L66057 41065
L65916 41065
L65860 41093
L65832 41122
L65804 41178
L65804 41290
L65832 41347
L65860 41375
L65916 41403
" />
<path d="M66169 41768
L66169 41825
L66141 41881
L66113 41909
L66057 41937
L65944 41965
L65804 41965
L65691 41937
L65635 41909
L65607 41881
L65579 41825
L65579 41768
L65607 41712
L65635 41684
L65691 41656
L65804 41628
L65944 41628
L66057 41656
L66113 41684
L66141 41712
L66169 41768
" />
<path d="M66169 42331
L66169 42387
L66141 42443
L66113 42471
L66057 42500
L65944 42528
L65804 42528
L65691 42500
L65635 42471
L65607 42443
L65579 42387
L65579 42331
L65607 42275
L65635 42246
L65691 42218
L65804 42190
L65944 42190
L66057 42218
L66113 42246
L66141 42275
L66169 42331
" />
<path d="M65579 43231
L65973 43231
" />
<path d="M65916 43231
L65944 43259
L65973 43315
L65973 43399
L65944 43456
L65888 43484
L65579 43484
" />
<path d="M65888 43484
L65944 43512
L65973 43568
L65973 43652
L65944 43709
L65888 43737
L65579 43737
" />
<path d="M65579 44018
L65973 44018
" />
<path d="M65916 44018
L65944 44046
L65973 44102
L65973 44187
L65944 44243
L65888 44271
L65579 44271
" />
<path d="M65888 44271
L65944 44299
L65973 44356
L65973 44440
L65944 44496
L65888 44524
L65579 44524
" />
<path d="M65314 37007
L65314 47204
" />
<path d="M64606 37007
L66377 37007
" />
<path d="M64606 47204
L66377 47204
" />
<path d="M65314 47204
L65084 46761
" />
<path d="M65314 47204
L65545 46761
" />
<path d="M65314 37007
L65084 37451
" />
<path d="M65314 37007
L65545 37451
" />
<path d="M55432 34488
L55460 34460
L55516 34432
L55657 34432
L55713 34460
L55741 34489
L55769 34545
L55769 34601
L55740 34685
L55402 35022
L55767 35023
" />
<path d="M56106 34687
L56050 34658
L56022 34630
L55994 34574
L55994 34546
L56022 34490
L56050 34462
L56107 34434
L56219 34434
L56275 34462
L56303 34491
L56331 34547
L56331 34575
L56303 34631
L56275 34659
L56218 34687
L56106 34687
L56050 34715
L56021 34743
L55993 34799
L55993 34911
L56020 34968
L56049 34996
L56105 35024
L56217 35025
L56273 34997
L56302 34969
L56330 34913
L56330 34800
L56302 34744
L56274 34716
L56218 34687
" />
<path d="M56583 34970
L56611 34998
L56583 35026
L56555 34998
L56583 34970
L56583 35026
" />
<path d="M56979 34437
L57035 34437
L57091 34465
L57119 34494
L57147 34550
L57175 34662
L57174 34803
L57146 34915
L57117 34972
L57089 35000
L57033 35028
L56976 35027
L56920 34999
L56892 34971
L56864 34914
L56837 34802
L56837 34661
L56866 34549
L56894 34493
L56922 34465
L56979 34437
" />
<path d="M57541 34439
L57597 34439
L57653 34467
L57681 34496
L57709 34552
L57737 34665
L57736 34805
L57708 34917
L57680 34974
L57651 35002
L57595 35030
L57539 35029
L57483 35001
L57455 34973
L57427 34916
L57399 34804
L57400 34663
L57428 34551
L57456 34495
L57485 34467
L57541 34439
" />
<path d="M58103 34441
L58160 34441
L58216 34469
L58244 34498
L58272 34554
L58299 34667
L58299 34807
L58270 34920
L58242 34976
L58214 35004
L58158 35032
L58101 35031
L58045 35003
L58017 34975
L57989 34918
L57961 34806
L57962 34665
L57990 34553
L58019 34497
L58047 34469
L58103 34441
" />
<path d="M59001 35035
L59003 34641
" />
<path d="M59002 34697
L59031 34669
L59087 34641
L59171 34642
L59227 34670
L59255 34726
L59254 35036
" />
<path d="M59255 34726
L59284 34670
L59340 34642
L59424 34642
L59481 34671
L59508 34727
L59507 35036
" />
<path d="M59789 35037
L59790 34644
" />
<path d="M59790 34700
L59818 34672
L59874 34644
L59959 34644
L60015 34673
L60043 34729
L60042 35038
" />
<path d="M60043 34729
L60071 34673
L60127 34645
L60212 34645
L60268 34674
L60296 34730
L60295 35039
" />
<path d="M52364 35275
L63387 35315
" />
<path d="M52362 35787
L52367 34212
" />
<path d="M63385 35826
L63391 34252
" />
<path d="M63387 35315
L62943 35544
" />
<path d="M63387 35315
L62944 35082
" />
<path d="M52364 35275
L52806 35508
" />
<path d="M52364 35275
L52808 35046
" />
<path d="M55419 33121
L55784 33121
L55587 33346
L55672 33346
L55728 33374
L55756 33402
L55784 33458
L55784 33599
L55756 33655
L55728 33683
L55672 33712
L55503 33712
L55447 33683
L55419 33655
" />
<path d="M56290 33318
L56290 33712
" />
<path d="M56150 33093
L56009 33515
L56375 33515
" />
<path d="M56600 33655
L56628 33683
L56600 33712
L56571 33683
L56600 33655
L56600 33712
" />
<path d="M57190 33712
L56853 33712
" />
<path d="M57021 33712
L57021 33121
L56965 33205
L56909 33262
L56853 33290
" />
<path d="M57556 33121
L57612 33121
L57668 33149
L57696 33177
L57724 33233
L57753 33346
L57753 33487
L57724 33599
L57696 33655
L57668 33683
L57612 33712
L57556 33712
L57500 33683
L57471 33655
L57443 33599
L57415 33487
L57415 33346
L57443 33233
L57471 33177
L57500 33149
L57556 33121
" />
<path d="M58118 33121
L58174 33121
L58231 33149
L58259 33177
L58287 33233
L58315 33346
L58315 33487
L58287 33599
L58259 33655
L58231 33683
L58174 33712
L58118 33712
L58062 33683
L58034 33655
L58006 33599
L57978 33487
L57978 33346
L58006 33233
L58034 33177
L58062 33149
L58118 33121
" />
<path d="M59018 33712
L59018 33318
" />
<path d="M59018 33374
L59046 33346
L59102 33318
L59187 33318
L59243 33346
L59271 33402
L59271 33712
" />
<path d="M59271 33402
L59299 33346
L59356 33318
L59440 33318
L59496 33346
L59524 33402
L59524 33712
" />
<path d="M59805 33712
L59805 33318
" />
<path d="M59805 33374
L59834 33346
L59890 33318
L59974 33318
L60030 33346
L60059 33402
L60059 33712
" />
<path d="M60059 33402
L60087 33346
L60143 33318
L60227 33318
L60284 33346
L60312 33402
L60312 33712
" />
<path d="M64606 33976
L51181 33976
" />
<path d="M64606 35787
L64606 32913
" />
<path d="M51181 35787
L51181 32913
" />
<path d="M51181 33976
L51624 33745
" />
<path d="M51181 33976
L51624 34207
" />
<path d="M64606 33976
L64162 33745
" />
<path d="M64606 33976
L64162 34207
" />
</g>
<g style="fill:#848484; fill-opacity:0.0; 
stroke:#848484; stroke-width:19.685; stroke-opacity:1; 
stroke-linecap:round; stroke-linejoin:round;">
<path d="M61023 36082
L61023 36673
" />
<path d="M61023 36673
L59921 36673
" />
<path d="M59921 36673
L59921 36082
" />
<path d="M59921 36082
L61023 36082
" />
<path d="M61023 37263
L61023 37854
" />
<path d="M61023 37854
L59921 37854
" />
<path d="M59921 37854
L59921 37263
" />
<path d="M59921 37263
L61023 37263
" />
<path d="M59921 45334
L59921 44744
" />
<path d="M59921 44744
L61023 44744
" />
<path d="M61023 44744
L61023 45334
" />
<path d="M61023 45334
L59921 45334
" />
<path d="M61023 46082
L61023 46673
" />
<path d="M61023 46673
L59921 46673
" />
<path d="M59921 46673
L59921 46082
" />
<path d="M59921 46082
L61023 46082
" />
<path d="M53484 37381
L59862 37381
" />
<path d="M53484 36003
L59862 36003
" />
<path d="M53484 37381
L53484 36003
" />
<path d="M59862 37381
L59862 36003
" />
<path d="M59685 44763
L53937 44763
" />
<path d="M53937 37972
L59685 37972
" />
<path d="M59685 44763
L59685 37972
" />
<path d="M53937 44763
L53937 37972
" />
</g>
<g style="fill:#000000; fill-opacity:0.0; 
stroke:#000000; stroke-width:19.685; stroke-opacity:1; 
stroke-linecap:round; stroke-linejoin:round;">
</g>
<g style="fill:#C2C200; fill-opacity:0.0; 
stroke:#C2C200; stroke-width:19.685; stroke-opacity:1; 
stroke-linecap:round; stroke-linejoin:round;">
</g>
<g style="fill:#C2C200; fill-opacity:0.0; 
stroke:#C2C200; stroke-width:59.0551; stroke-opacity:1; 
stroke-linecap:round; stroke-linejoin:round;">
<path d="M52400 48400
L63400 48400
" />
<path d="M51200 37000
L51200 47200
" />
<path d="M63400 35800
L52400 35800
" />
<path d="M64600 47200
L64600 37000
" />
<path d="M63400 48400 A1200 1200 0.0 0 0 64600 47200 " />
<path d="M51200 47200 A1200 1200 0.0 0 0 52400 48400 " />
<path d="M52400 35800 A1200 1200 0.0 0 0 51200 37000 " />
<path d="M64600 37000 A1200 1200 0.0 0 0 63400 35800 " />
</g> 
</svg>
