G04 #@! TF.FileFunction,Legend,Top*
%FSLAX46Y46*%
G04 Gerber Fmt 4.6, Leading zero omitted, Abs format (unit mm)*
G04 Created by KiCad (PCBNEW 4.0.1-stable) date 2018/07/04 18:11:44*
%MOMM*%
G01*
G04 APERTURE LIST*
%ADD10C,0.100000*%
%ADD11C,0.250000*%
%ADD12C,0.200000*%
%ADD13C,0.150000*%
%ADD14C,0.500000*%
G04 APERTURE END LIST*
D10*
D11*
X148614762Y-111261905D02*
X148662381Y-111119048D01*
X148662381Y-110880952D01*
X148614762Y-110785714D01*
X148567143Y-110738095D01*
X148471905Y-110690476D01*
X148376667Y-110690476D01*
X148281429Y-110738095D01*
X148233810Y-110785714D01*
X148186190Y-110880952D01*
X148138571Y-111071429D01*
X148090952Y-111166667D01*
X148043333Y-111214286D01*
X147948095Y-111261905D01*
X147852857Y-111261905D01*
X147757619Y-111214286D01*
X147710000Y-111166667D01*
X147662381Y-111071429D01*
X147662381Y-110833333D01*
X147710000Y-110690476D01*
X148138571Y-109928571D02*
X148186190Y-109785714D01*
X148233810Y-109738095D01*
X148329048Y-109690476D01*
X148471905Y-109690476D01*
X148567143Y-109738095D01*
X148614762Y-109785714D01*
X148662381Y-109880952D01*
X148662381Y-110261905D01*
X147662381Y-110261905D01*
X147662381Y-109928571D01*
X147710000Y-109833333D01*
X147757619Y-109785714D01*
X147852857Y-109738095D01*
X147948095Y-109738095D01*
X148043333Y-109785714D01*
X148090952Y-109833333D01*
X148138571Y-109928571D01*
X148138571Y-110261905D01*
X148662381Y-109261905D02*
X147662381Y-109261905D01*
X147662381Y-109023810D01*
X147710000Y-108880952D01*
X147805238Y-108785714D01*
X147900476Y-108738095D01*
X148090952Y-108690476D01*
X148233810Y-108690476D01*
X148424286Y-108738095D01*
X148519524Y-108785714D01*
X148614762Y-108880952D01*
X148662381Y-109023810D01*
X148662381Y-109261905D01*
X148138571Y-107928571D02*
X148186190Y-107785714D01*
X148233810Y-107738095D01*
X148329048Y-107690476D01*
X148471905Y-107690476D01*
X148567143Y-107738095D01*
X148614762Y-107785714D01*
X148662381Y-107880952D01*
X148662381Y-108261905D01*
X147662381Y-108261905D01*
X147662381Y-107928571D01*
X147710000Y-107833333D01*
X147757619Y-107785714D01*
X147852857Y-107738095D01*
X147948095Y-107738095D01*
X148043333Y-107785714D01*
X148090952Y-107833333D01*
X148138571Y-107928571D01*
X148138571Y-108261905D01*
X147662381Y-107404762D02*
X147662381Y-106833333D01*
X148662381Y-107119048D02*
X147662381Y-107119048D01*
X147995714Y-105833333D02*
X148662381Y-105595238D01*
X147995714Y-105357142D01*
X148614762Y-104595237D02*
X148662381Y-104690475D01*
X148662381Y-104880952D01*
X148614762Y-104976190D01*
X148519524Y-105023809D01*
X148138571Y-105023809D01*
X148043333Y-104976190D01*
X147995714Y-104880952D01*
X147995714Y-104690475D01*
X148043333Y-104595237D01*
X148138571Y-104547618D01*
X148233810Y-104547618D01*
X148329048Y-105023809D01*
X148662381Y-104119047D02*
X147995714Y-104119047D01*
X148186190Y-104119047D02*
X148090952Y-104071428D01*
X148043333Y-104023809D01*
X147995714Y-103928571D01*
X147995714Y-103833332D01*
X148567143Y-103499999D02*
X148614762Y-103452380D01*
X148662381Y-103499999D01*
X148614762Y-103547618D01*
X148567143Y-103499999D01*
X148662381Y-103499999D01*
X147662381Y-103119047D02*
X148662381Y-102880952D01*
X147948095Y-102690475D01*
X148662381Y-102499999D01*
X147662381Y-102261904D01*
X148662381Y-101309523D02*
X148186190Y-101642857D01*
X148662381Y-101880952D02*
X147662381Y-101880952D01*
X147662381Y-101499999D01*
X147710000Y-101404761D01*
X147757619Y-101357142D01*
X147852857Y-101309523D01*
X147995714Y-101309523D01*
X148090952Y-101357142D01*
X148138571Y-101404761D01*
X148186190Y-101499999D01*
X148186190Y-101880952D01*
X148138571Y-100547618D02*
X148138571Y-100880952D01*
X148662381Y-100880952D02*
X147662381Y-100880952D01*
X147662381Y-100404761D01*
X148757619Y-100261904D02*
X148757619Y-99499999D01*
X147662381Y-99357142D02*
X147662381Y-98738094D01*
X148043333Y-99071428D01*
X148043333Y-98928570D01*
X148090952Y-98833332D01*
X148138571Y-98785713D01*
X148233810Y-98738094D01*
X148471905Y-98738094D01*
X148567143Y-98785713D01*
X148614762Y-98833332D01*
X148662381Y-98928570D01*
X148662381Y-99214285D01*
X148614762Y-99309523D01*
X148567143Y-99357142D01*
D12*
X137219048Y-95804762D02*
X137219048Y-95852381D01*
X137266667Y-95709524D02*
X137266667Y-95852381D01*
X137314286Y-95614286D02*
X137314286Y-95852381D01*
X137361905Y-95519048D02*
X137361905Y-95852381D01*
X137409524Y-95471429D02*
X137409524Y-95852381D01*
X137457143Y-95376190D02*
X137457143Y-95852381D01*
X137504763Y-95280952D02*
X137504763Y-95852381D01*
X137552382Y-95185714D02*
X137552382Y-95852381D01*
X137600001Y-95090476D02*
X137600001Y-95852381D01*
X137647620Y-95185714D02*
X137647620Y-95852381D01*
X137695239Y-95280952D02*
X137695239Y-95852381D01*
X137742858Y-95376190D02*
X137742858Y-95852381D01*
X137790477Y-95471429D02*
X137790477Y-95852381D01*
X137838096Y-95519048D02*
X137838096Y-95852381D01*
X137885715Y-95614286D02*
X137885715Y-95852381D01*
X137933334Y-95709524D02*
X137933334Y-95852381D01*
X137980953Y-95852381D02*
X137600001Y-95138095D01*
X137219048Y-95852381D01*
X137980953Y-95804762D02*
X137980953Y-95852381D01*
X137600001Y-95090476D02*
X138028572Y-95852381D01*
X137171429Y-95852381D01*
X137600001Y-95090476D01*
D13*
X152500000Y-92950000D02*
X154400000Y-92950000D01*
X152500000Y-91850000D02*
X154400000Y-91850000D01*
X153400000Y-92400000D02*
X153850000Y-92400000D01*
X153350000Y-92150000D02*
X153350000Y-92650000D01*
X153350000Y-92400000D02*
X153600000Y-92150000D01*
X153600000Y-92150000D02*
X153600000Y-92650000D01*
X153600000Y-92650000D02*
X153350000Y-92400000D01*
X152500000Y-95950000D02*
X154400000Y-95950000D01*
X152500000Y-94850000D02*
X154400000Y-94850000D01*
X153400000Y-95400000D02*
X153850000Y-95400000D01*
X153350000Y-95150000D02*
X153350000Y-95650000D01*
X153350000Y-95400000D02*
X153600000Y-95150000D01*
X153600000Y-95150000D02*
X153600000Y-95650000D01*
X153600000Y-95650000D02*
X153350000Y-95400000D01*
X154700000Y-113850000D02*
X152800000Y-113850000D01*
X154700000Y-114950000D02*
X152800000Y-114950000D01*
X153800000Y-114400000D02*
X153350000Y-114400000D01*
X153850000Y-114650000D02*
X153850000Y-114150000D01*
X153850000Y-114400000D02*
X153600000Y-114650000D01*
X153600000Y-114650000D02*
X153600000Y-114150000D01*
X153600000Y-114150000D02*
X153850000Y-114400000D01*
X152500000Y-118350000D02*
X154400000Y-118350000D01*
X152500000Y-117250000D02*
X154400000Y-117250000D01*
X153400000Y-117800000D02*
X153850000Y-117800000D01*
X153350000Y-117550000D02*
X153350000Y-118050000D01*
X153350000Y-117800000D02*
X153600000Y-117550000D01*
X153600000Y-117550000D02*
X153600000Y-118050000D01*
X153600000Y-118050000D02*
X153350000Y-117800000D01*
X138870000Y-91930000D02*
X151570000Y-91930000D01*
X151570000Y-91930000D02*
X151570000Y-94470000D01*
X151570000Y-94470000D02*
X138870000Y-94470000D01*
X136050000Y-91650000D02*
X137600000Y-91650000D01*
X138870000Y-91930000D02*
X138870000Y-94470000D01*
X137600000Y-94750000D02*
X136050000Y-94750000D01*
X136050000Y-94750000D02*
X136050000Y-91650000D01*
X137254880Y-97350140D02*
X151351880Y-97350140D01*
X151351880Y-112336140D02*
X137254880Y-112336140D01*
X137254880Y-97350140D02*
X137254880Y-112336140D01*
X151351880Y-97350140D02*
X151351880Y-112336140D01*
D14*
X136900000Y-121200000D02*
X141400000Y-121200000D01*
X141400000Y-121200000D02*
X141400000Y-120200000D01*
X141400000Y-120200000D02*
X144900000Y-120200000D01*
X144900000Y-120200000D02*
X144900000Y-121200000D01*
X144900000Y-121200000D02*
X149400000Y-121200000D01*
X149400000Y-114800000D02*
X136900000Y-114800000D01*
X149400000Y-121200000D02*
X149400000Y-114800000D01*
X136900000Y-114800000D02*
X136900000Y-121200000D01*
D13*
X152076190Y-94352381D02*
X152076190Y-93352381D01*
X152314285Y-93352381D01*
X152457143Y-93400000D01*
X152552381Y-93495238D01*
X152600000Y-93590476D01*
X152647619Y-93780952D01*
X152647619Y-93923810D01*
X152600000Y-94114286D01*
X152552381Y-94209524D01*
X152457143Y-94304762D01*
X152314285Y-94352381D01*
X152076190Y-94352381D01*
X153028571Y-94066667D02*
X153504762Y-94066667D01*
X152933333Y-94352381D02*
X153266666Y-93352381D01*
X153600000Y-94352381D01*
X153790476Y-93352381D02*
X154361905Y-93352381D01*
X154076190Y-94352381D02*
X154076190Y-93352381D01*
X154695238Y-93828571D02*
X155028572Y-93828571D01*
X155171429Y-94352381D02*
X154695238Y-94352381D01*
X154695238Y-93352381D01*
X155171429Y-93352381D01*
X152242858Y-97257143D02*
X152195239Y-97304762D01*
X152052382Y-97352381D01*
X151957144Y-97352381D01*
X151814286Y-97304762D01*
X151719048Y-97209524D01*
X151671429Y-97114286D01*
X151623810Y-96923810D01*
X151623810Y-96780952D01*
X151671429Y-96590476D01*
X151719048Y-96495238D01*
X151814286Y-96400000D01*
X151957144Y-96352381D01*
X152052382Y-96352381D01*
X152195239Y-96400000D01*
X152242858Y-96447619D01*
X152861905Y-96352381D02*
X153052382Y-96352381D01*
X153147620Y-96400000D01*
X153242858Y-96495238D01*
X153290477Y-96685714D01*
X153290477Y-97019048D01*
X153242858Y-97209524D01*
X153147620Y-97304762D01*
X153052382Y-97352381D01*
X152861905Y-97352381D01*
X152766667Y-97304762D01*
X152671429Y-97209524D01*
X152623810Y-97019048D01*
X152623810Y-96685714D01*
X152671429Y-96495238D01*
X152766667Y-96400000D01*
X152861905Y-96352381D01*
X153719048Y-97352381D02*
X153719048Y-96352381D01*
X154052382Y-97066667D01*
X154385715Y-96352381D01*
X154385715Y-97352381D01*
X154861905Y-97352381D02*
X154861905Y-96352381D01*
X155195239Y-97066667D01*
X155528572Y-96352381D01*
X155528572Y-97352381D01*
X153409524Y-115452381D02*
X152933333Y-115452381D01*
X152885714Y-115928571D01*
X152933333Y-115880952D01*
X153028571Y-115833333D01*
X153266667Y-115833333D01*
X153361905Y-115880952D01*
X153409524Y-115928571D01*
X153457143Y-116023810D01*
X153457143Y-116261905D01*
X153409524Y-116357143D01*
X153361905Y-116404762D01*
X153266667Y-116452381D01*
X153028571Y-116452381D01*
X152933333Y-116404762D01*
X152885714Y-116357143D01*
X153742857Y-115452381D02*
X154076190Y-116452381D01*
X154409524Y-115452381D01*
X152123810Y-118752381D02*
X152742858Y-118752381D01*
X152409524Y-119133333D01*
X152552382Y-119133333D01*
X152647620Y-119180952D01*
X152695239Y-119228571D01*
X152742858Y-119323810D01*
X152742858Y-119561905D01*
X152695239Y-119657143D01*
X152647620Y-119704762D01*
X152552382Y-119752381D01*
X152266667Y-119752381D01*
X152171429Y-119704762D01*
X152123810Y-119657143D01*
X153171429Y-119657143D02*
X153219048Y-119704762D01*
X153171429Y-119752381D01*
X153123810Y-119704762D01*
X153171429Y-119657143D01*
X153171429Y-119752381D01*
X153552381Y-118752381D02*
X154171429Y-118752381D01*
X153838095Y-119133333D01*
X153980953Y-119133333D01*
X154076191Y-119180952D01*
X154123810Y-119228571D01*
X154171429Y-119323810D01*
X154171429Y-119561905D01*
X154123810Y-119657143D01*
X154076191Y-119704762D01*
X153980953Y-119752381D01*
X153695238Y-119752381D01*
X153600000Y-119704762D01*
X153552381Y-119657143D01*
X154457143Y-118752381D02*
X154790476Y-119752381D01*
X155123810Y-118752381D01*
X141595238Y-96052381D02*
X141595238Y-95052381D01*
X141976191Y-95052381D01*
X142071429Y-95100000D01*
X142119048Y-95147619D01*
X142166667Y-95242857D01*
X142166667Y-95385714D01*
X142119048Y-95480952D01*
X142071429Y-95528571D01*
X141976191Y-95576190D01*
X141595238Y-95576190D01*
X142595238Y-96052381D02*
X142595238Y-95052381D01*
X143642857Y-95957143D02*
X143595238Y-96004762D01*
X143452381Y-96052381D01*
X143357143Y-96052381D01*
X143214285Y-96004762D01*
X143119047Y-95909524D01*
X143071428Y-95814286D01*
X143023809Y-95623810D01*
X143023809Y-95480952D01*
X143071428Y-95290476D01*
X143119047Y-95195238D01*
X143214285Y-95100000D01*
X143357143Y-95052381D01*
X143452381Y-95052381D01*
X143595238Y-95100000D01*
X143642857Y-95147619D01*
X144833333Y-96052381D02*
X144833333Y-95052381D01*
X145404762Y-96052381D02*
X144976190Y-95480952D01*
X145404762Y-95052381D02*
X144833333Y-95623810D01*
X145833333Y-96052381D02*
X145833333Y-95385714D01*
X145833333Y-95052381D02*
X145785714Y-95100000D01*
X145833333Y-95147619D01*
X145880952Y-95100000D01*
X145833333Y-95052381D01*
X145833333Y-95147619D01*
X146166666Y-95385714D02*
X146547618Y-95385714D01*
X146309523Y-95052381D02*
X146309523Y-95909524D01*
X146357142Y-96004762D01*
X146452380Y-96052381D01*
X146547618Y-96052381D01*
X145286961Y-106633489D02*
X146096485Y-106633489D01*
X146191723Y-106585870D01*
X146239342Y-106538251D01*
X146286961Y-106443013D01*
X146286961Y-106252536D01*
X146239342Y-106157298D01*
X146191723Y-106109679D01*
X146096485Y-106062060D01*
X145286961Y-106062060D01*
X146239342Y-105633489D02*
X146286961Y-105490632D01*
X146286961Y-105252536D01*
X146239342Y-105157298D01*
X146191723Y-105109679D01*
X146096485Y-105062060D01*
X146001247Y-105062060D01*
X145906009Y-105109679D01*
X145858390Y-105157298D01*
X145810770Y-105252536D01*
X145763151Y-105443013D01*
X145715532Y-105538251D01*
X145667913Y-105585870D01*
X145572675Y-105633489D01*
X145477437Y-105633489D01*
X145382199Y-105585870D01*
X145334580Y-105538251D01*
X145286961Y-105443013D01*
X145286961Y-105204917D01*
X145334580Y-105062060D01*
X145763151Y-104300155D02*
X145810770Y-104157298D01*
X145858390Y-104109679D01*
X145953628Y-104062060D01*
X146096485Y-104062060D01*
X146191723Y-104109679D01*
X146239342Y-104157298D01*
X146286961Y-104252536D01*
X146286961Y-104633489D01*
X145286961Y-104633489D01*
X145286961Y-104300155D01*
X145334580Y-104204917D01*
X145382199Y-104157298D01*
X145477437Y-104109679D01*
X145572675Y-104109679D01*
X145667913Y-104157298D01*
X145715532Y-104204917D01*
X145763151Y-104300155D01*
X145763151Y-104633489D01*
X146382199Y-103871584D02*
X146382199Y-103109679D01*
X146001247Y-102919203D02*
X146001247Y-102443012D01*
X146286961Y-103014441D02*
X145286961Y-102681108D01*
X146286961Y-102347774D01*
X140810476Y-122768762D02*
X140953333Y-122816381D01*
X141191429Y-122816381D01*
X141286667Y-122768762D01*
X141334286Y-122721143D01*
X141381905Y-122625905D01*
X141381905Y-122530667D01*
X141334286Y-122435429D01*
X141286667Y-122387810D01*
X141191429Y-122340190D01*
X141000952Y-122292571D01*
X140905714Y-122244952D01*
X140858095Y-122197333D01*
X140810476Y-122102095D01*
X140810476Y-122006857D01*
X140858095Y-121911619D01*
X140905714Y-121864000D01*
X141000952Y-121816381D01*
X141239048Y-121816381D01*
X141381905Y-121864000D01*
X141810476Y-122292571D02*
X142143810Y-122292571D01*
X142286667Y-122816381D02*
X141810476Y-122816381D01*
X141810476Y-121816381D01*
X142286667Y-121816381D01*
X143286667Y-122816381D02*
X142953333Y-122340190D01*
X142715238Y-122816381D02*
X142715238Y-121816381D01*
X143096191Y-121816381D01*
X143191429Y-121864000D01*
X143239048Y-121911619D01*
X143286667Y-122006857D01*
X143286667Y-122149714D01*
X143239048Y-122244952D01*
X143191429Y-122292571D01*
X143096191Y-122340190D01*
X142715238Y-122340190D01*
X143715238Y-122816381D02*
X143715238Y-121816381D01*
X144143809Y-122530667D02*
X144620000Y-122530667D01*
X144048571Y-122816381D02*
X144381904Y-121816381D01*
X144715238Y-122816381D01*
X145524762Y-122816381D02*
X145048571Y-122816381D01*
X145048571Y-121816381D01*
M02*
