G04 #@! TF.FileFunction,Legend,Bot*
%FSLAX46Y46*%
G04 Gerber Fmt 4.6, Leading zero omitted, Abs format (unit mm)*
G04 Created by KiCad (PCBNEW 4.0.1-stable) date 2018/07/04 18:11:44*
%MOMM*%
G01*
G04 APERTURE LIST*
%ADD10C,0.100000*%
%ADD11C,0.200000*%
%ADD12C,0.150000*%
%ADD13C,0.010000*%
%ADD14C,0.125000*%
G04 APERTURE END LIST*
D10*
D11*
X146400000Y-120138096D02*
X146352381Y-120042858D01*
X146352381Y-119900001D01*
X146400000Y-119757143D01*
X146495238Y-119661905D01*
X146590476Y-119614286D01*
X146780952Y-119566667D01*
X146923810Y-119566667D01*
X147114286Y-119614286D01*
X147209524Y-119661905D01*
X147304762Y-119757143D01*
X147352381Y-119900001D01*
X147352381Y-119995239D01*
X147304762Y-120138096D01*
X147257143Y-120185715D01*
X146923810Y-120185715D01*
X146923810Y-119995239D01*
X147352381Y-120614286D02*
X146352381Y-120614286D01*
X147352381Y-121185715D01*
X146352381Y-121185715D01*
X147352381Y-121661905D02*
X146352381Y-121661905D01*
X146352381Y-121900000D01*
X146400000Y-122042858D01*
X146495238Y-122138096D01*
X146590476Y-122185715D01*
X146780952Y-122233334D01*
X146923810Y-122233334D01*
X147114286Y-122185715D01*
X147209524Y-122138096D01*
X147304762Y-122042858D01*
X147352381Y-121900000D01*
X147352381Y-121661905D01*
X143852381Y-120709524D02*
X143852381Y-120233333D01*
X144328571Y-120185714D01*
X144280952Y-120233333D01*
X144233333Y-120328571D01*
X144233333Y-120566667D01*
X144280952Y-120661905D01*
X144328571Y-120709524D01*
X144423810Y-120757143D01*
X144661905Y-120757143D01*
X144757143Y-120709524D01*
X144804762Y-120661905D01*
X144852381Y-120566667D01*
X144852381Y-120328571D01*
X144804762Y-120233333D01*
X144757143Y-120185714D01*
X143852381Y-121042857D02*
X144852381Y-121376190D01*
X143852381Y-121709524D01*
X141352381Y-120138095D02*
X141352381Y-120709524D01*
X142352381Y-120423809D02*
X141352381Y-120423809D01*
X141352381Y-120947619D02*
X142352381Y-121614286D01*
X141352381Y-121614286D02*
X142352381Y-120947619D01*
X139852381Y-120733334D02*
X139376190Y-120400000D01*
X139852381Y-120161905D02*
X138852381Y-120161905D01*
X138852381Y-120542858D01*
X138900000Y-120638096D01*
X138947619Y-120685715D01*
X139042857Y-120733334D01*
X139185714Y-120733334D01*
X139280952Y-120685715D01*
X139328571Y-120638096D01*
X139376190Y-120542858D01*
X139376190Y-120161905D01*
X138852381Y-121066667D02*
X139852381Y-121733334D01*
X138852381Y-121733334D02*
X139852381Y-121066667D01*
D12*
X130538095Y-118580954D02*
X131338095Y-118580954D01*
X131338095Y-118390478D01*
X131300000Y-118276192D01*
X131223810Y-118200001D01*
X131147619Y-118161906D01*
X130995238Y-118123811D01*
X130880952Y-118123811D01*
X130728571Y-118161906D01*
X130652381Y-118200001D01*
X130576190Y-118276192D01*
X130538095Y-118390478D01*
X130538095Y-118580954D01*
X130576190Y-117476192D02*
X130538095Y-117552382D01*
X130538095Y-117704763D01*
X130576190Y-117780954D01*
X130652381Y-117819049D01*
X130957143Y-117819049D01*
X131033333Y-117780954D01*
X131071429Y-117704763D01*
X131071429Y-117552382D01*
X131033333Y-117476192D01*
X130957143Y-117438097D01*
X130880952Y-117438097D01*
X130804762Y-117819049D01*
X130576190Y-117133335D02*
X130538095Y-117057145D01*
X130538095Y-116904764D01*
X130576190Y-116828573D01*
X130652381Y-116790478D01*
X130690476Y-116790478D01*
X130766667Y-116828573D01*
X130804762Y-116904764D01*
X130804762Y-117019049D01*
X130842857Y-117095240D01*
X130919048Y-117133335D01*
X130957143Y-117133335D01*
X131033333Y-117095240D01*
X131071429Y-117019049D01*
X131071429Y-116904764D01*
X131033333Y-116828573D01*
X130538095Y-116447621D02*
X131071429Y-116447621D01*
X131338095Y-116447621D02*
X131300000Y-116485716D01*
X131261905Y-116447621D01*
X131300000Y-116409526D01*
X131338095Y-116447621D01*
X131261905Y-116447621D01*
X131071429Y-115723812D02*
X130423810Y-115723812D01*
X130347619Y-115761907D01*
X130309524Y-115800002D01*
X130271429Y-115876193D01*
X130271429Y-115990478D01*
X130309524Y-116066669D01*
X130576190Y-115723812D02*
X130538095Y-115800002D01*
X130538095Y-115952383D01*
X130576190Y-116028574D01*
X130614286Y-116066669D01*
X130690476Y-116104764D01*
X130919048Y-116104764D01*
X130995238Y-116066669D01*
X131033333Y-116028574D01*
X131071429Y-115952383D01*
X131071429Y-115800002D01*
X131033333Y-115723812D01*
X131071429Y-115342859D02*
X130538095Y-115342859D01*
X130995238Y-115342859D02*
X131033333Y-115304764D01*
X131071429Y-115228573D01*
X131071429Y-115114287D01*
X131033333Y-115038097D01*
X130957143Y-115000002D01*
X130538095Y-115000002D01*
X130576190Y-114314287D02*
X130538095Y-114390477D01*
X130538095Y-114542858D01*
X130576190Y-114619049D01*
X130652381Y-114657144D01*
X130957143Y-114657144D01*
X131033333Y-114619049D01*
X131071429Y-114542858D01*
X131071429Y-114390477D01*
X131033333Y-114314287D01*
X130957143Y-114276192D01*
X130880952Y-114276192D01*
X130804762Y-114657144D01*
X130538095Y-113590478D02*
X131338095Y-113590478D01*
X130576190Y-113590478D02*
X130538095Y-113666668D01*
X130538095Y-113819049D01*
X130576190Y-113895240D01*
X130614286Y-113933335D01*
X130690476Y-113971430D01*
X130919048Y-113971430D01*
X130995238Y-113933335D01*
X131033333Y-113895240D01*
X131071429Y-113819049D01*
X131071429Y-113666668D01*
X131033333Y-113590478D01*
X130538095Y-112600001D02*
X131338095Y-112600001D01*
X131033333Y-112600001D02*
X131071429Y-112523810D01*
X131071429Y-112371429D01*
X131033333Y-112295239D01*
X130995238Y-112257144D01*
X130919048Y-112219048D01*
X130690476Y-112219048D01*
X130614286Y-112257144D01*
X130576190Y-112295239D01*
X130538095Y-112371429D01*
X130538095Y-112523810D01*
X130576190Y-112600001D01*
X131071429Y-111952381D02*
X130538095Y-111761905D01*
X131071429Y-111571429D02*
X130538095Y-111761905D01*
X130347619Y-111838096D01*
X130309524Y-111876191D01*
X130271429Y-111952381D01*
X130766667Y-110695238D02*
X130766667Y-110314286D01*
X130538095Y-110771429D02*
X131338095Y-110504762D01*
X130538095Y-110238095D01*
X130614286Y-109971429D02*
X130576190Y-109933334D01*
X130538095Y-109971429D01*
X130576190Y-110009524D01*
X130614286Y-109971429D01*
X130538095Y-109971429D01*
X130538095Y-109590477D02*
X131338095Y-109590477D01*
X130766667Y-109323810D01*
X131338095Y-109057143D01*
X130538095Y-109057143D01*
X130538095Y-108676191D02*
X131071429Y-108676191D01*
X131338095Y-108676191D02*
X131300000Y-108714286D01*
X131261905Y-108676191D01*
X131300000Y-108638096D01*
X131338095Y-108676191D01*
X131261905Y-108676191D01*
X131071429Y-108371429D02*
X131071429Y-107952382D01*
X130538095Y-108371429D01*
X130538095Y-107952382D01*
X131071429Y-107304763D02*
X130538095Y-107304763D01*
X131071429Y-107647620D02*
X130652381Y-107647620D01*
X130576190Y-107609525D01*
X130538095Y-107533334D01*
X130538095Y-107419048D01*
X130576190Y-107342858D01*
X130614286Y-107304763D01*
X131071429Y-107038096D02*
X131071429Y-106733334D01*
X131338095Y-106923810D02*
X130652381Y-106923810D01*
X130576190Y-106885715D01*
X130538095Y-106809524D01*
X130538095Y-106733334D01*
X130538095Y-106123810D02*
X130957143Y-106123810D01*
X131033333Y-106161905D01*
X131071429Y-106238095D01*
X131071429Y-106390476D01*
X131033333Y-106466667D01*
X130576190Y-106123810D02*
X130538095Y-106200000D01*
X130538095Y-106390476D01*
X130576190Y-106466667D01*
X130652381Y-106504762D01*
X130728571Y-106504762D01*
X130804762Y-106466667D01*
X130842857Y-106390476D01*
X130842857Y-106200000D01*
X130880952Y-106123810D01*
X130538095Y-105133333D02*
X131071429Y-105133333D01*
X131338095Y-105133333D02*
X131300000Y-105171428D01*
X131261905Y-105133333D01*
X131300000Y-105095238D01*
X131338095Y-105133333D01*
X131261905Y-105133333D01*
X131071429Y-104752381D02*
X130538095Y-104752381D01*
X130995238Y-104752381D02*
X131033333Y-104714286D01*
X131071429Y-104638095D01*
X131071429Y-104523809D01*
X131033333Y-104447619D01*
X130957143Y-104409524D01*
X130538095Y-104409524D01*
X131261905Y-103457142D02*
X131300000Y-103419047D01*
X131338095Y-103342856D01*
X131338095Y-103152380D01*
X131300000Y-103076190D01*
X131261905Y-103038094D01*
X131185714Y-102999999D01*
X131109524Y-102999999D01*
X130995238Y-103038094D01*
X130538095Y-103495237D01*
X130538095Y-102999999D01*
X131338095Y-102504761D02*
X131338095Y-102428570D01*
X131300000Y-102352380D01*
X131261905Y-102314285D01*
X131185714Y-102276189D01*
X131033333Y-102238094D01*
X130842857Y-102238094D01*
X130690476Y-102276189D01*
X130614286Y-102314285D01*
X130576190Y-102352380D01*
X130538095Y-102428570D01*
X130538095Y-102504761D01*
X130576190Y-102580951D01*
X130614286Y-102619047D01*
X130690476Y-102657142D01*
X130842857Y-102695237D01*
X131033333Y-102695237D01*
X131185714Y-102657142D01*
X131261905Y-102619047D01*
X131300000Y-102580951D01*
X131338095Y-102504761D01*
X130538095Y-101476189D02*
X130538095Y-101933332D01*
X130538095Y-101704761D02*
X131338095Y-101704761D01*
X131223810Y-101780951D01*
X131147619Y-101857142D01*
X131109524Y-101933332D01*
X130995238Y-101019046D02*
X131033333Y-101095237D01*
X131071429Y-101133332D01*
X131147619Y-101171427D01*
X131185714Y-101171427D01*
X131261905Y-101133332D01*
X131300000Y-101095237D01*
X131338095Y-101019046D01*
X131338095Y-100866665D01*
X131300000Y-100790475D01*
X131261905Y-100752379D01*
X131185714Y-100714284D01*
X131147619Y-100714284D01*
X131071429Y-100752379D01*
X131033333Y-100790475D01*
X130995238Y-100866665D01*
X130995238Y-101019046D01*
X130957143Y-101095237D01*
X130919048Y-101133332D01*
X130842857Y-101171427D01*
X130690476Y-101171427D01*
X130614286Y-101133332D01*
X130576190Y-101095237D01*
X130538095Y-101019046D01*
X130538095Y-100866665D01*
X130576190Y-100790475D01*
X130614286Y-100752379D01*
X130690476Y-100714284D01*
X130842857Y-100714284D01*
X130919048Y-100752379D01*
X130957143Y-100790475D01*
X130995238Y-100866665D01*
X130538095Y-99761903D02*
X131338095Y-99761903D01*
X130766667Y-99495236D01*
X131338095Y-99228569D01*
X130538095Y-99228569D01*
X130538095Y-98504760D02*
X130957143Y-98504760D01*
X131033333Y-98542855D01*
X131071429Y-98619045D01*
X131071429Y-98771426D01*
X131033333Y-98847617D01*
X130576190Y-98504760D02*
X130538095Y-98580950D01*
X130538095Y-98771426D01*
X130576190Y-98847617D01*
X130652381Y-98885712D01*
X130728571Y-98885712D01*
X130804762Y-98847617D01*
X130842857Y-98771426D01*
X130842857Y-98580950D01*
X130880952Y-98504760D01*
X130538095Y-98123807D02*
X131071429Y-98123807D01*
X130919048Y-98123807D02*
X130995238Y-98085712D01*
X131033333Y-98047616D01*
X131071429Y-97971426D01*
X131071429Y-97895235D01*
X130576190Y-97285712D02*
X130538095Y-97361902D01*
X130538095Y-97514283D01*
X130576190Y-97590474D01*
X130614286Y-97628569D01*
X130690476Y-97666664D01*
X130919048Y-97666664D01*
X130995238Y-97628569D01*
X131033333Y-97590474D01*
X131071429Y-97514283D01*
X131071429Y-97361902D01*
X131033333Y-97285712D01*
X130538095Y-96942855D02*
X131338095Y-96942855D01*
X130538095Y-96599998D02*
X130957143Y-96599998D01*
X131033333Y-96638093D01*
X131071429Y-96714283D01*
X131071429Y-96828569D01*
X131033333Y-96904760D01*
X130995238Y-96942855D01*
X130614286Y-96219045D02*
X130576190Y-96180950D01*
X130538095Y-96219045D01*
X130576190Y-96257140D01*
X130614286Y-96219045D01*
X130538095Y-96219045D01*
X139800000Y-102250000D02*
X139800000Y-102950000D01*
X141000000Y-102950000D02*
X141000000Y-102250000D01*
X157200000Y-106350000D02*
X157200000Y-105650000D01*
X156000000Y-105650000D02*
X156000000Y-106350000D01*
X146050000Y-113600000D02*
X146750000Y-113600000D01*
X146750000Y-112400000D02*
X146050000Y-112400000D01*
X146450000Y-97000000D02*
X147150000Y-97000000D01*
X147150000Y-95800000D02*
X146450000Y-95800000D01*
X145450000Y-115600000D02*
X146150000Y-115600000D01*
X146150000Y-114400000D02*
X145450000Y-114400000D01*
X155850000Y-114800000D02*
X156550000Y-114800000D01*
X156550000Y-113600000D02*
X155850000Y-113600000D01*
X143425000Y-110175000D02*
X143425000Y-109575000D01*
X153775000Y-110175000D02*
X153775000Y-109505000D01*
X153775000Y-99825000D02*
X153775000Y-100495000D01*
X143425000Y-99825000D02*
X143425000Y-100495000D01*
X143425000Y-110175000D02*
X144095000Y-110175000D01*
X143425000Y-99825000D02*
X144095000Y-99825000D01*
X153775000Y-99825000D02*
X153105000Y-99825000D01*
X153775000Y-110175000D02*
X153105000Y-110175000D01*
X143425000Y-109575000D02*
X141950000Y-109575000D01*
X150900000Y-95725000D02*
X149900000Y-95725000D01*
X149900000Y-97075000D02*
X150900000Y-97075000D01*
X155700000Y-93075000D02*
X156700000Y-93075000D01*
X156700000Y-91725000D02*
X155700000Y-91725000D01*
X155700000Y-96475000D02*
X156700000Y-96475000D01*
X156700000Y-95125000D02*
X155700000Y-95125000D01*
X151100000Y-112325000D02*
X150100000Y-112325000D01*
X150100000Y-113675000D02*
X151100000Y-113675000D01*
X156500000Y-119725000D02*
X155500000Y-119725000D01*
X155500000Y-121075000D02*
X156500000Y-121075000D01*
X150550000Y-114050000D02*
X150550000Y-120750000D01*
X154250000Y-114050000D02*
X150550000Y-114050000D01*
X154250000Y-120750000D02*
X154260000Y-114050000D01*
X154250000Y-120750000D02*
X150550000Y-120750000D01*
D13*
G36*
X148080997Y-101342122D02*
X148059461Y-101349672D01*
X148050860Y-101367667D01*
X148049022Y-101379816D01*
X148037320Y-101410751D01*
X148006235Y-101430794D01*
X147992000Y-101435845D01*
X147949474Y-101458228D01*
X147935155Y-101484561D01*
X147918263Y-101512909D01*
X147886315Y-101525331D01*
X147850806Y-101540985D01*
X147808052Y-101571436D01*
X147783135Y-101594271D01*
X147734633Y-101636040D01*
X147693539Y-101653448D01*
X147682151Y-101654353D01*
X147629356Y-101663601D01*
X147593786Y-101693380D01*
X147572640Y-101746742D01*
X147567003Y-101779915D01*
X147556775Y-101837164D01*
X147540217Y-101871225D01*
X147511880Y-101888778D01*
X147472370Y-101895927D01*
X147423506Y-101900883D01*
X147574882Y-102072706D01*
X147657692Y-102169406D01*
X147722372Y-102253400D01*
X147770567Y-102330259D01*
X147803920Y-102405554D01*
X147824079Y-102484853D01*
X147832687Y-102573729D01*
X147831390Y-102677751D01*
X147821833Y-102802490D01*
X147813712Y-102881390D01*
X147795466Y-103049241D01*
X147780041Y-103189800D01*
X147767068Y-103305485D01*
X147756180Y-103398718D01*
X147747009Y-103471916D01*
X147739186Y-103527500D01*
X147732344Y-103567889D01*
X147726114Y-103595502D01*
X147720129Y-103612759D01*
X147714020Y-103622079D01*
X147707419Y-103625882D01*
X147700362Y-103626589D01*
X147683177Y-103638389D01*
X147679346Y-103669194D01*
X147687314Y-103712113D01*
X147705524Y-103760253D01*
X147732422Y-103806724D01*
X147744575Y-103822484D01*
X147763278Y-103847512D01*
X147774673Y-103873504D01*
X147780533Y-103908641D01*
X147782631Y-103961102D01*
X147782823Y-103998949D01*
X147783691Y-104064077D01*
X147787246Y-104106552D01*
X147794919Y-104133575D01*
X147808137Y-104152347D01*
X147814471Y-104158420D01*
X147831529Y-104177479D01*
X147839857Y-104201053D01*
X147841109Y-104238028D01*
X147837995Y-104284831D01*
X147832874Y-104329185D01*
X147823995Y-104375448D01*
X147809901Y-104428334D01*
X147789134Y-104492560D01*
X147760235Y-104572839D01*
X147721746Y-104673889D01*
X147701937Y-104724765D01*
X147668279Y-104827268D01*
X147650827Y-104919069D01*
X147650039Y-104995754D01*
X147666376Y-105052912D01*
X147667559Y-105055020D01*
X147700558Y-105101845D01*
X147745084Y-105151988D01*
X147793005Y-105197387D01*
X147836188Y-105229980D01*
X147852824Y-105238700D01*
X147897057Y-105271417D01*
X147923390Y-105326905D01*
X147932234Y-105406034D01*
X147932235Y-105407298D01*
X147940022Y-105471777D01*
X147960739Y-105529831D01*
X147990419Y-105571958D01*
X148005676Y-105583206D01*
X148031883Y-105613080D01*
X148036823Y-105642158D01*
X148046171Y-105684689D01*
X148066706Y-105722430D01*
X148080592Y-105744229D01*
X148089445Y-105771566D01*
X148094316Y-105811249D01*
X148096258Y-105870087D01*
X148096457Y-105914945D01*
X148095226Y-105993173D01*
X148091985Y-106088523D01*
X148087241Y-106188344D01*
X148082134Y-106271177D01*
X148077495Y-106468085D01*
X148089326Y-106679879D01*
X148116933Y-106896981D01*
X148134704Y-106995824D01*
X148148008Y-107094991D01*
X148154098Y-107213562D01*
X148153286Y-107342022D01*
X148145883Y-107470856D01*
X148132200Y-107590548D01*
X148112549Y-107691584D01*
X148111845Y-107694324D01*
X148091288Y-107764832D01*
X148073157Y-107808919D01*
X148058105Y-107825017D01*
X148057401Y-107825059D01*
X148038615Y-107814246D01*
X148036595Y-107806383D01*
X148031429Y-107798605D01*
X148021882Y-107810118D01*
X148010435Y-107847191D01*
X148008325Y-107902528D01*
X148014109Y-107969357D01*
X148026343Y-108040901D01*
X148043584Y-108110388D01*
X148064390Y-108171043D01*
X148087315Y-108216092D01*
X148110918Y-108238760D01*
X148113384Y-108239568D01*
X148126258Y-108246035D01*
X148134736Y-108261079D01*
X148139908Y-108290269D01*
X148142861Y-108339176D01*
X148144398Y-108398302D01*
X148145262Y-108485161D01*
X148144957Y-108584477D01*
X148143571Y-108678846D01*
X148142872Y-108706589D01*
X148141402Y-108778566D01*
X148142552Y-108827543D01*
X148147257Y-108860353D01*
X148156450Y-108883832D01*
X148169767Y-108903181D01*
X148191782Y-108940456D01*
X148201172Y-108975095D01*
X148201176Y-108975628D01*
X148213522Y-109031767D01*
X148247375Y-109093743D01*
X148297959Y-109153178D01*
X148307344Y-109161943D01*
X148351068Y-109198584D01*
X148379910Y-109212907D01*
X148397036Y-109203047D01*
X148405612Y-109167139D01*
X148408806Y-109103320D01*
X148408828Y-109102186D01*
X148408647Y-109041368D01*
X148404553Y-109004482D01*
X148395560Y-108985719D01*
X148388267Y-108981058D01*
X148371136Y-108960510D01*
X148365529Y-108929167D01*
X148360640Y-108892301D01*
X148347929Y-108839952D01*
X148333173Y-108792560D01*
X148308268Y-108706432D01*
X148301139Y-108637176D01*
X148312319Y-108577256D01*
X148342343Y-108519137D01*
X148353728Y-108502806D01*
X148439830Y-108362506D01*
X148498365Y-108216546D01*
X148506462Y-108187538D01*
X148512932Y-108158453D01*
X148517994Y-108124536D01*
X148521745Y-108082364D01*
X148524281Y-108028515D01*
X148525698Y-107959570D01*
X148526094Y-107872105D01*
X148525563Y-107762701D01*
X148524204Y-107627935D01*
X148523612Y-107579062D01*
X148517156Y-107061680D01*
X148560693Y-106968644D01*
X148600045Y-106867267D01*
X148615456Y-106781593D01*
X148607170Y-106709773D01*
X148597822Y-106685654D01*
X148583003Y-106650324D01*
X148581376Y-106624004D01*
X148593518Y-106592028D01*
X148602187Y-106574706D01*
X148646933Y-106467260D01*
X148671332Y-106356276D01*
X148677265Y-106232156D01*
X148676058Y-106197440D01*
X148674423Y-106162434D01*
X148672675Y-106132517D01*
X148669907Y-106104589D01*
X148665213Y-106075546D01*
X148657689Y-106042287D01*
X148646426Y-106001708D01*
X148630520Y-105950707D01*
X148609064Y-105886183D01*
X148581153Y-105805032D01*
X148545880Y-105704153D01*
X148502339Y-105580443D01*
X148464501Y-105473049D01*
X148438401Y-105401646D01*
X148414269Y-105340539D01*
X148394423Y-105295254D01*
X148381177Y-105271316D01*
X148379082Y-105269260D01*
X148371302Y-105258067D01*
X148368580Y-105234929D01*
X148371341Y-105196651D01*
X148380006Y-105140039D01*
X148395000Y-105061899D01*
X148416746Y-104959037D01*
X148425503Y-104919000D01*
X148462211Y-104740992D01*
X148488419Y-104586107D01*
X148504438Y-104449609D01*
X148510578Y-104326765D01*
X148507151Y-104212839D01*
X148494467Y-104103096D01*
X148483181Y-104040431D01*
X148474136Y-103991463D01*
X148472930Y-103962725D01*
X148480875Y-103945284D01*
X148499280Y-103930211D01*
X148499360Y-103930155D01*
X148528519Y-103904412D01*
X148549200Y-103871335D01*
X148562306Y-103826337D01*
X148568740Y-103764833D01*
X148569404Y-103682238D01*
X148566075Y-103591365D01*
X148562263Y-103507050D01*
X148560696Y-103446758D01*
X148561848Y-103404684D01*
X148566194Y-103375021D01*
X148574207Y-103351963D01*
X148586362Y-103329704D01*
X148587605Y-103327657D01*
X148606308Y-103291523D01*
X148616013Y-103254762D01*
X148616746Y-103210608D01*
X148608535Y-103152297D01*
X148591406Y-103073061D01*
X148588656Y-103061418D01*
X148572400Y-102982867D01*
X148568230Y-102925615D01*
X148577838Y-102882946D01*
X148602920Y-102848142D01*
X148645171Y-102814486D01*
X148652146Y-102809755D01*
X148691711Y-102780105D01*
X148711932Y-102753096D01*
X148720089Y-102717799D01*
X148721108Y-102706237D01*
X148718897Y-102663576D01*
X148709026Y-102603183D01*
X148693352Y-102535655D01*
X148687490Y-102514529D01*
X148662147Y-102406623D01*
X148650455Y-102308026D01*
X148653022Y-102225483D01*
X148658829Y-102195971D01*
X148677768Y-102168288D01*
X148704431Y-102162353D01*
X148752066Y-102154311D01*
X148790796Y-102127139D01*
X148826329Y-102076271D01*
X148836862Y-102056413D01*
X148874860Y-101981427D01*
X149007471Y-101985640D01*
X149075121Y-101986697D01*
X149119910Y-101984084D01*
X149148733Y-101976875D01*
X149168485Y-101964147D01*
X149168600Y-101964044D01*
X149191526Y-101950188D01*
X149227014Y-101942106D01*
X149281925Y-101938621D01*
X149319206Y-101938236D01*
X149380400Y-101939982D01*
X149422661Y-101944804D01*
X149440934Y-101952073D01*
X149441294Y-101953387D01*
X149451558Y-101972020D01*
X149477217Y-102000235D01*
X149487860Y-102010146D01*
X149534425Y-102051752D01*
X149532079Y-102212027D01*
X149532000Y-102284278D01*
X149533667Y-102350762D01*
X149536765Y-102402441D01*
X149539470Y-102424210D01*
X149546721Y-102454811D01*
X149559252Y-102470149D01*
X149585736Y-102475494D01*
X149624893Y-102476118D01*
X149674421Y-102479505D01*
X149716619Y-102492706D01*
X149764411Y-102520282D01*
X149780112Y-102530896D01*
X149859647Y-102585673D01*
X149859647Y-102827976D01*
X149859489Y-102918100D01*
X149858638Y-102982773D01*
X149856530Y-103026429D01*
X149852600Y-103053499D01*
X149846284Y-103068417D01*
X149837017Y-103075613D01*
X149827724Y-103078628D01*
X149808414Y-103087300D01*
X149800797Y-103105539D01*
X149802097Y-103142141D01*
X149803508Y-103155350D01*
X149808891Y-103188566D01*
X149818996Y-103219868D01*
X149836969Y-103255079D01*
X149865959Y-103300026D01*
X149909110Y-103360533D01*
X149928926Y-103387530D01*
X149945449Y-103411306D01*
X149956091Y-103433471D01*
X149961764Y-103460724D01*
X149963380Y-103499766D01*
X149961852Y-103557295D01*
X149959422Y-103611647D01*
X149950114Y-103728250D01*
X149932364Y-103842155D01*
X149904546Y-103959904D01*
X149865033Y-104088041D01*
X149812198Y-104233109D01*
X149792216Y-104284163D01*
X149745641Y-104402555D01*
X149709676Y-104496524D01*
X149683257Y-104569155D01*
X149665321Y-104623534D01*
X149654804Y-104662746D01*
X149650643Y-104689875D01*
X149650471Y-104695322D01*
X149657639Y-104733835D01*
X149675658Y-104784013D01*
X149699300Y-104833988D01*
X149723338Y-104871890D01*
X149732473Y-104881503D01*
X149741977Y-104895144D01*
X149748512Y-104920659D01*
X149752552Y-104962689D01*
X149754573Y-105025875D01*
X149755059Y-105102207D01*
X149754805Y-105183938D01*
X149753357Y-105242209D01*
X149749688Y-105283441D01*
X149742771Y-105314056D01*
X149731578Y-105340475D01*
X149715081Y-105369121D01*
X149711387Y-105375142D01*
X149658060Y-105482152D01*
X149627556Y-105589915D01*
X149619912Y-105694109D01*
X149635166Y-105790413D01*
X149673356Y-105874507D01*
X149706703Y-105916690D01*
X149735427Y-105956521D01*
X149743130Y-106001013D01*
X149742577Y-106013808D01*
X149745508Y-106058836D01*
X149757095Y-106116523D01*
X149769313Y-106157722D01*
X149785751Y-106210927D01*
X149796848Y-106257854D01*
X149799882Y-106282385D01*
X149810871Y-106315787D01*
X149829765Y-106326612D01*
X149846270Y-106334771D01*
X149855339Y-106353123D01*
X149859077Y-106388897D01*
X149859647Y-106429272D01*
X149856610Y-106486485D01*
X149848468Y-106560724D01*
X149836679Y-106639862D01*
X149829810Y-106677794D01*
X149813788Y-106782573D01*
X149803722Y-106896340D01*
X149799681Y-107011432D01*
X149801736Y-107120189D01*
X149809959Y-107214948D01*
X149824166Y-107287177D01*
X149832564Y-107323676D01*
X149839210Y-107371457D01*
X149844352Y-107434352D01*
X149848238Y-107516193D01*
X149851119Y-107620814D01*
X149852966Y-107730812D01*
X149854322Y-107845508D01*
X149854782Y-107934148D01*
X149854144Y-108000550D01*
X149852207Y-108048533D01*
X149848771Y-108081914D01*
X149843635Y-108104511D01*
X149836598Y-108120144D01*
X149832146Y-108126754D01*
X149816368Y-108159893D01*
X149808446Y-108209932D01*
X149806904Y-108265473D01*
X149808248Y-108321396D01*
X149812786Y-108354035D01*
X149822175Y-108369947D01*
X149834628Y-108375110D01*
X149857993Y-108372603D01*
X149881565Y-108352941D01*
X149908549Y-108312355D01*
X149940314Y-108250883D01*
X149961233Y-108203803D01*
X149979651Y-108152679D01*
X149996495Y-108093339D01*
X150012692Y-108021613D01*
X150029170Y-107933328D01*
X150046854Y-107824313D01*
X150066672Y-107690397D01*
X150069945Y-107667489D01*
X150116623Y-107339584D01*
X150173971Y-107277369D01*
X150212285Y-107227259D01*
X150235690Y-107179134D01*
X150239049Y-107165253D01*
X150244254Y-107119395D01*
X150249607Y-107051644D01*
X150254706Y-106969984D01*
X150259145Y-106882400D01*
X150262521Y-106796876D01*
X150264431Y-106721397D01*
X150264469Y-106663948D01*
X150264451Y-106663166D01*
X150265693Y-106600008D01*
X150275716Y-106551591D01*
X150298722Y-106507489D01*
X150338913Y-106457274D01*
X150354320Y-106440148D01*
X150395598Y-106389631D01*
X150418654Y-106344379D01*
X150423221Y-106298482D01*
X150409026Y-106246028D01*
X150375801Y-106181106D01*
X150339833Y-106123154D01*
X150309927Y-106073660D01*
X150287974Y-106031185D01*
X150278165Y-106003954D01*
X150278000Y-106001818D01*
X150272152Y-105974022D01*
X150257203Y-105931143D01*
X150245567Y-105903282D01*
X150222313Y-105823158D01*
X150212867Y-105723757D01*
X150216672Y-105612003D01*
X150233170Y-105494822D01*
X150261805Y-105379139D01*
X150295100Y-105287556D01*
X150305347Y-105259585D01*
X150312775Y-105227353D01*
X150317812Y-105185735D01*
X150320881Y-105129602D01*
X150322410Y-105053831D01*
X150322823Y-104953686D01*
X150323064Y-104856758D01*
X150324101Y-104784944D01*
X150326403Y-104733476D01*
X150330441Y-104697587D01*
X150336685Y-104672510D01*
X150345607Y-104653477D01*
X150353647Y-104641266D01*
X150371790Y-104605249D01*
X150390717Y-104550915D01*
X150406575Y-104489469D01*
X150407705Y-104484050D01*
X150423530Y-104421054D01*
X150441832Y-104370687D01*
X150459057Y-104342002D01*
X150480099Y-104305248D01*
X150487177Y-104265324D01*
X150494233Y-104225848D01*
X150519762Y-104191914D01*
X150538180Y-104176070D01*
X150599792Y-104108517D01*
X150643107Y-104021225D01*
X150665838Y-103919684D01*
X150668760Y-103862500D01*
X150668120Y-103827076D01*
X150665993Y-103794087D01*
X150661402Y-103759485D01*
X150653365Y-103719221D01*
X150640904Y-103669249D01*
X150623040Y-103605521D01*
X150598793Y-103523988D01*
X150567184Y-103420602D01*
X150542505Y-103340665D01*
X150519633Y-103259849D01*
X150499626Y-103176583D01*
X150484961Y-103101912D01*
X150478828Y-103056783D01*
X150474946Y-102965000D01*
X150484265Y-102891814D01*
X150510092Y-102827834D01*
X150555737Y-102763672D01*
X150598896Y-102716070D01*
X150662610Y-102646521D01*
X150706700Y-102588360D01*
X150734603Y-102533973D01*
X150749759Y-102475748D01*
X150755607Y-102406073D01*
X150756118Y-102368016D01*
X150757125Y-102301889D01*
X150761041Y-102258380D01*
X150769209Y-102230262D01*
X150782971Y-102210312D01*
X150786000Y-102207177D01*
X150817611Y-102184859D01*
X150843479Y-102177294D01*
X150873838Y-102167835D01*
X150906979Y-102145642D01*
X150924694Y-102131918D01*
X150944549Y-102123354D01*
X150972885Y-102119252D01*
X151016043Y-102118913D01*
X151080363Y-102121639D01*
X151110217Y-102123253D01*
X151213428Y-102125918D01*
X151288565Y-102120971D01*
X151335353Y-102108454D01*
X151353520Y-102088410D01*
X151353765Y-102085249D01*
X151367816Y-102080752D01*
X151406415Y-102076970D01*
X151464232Y-102074219D01*
X151535933Y-102072819D01*
X151564037Y-102072706D01*
X151647615Y-102072356D01*
X151705635Y-102070970D01*
X151742416Y-102068042D01*
X151762278Y-102063067D01*
X151769540Y-102055540D01*
X151769478Y-102048671D01*
X151756766Y-102036126D01*
X151721640Y-102018416D01*
X151662482Y-101994897D01*
X151577674Y-101964923D01*
X151467499Y-101928467D01*
X151302152Y-101877589D01*
X151158043Y-101839297D01*
X151029827Y-101812529D01*
X150912157Y-101796222D01*
X150799688Y-101789312D01*
X150765755Y-101788912D01*
X150703306Y-101787679D01*
X150660173Y-101782369D01*
X150625826Y-101770397D01*
X150589735Y-101749179D01*
X150581500Y-101743679D01*
X150480606Y-101682020D01*
X150391362Y-101641844D01*
X150335858Y-101625706D01*
X150288306Y-101618631D01*
X150251087Y-101625209D01*
X150218228Y-101641211D01*
X150174979Y-101672932D01*
X150139063Y-101711278D01*
X150135550Y-101716375D01*
X150106176Y-101761581D01*
X149956765Y-101752765D01*
X149852861Y-101749717D01*
X149774043Y-101754971D01*
X149716483Y-101769283D01*
X149676350Y-101793409D01*
X149660133Y-101811392D01*
X149638206Y-101836097D01*
X149613736Y-101844610D01*
X149574040Y-101841013D01*
X149570068Y-101840365D01*
X149505350Y-101825019D01*
X149457656Y-101800676D01*
X149425222Y-101772752D01*
X149392197Y-101750832D01*
X149365158Y-101744000D01*
X149329015Y-101736857D01*
X149294188Y-101722220D01*
X149215610Y-101685298D01*
X149112525Y-101646529D01*
X148990112Y-101607480D01*
X148853551Y-101569718D01*
X148708021Y-101534811D01*
X148600243Y-101512257D01*
X148529586Y-101497309D01*
X148468618Y-101482388D01*
X148423991Y-101469254D01*
X148402639Y-101459916D01*
X148376351Y-101446690D01*
X148332534Y-101432304D01*
X148302396Y-101424764D01*
X148248345Y-101408693D01*
X148217776Y-101388096D01*
X148208839Y-101373996D01*
X148194212Y-101352908D01*
X148168683Y-101343013D01*
X148123920Y-101340589D01*
X148080997Y-101342122D01*
X148080997Y-101342122D01*
G37*
X148080997Y-101342122D02*
X148059461Y-101349672D01*
X148050860Y-101367667D01*
X148049022Y-101379816D01*
X148037320Y-101410751D01*
X148006235Y-101430794D01*
X147992000Y-101435845D01*
X147949474Y-101458228D01*
X147935155Y-101484561D01*
X147918263Y-101512909D01*
X147886315Y-101525331D01*
X147850806Y-101540985D01*
X147808052Y-101571436D01*
X147783135Y-101594271D01*
X147734633Y-101636040D01*
X147693539Y-101653448D01*
X147682151Y-101654353D01*
X147629356Y-101663601D01*
X147593786Y-101693380D01*
X147572640Y-101746742D01*
X147567003Y-101779915D01*
X147556775Y-101837164D01*
X147540217Y-101871225D01*
X147511880Y-101888778D01*
X147472370Y-101895927D01*
X147423506Y-101900883D01*
X147574882Y-102072706D01*
X147657692Y-102169406D01*
X147722372Y-102253400D01*
X147770567Y-102330259D01*
X147803920Y-102405554D01*
X147824079Y-102484853D01*
X147832687Y-102573729D01*
X147831390Y-102677751D01*
X147821833Y-102802490D01*
X147813712Y-102881390D01*
X147795466Y-103049241D01*
X147780041Y-103189800D01*
X147767068Y-103305485D01*
X147756180Y-103398718D01*
X147747009Y-103471916D01*
X147739186Y-103527500D01*
X147732344Y-103567889D01*
X147726114Y-103595502D01*
X147720129Y-103612759D01*
X147714020Y-103622079D01*
X147707419Y-103625882D01*
X147700362Y-103626589D01*
X147683177Y-103638389D01*
X147679346Y-103669194D01*
X147687314Y-103712113D01*
X147705524Y-103760253D01*
X147732422Y-103806724D01*
X147744575Y-103822484D01*
X147763278Y-103847512D01*
X147774673Y-103873504D01*
X147780533Y-103908641D01*
X147782631Y-103961102D01*
X147782823Y-103998949D01*
X147783691Y-104064077D01*
X147787246Y-104106552D01*
X147794919Y-104133575D01*
X147808137Y-104152347D01*
X147814471Y-104158420D01*
X147831529Y-104177479D01*
X147839857Y-104201053D01*
X147841109Y-104238028D01*
X147837995Y-104284831D01*
X147832874Y-104329185D01*
X147823995Y-104375448D01*
X147809901Y-104428334D01*
X147789134Y-104492560D01*
X147760235Y-104572839D01*
X147721746Y-104673889D01*
X147701937Y-104724765D01*
X147668279Y-104827268D01*
X147650827Y-104919069D01*
X147650039Y-104995754D01*
X147666376Y-105052912D01*
X147667559Y-105055020D01*
X147700558Y-105101845D01*
X147745084Y-105151988D01*
X147793005Y-105197387D01*
X147836188Y-105229980D01*
X147852824Y-105238700D01*
X147897057Y-105271417D01*
X147923390Y-105326905D01*
X147932234Y-105406034D01*
X147932235Y-105407298D01*
X147940022Y-105471777D01*
X147960739Y-105529831D01*
X147990419Y-105571958D01*
X148005676Y-105583206D01*
X148031883Y-105613080D01*
X148036823Y-105642158D01*
X148046171Y-105684689D01*
X148066706Y-105722430D01*
X148080592Y-105744229D01*
X148089445Y-105771566D01*
X148094316Y-105811249D01*
X148096258Y-105870087D01*
X148096457Y-105914945D01*
X148095226Y-105993173D01*
X148091985Y-106088523D01*
X148087241Y-106188344D01*
X148082134Y-106271177D01*
X148077495Y-106468085D01*
X148089326Y-106679879D01*
X148116933Y-106896981D01*
X148134704Y-106995824D01*
X148148008Y-107094991D01*
X148154098Y-107213562D01*
X148153286Y-107342022D01*
X148145883Y-107470856D01*
X148132200Y-107590548D01*
X148112549Y-107691584D01*
X148111845Y-107694324D01*
X148091288Y-107764832D01*
X148073157Y-107808919D01*
X148058105Y-107825017D01*
X148057401Y-107825059D01*
X148038615Y-107814246D01*
X148036595Y-107806383D01*
X148031429Y-107798605D01*
X148021882Y-107810118D01*
X148010435Y-107847191D01*
X148008325Y-107902528D01*
X148014109Y-107969357D01*
X148026343Y-108040901D01*
X148043584Y-108110388D01*
X148064390Y-108171043D01*
X148087315Y-108216092D01*
X148110918Y-108238760D01*
X148113384Y-108239568D01*
X148126258Y-108246035D01*
X148134736Y-108261079D01*
X148139908Y-108290269D01*
X148142861Y-108339176D01*
X148144398Y-108398302D01*
X148145262Y-108485161D01*
X148144957Y-108584477D01*
X148143571Y-108678846D01*
X148142872Y-108706589D01*
X148141402Y-108778566D01*
X148142552Y-108827543D01*
X148147257Y-108860353D01*
X148156450Y-108883832D01*
X148169767Y-108903181D01*
X148191782Y-108940456D01*
X148201172Y-108975095D01*
X148201176Y-108975628D01*
X148213522Y-109031767D01*
X148247375Y-109093743D01*
X148297959Y-109153178D01*
X148307344Y-109161943D01*
X148351068Y-109198584D01*
X148379910Y-109212907D01*
X148397036Y-109203047D01*
X148405612Y-109167139D01*
X148408806Y-109103320D01*
X148408828Y-109102186D01*
X148408647Y-109041368D01*
X148404553Y-109004482D01*
X148395560Y-108985719D01*
X148388267Y-108981058D01*
X148371136Y-108960510D01*
X148365529Y-108929167D01*
X148360640Y-108892301D01*
X148347929Y-108839952D01*
X148333173Y-108792560D01*
X148308268Y-108706432D01*
X148301139Y-108637176D01*
X148312319Y-108577256D01*
X148342343Y-108519137D01*
X148353728Y-108502806D01*
X148439830Y-108362506D01*
X148498365Y-108216546D01*
X148506462Y-108187538D01*
X148512932Y-108158453D01*
X148517994Y-108124536D01*
X148521745Y-108082364D01*
X148524281Y-108028515D01*
X148525698Y-107959570D01*
X148526094Y-107872105D01*
X148525563Y-107762701D01*
X148524204Y-107627935D01*
X148523612Y-107579062D01*
X148517156Y-107061680D01*
X148560693Y-106968644D01*
X148600045Y-106867267D01*
X148615456Y-106781593D01*
X148607170Y-106709773D01*
X148597822Y-106685654D01*
X148583003Y-106650324D01*
X148581376Y-106624004D01*
X148593518Y-106592028D01*
X148602187Y-106574706D01*
X148646933Y-106467260D01*
X148671332Y-106356276D01*
X148677265Y-106232156D01*
X148676058Y-106197440D01*
X148674423Y-106162434D01*
X148672675Y-106132517D01*
X148669907Y-106104589D01*
X148665213Y-106075546D01*
X148657689Y-106042287D01*
X148646426Y-106001708D01*
X148630520Y-105950707D01*
X148609064Y-105886183D01*
X148581153Y-105805032D01*
X148545880Y-105704153D01*
X148502339Y-105580443D01*
X148464501Y-105473049D01*
X148438401Y-105401646D01*
X148414269Y-105340539D01*
X148394423Y-105295254D01*
X148381177Y-105271316D01*
X148379082Y-105269260D01*
X148371302Y-105258067D01*
X148368580Y-105234929D01*
X148371341Y-105196651D01*
X148380006Y-105140039D01*
X148395000Y-105061899D01*
X148416746Y-104959037D01*
X148425503Y-104919000D01*
X148462211Y-104740992D01*
X148488419Y-104586107D01*
X148504438Y-104449609D01*
X148510578Y-104326765D01*
X148507151Y-104212839D01*
X148494467Y-104103096D01*
X148483181Y-104040431D01*
X148474136Y-103991463D01*
X148472930Y-103962725D01*
X148480875Y-103945284D01*
X148499280Y-103930211D01*
X148499360Y-103930155D01*
X148528519Y-103904412D01*
X148549200Y-103871335D01*
X148562306Y-103826337D01*
X148568740Y-103764833D01*
X148569404Y-103682238D01*
X148566075Y-103591365D01*
X148562263Y-103507050D01*
X148560696Y-103446758D01*
X148561848Y-103404684D01*
X148566194Y-103375021D01*
X148574207Y-103351963D01*
X148586362Y-103329704D01*
X148587605Y-103327657D01*
X148606308Y-103291523D01*
X148616013Y-103254762D01*
X148616746Y-103210608D01*
X148608535Y-103152297D01*
X148591406Y-103073061D01*
X148588656Y-103061418D01*
X148572400Y-102982867D01*
X148568230Y-102925615D01*
X148577838Y-102882946D01*
X148602920Y-102848142D01*
X148645171Y-102814486D01*
X148652146Y-102809755D01*
X148691711Y-102780105D01*
X148711932Y-102753096D01*
X148720089Y-102717799D01*
X148721108Y-102706237D01*
X148718897Y-102663576D01*
X148709026Y-102603183D01*
X148693352Y-102535655D01*
X148687490Y-102514529D01*
X148662147Y-102406623D01*
X148650455Y-102308026D01*
X148653022Y-102225483D01*
X148658829Y-102195971D01*
X148677768Y-102168288D01*
X148704431Y-102162353D01*
X148752066Y-102154311D01*
X148790796Y-102127139D01*
X148826329Y-102076271D01*
X148836862Y-102056413D01*
X148874860Y-101981427D01*
X149007471Y-101985640D01*
X149075121Y-101986697D01*
X149119910Y-101984084D01*
X149148733Y-101976875D01*
X149168485Y-101964147D01*
X149168600Y-101964044D01*
X149191526Y-101950188D01*
X149227014Y-101942106D01*
X149281925Y-101938621D01*
X149319206Y-101938236D01*
X149380400Y-101939982D01*
X149422661Y-101944804D01*
X149440934Y-101952073D01*
X149441294Y-101953387D01*
X149451558Y-101972020D01*
X149477217Y-102000235D01*
X149487860Y-102010146D01*
X149534425Y-102051752D01*
X149532079Y-102212027D01*
X149532000Y-102284278D01*
X149533667Y-102350762D01*
X149536765Y-102402441D01*
X149539470Y-102424210D01*
X149546721Y-102454811D01*
X149559252Y-102470149D01*
X149585736Y-102475494D01*
X149624893Y-102476118D01*
X149674421Y-102479505D01*
X149716619Y-102492706D01*
X149764411Y-102520282D01*
X149780112Y-102530896D01*
X149859647Y-102585673D01*
X149859647Y-102827976D01*
X149859489Y-102918100D01*
X149858638Y-102982773D01*
X149856530Y-103026429D01*
X149852600Y-103053499D01*
X149846284Y-103068417D01*
X149837017Y-103075613D01*
X149827724Y-103078628D01*
X149808414Y-103087300D01*
X149800797Y-103105539D01*
X149802097Y-103142141D01*
X149803508Y-103155350D01*
X149808891Y-103188566D01*
X149818996Y-103219868D01*
X149836969Y-103255079D01*
X149865959Y-103300026D01*
X149909110Y-103360533D01*
X149928926Y-103387530D01*
X149945449Y-103411306D01*
X149956091Y-103433471D01*
X149961764Y-103460724D01*
X149963380Y-103499766D01*
X149961852Y-103557295D01*
X149959422Y-103611647D01*
X149950114Y-103728250D01*
X149932364Y-103842155D01*
X149904546Y-103959904D01*
X149865033Y-104088041D01*
X149812198Y-104233109D01*
X149792216Y-104284163D01*
X149745641Y-104402555D01*
X149709676Y-104496524D01*
X149683257Y-104569155D01*
X149665321Y-104623534D01*
X149654804Y-104662746D01*
X149650643Y-104689875D01*
X149650471Y-104695322D01*
X149657639Y-104733835D01*
X149675658Y-104784013D01*
X149699300Y-104833988D01*
X149723338Y-104871890D01*
X149732473Y-104881503D01*
X149741977Y-104895144D01*
X149748512Y-104920659D01*
X149752552Y-104962689D01*
X149754573Y-105025875D01*
X149755059Y-105102207D01*
X149754805Y-105183938D01*
X149753357Y-105242209D01*
X149749688Y-105283441D01*
X149742771Y-105314056D01*
X149731578Y-105340475D01*
X149715081Y-105369121D01*
X149711387Y-105375142D01*
X149658060Y-105482152D01*
X149627556Y-105589915D01*
X149619912Y-105694109D01*
X149635166Y-105790413D01*
X149673356Y-105874507D01*
X149706703Y-105916690D01*
X149735427Y-105956521D01*
X149743130Y-106001013D01*
X149742577Y-106013808D01*
X149745508Y-106058836D01*
X149757095Y-106116523D01*
X149769313Y-106157722D01*
X149785751Y-106210927D01*
X149796848Y-106257854D01*
X149799882Y-106282385D01*
X149810871Y-106315787D01*
X149829765Y-106326612D01*
X149846270Y-106334771D01*
X149855339Y-106353123D01*
X149859077Y-106388897D01*
X149859647Y-106429272D01*
X149856610Y-106486485D01*
X149848468Y-106560724D01*
X149836679Y-106639862D01*
X149829810Y-106677794D01*
X149813788Y-106782573D01*
X149803722Y-106896340D01*
X149799681Y-107011432D01*
X149801736Y-107120189D01*
X149809959Y-107214948D01*
X149824166Y-107287177D01*
X149832564Y-107323676D01*
X149839210Y-107371457D01*
X149844352Y-107434352D01*
X149848238Y-107516193D01*
X149851119Y-107620814D01*
X149852966Y-107730812D01*
X149854322Y-107845508D01*
X149854782Y-107934148D01*
X149854144Y-108000550D01*
X149852207Y-108048533D01*
X149848771Y-108081914D01*
X149843635Y-108104511D01*
X149836598Y-108120144D01*
X149832146Y-108126754D01*
X149816368Y-108159893D01*
X149808446Y-108209932D01*
X149806904Y-108265473D01*
X149808248Y-108321396D01*
X149812786Y-108354035D01*
X149822175Y-108369947D01*
X149834628Y-108375110D01*
X149857993Y-108372603D01*
X149881565Y-108352941D01*
X149908549Y-108312355D01*
X149940314Y-108250883D01*
X149961233Y-108203803D01*
X149979651Y-108152679D01*
X149996495Y-108093339D01*
X150012692Y-108021613D01*
X150029170Y-107933328D01*
X150046854Y-107824313D01*
X150066672Y-107690397D01*
X150069945Y-107667489D01*
X150116623Y-107339584D01*
X150173971Y-107277369D01*
X150212285Y-107227259D01*
X150235690Y-107179134D01*
X150239049Y-107165253D01*
X150244254Y-107119395D01*
X150249607Y-107051644D01*
X150254706Y-106969984D01*
X150259145Y-106882400D01*
X150262521Y-106796876D01*
X150264431Y-106721397D01*
X150264469Y-106663948D01*
X150264451Y-106663166D01*
X150265693Y-106600008D01*
X150275716Y-106551591D01*
X150298722Y-106507489D01*
X150338913Y-106457274D01*
X150354320Y-106440148D01*
X150395598Y-106389631D01*
X150418654Y-106344379D01*
X150423221Y-106298482D01*
X150409026Y-106246028D01*
X150375801Y-106181106D01*
X150339833Y-106123154D01*
X150309927Y-106073660D01*
X150287974Y-106031185D01*
X150278165Y-106003954D01*
X150278000Y-106001818D01*
X150272152Y-105974022D01*
X150257203Y-105931143D01*
X150245567Y-105903282D01*
X150222313Y-105823158D01*
X150212867Y-105723757D01*
X150216672Y-105612003D01*
X150233170Y-105494822D01*
X150261805Y-105379139D01*
X150295100Y-105287556D01*
X150305347Y-105259585D01*
X150312775Y-105227353D01*
X150317812Y-105185735D01*
X150320881Y-105129602D01*
X150322410Y-105053831D01*
X150322823Y-104953686D01*
X150323064Y-104856758D01*
X150324101Y-104784944D01*
X150326403Y-104733476D01*
X150330441Y-104697587D01*
X150336685Y-104672510D01*
X150345607Y-104653477D01*
X150353647Y-104641266D01*
X150371790Y-104605249D01*
X150390717Y-104550915D01*
X150406575Y-104489469D01*
X150407705Y-104484050D01*
X150423530Y-104421054D01*
X150441832Y-104370687D01*
X150459057Y-104342002D01*
X150480099Y-104305248D01*
X150487177Y-104265324D01*
X150494233Y-104225848D01*
X150519762Y-104191914D01*
X150538180Y-104176070D01*
X150599792Y-104108517D01*
X150643107Y-104021225D01*
X150665838Y-103919684D01*
X150668760Y-103862500D01*
X150668120Y-103827076D01*
X150665993Y-103794087D01*
X150661402Y-103759485D01*
X150653365Y-103719221D01*
X150640904Y-103669249D01*
X150623040Y-103605521D01*
X150598793Y-103523988D01*
X150567184Y-103420602D01*
X150542505Y-103340665D01*
X150519633Y-103259849D01*
X150499626Y-103176583D01*
X150484961Y-103101912D01*
X150478828Y-103056783D01*
X150474946Y-102965000D01*
X150484265Y-102891814D01*
X150510092Y-102827834D01*
X150555737Y-102763672D01*
X150598896Y-102716070D01*
X150662610Y-102646521D01*
X150706700Y-102588360D01*
X150734603Y-102533973D01*
X150749759Y-102475748D01*
X150755607Y-102406073D01*
X150756118Y-102368016D01*
X150757125Y-102301889D01*
X150761041Y-102258380D01*
X150769209Y-102230262D01*
X150782971Y-102210312D01*
X150786000Y-102207177D01*
X150817611Y-102184859D01*
X150843479Y-102177294D01*
X150873838Y-102167835D01*
X150906979Y-102145642D01*
X150924694Y-102131918D01*
X150944549Y-102123354D01*
X150972885Y-102119252D01*
X151016043Y-102118913D01*
X151080363Y-102121639D01*
X151110217Y-102123253D01*
X151213428Y-102125918D01*
X151288565Y-102120971D01*
X151335353Y-102108454D01*
X151353520Y-102088410D01*
X151353765Y-102085249D01*
X151367816Y-102080752D01*
X151406415Y-102076970D01*
X151464232Y-102074219D01*
X151535933Y-102072819D01*
X151564037Y-102072706D01*
X151647615Y-102072356D01*
X151705635Y-102070970D01*
X151742416Y-102068042D01*
X151762278Y-102063067D01*
X151769540Y-102055540D01*
X151769478Y-102048671D01*
X151756766Y-102036126D01*
X151721640Y-102018416D01*
X151662482Y-101994897D01*
X151577674Y-101964923D01*
X151467499Y-101928467D01*
X151302152Y-101877589D01*
X151158043Y-101839297D01*
X151029827Y-101812529D01*
X150912157Y-101796222D01*
X150799688Y-101789312D01*
X150765755Y-101788912D01*
X150703306Y-101787679D01*
X150660173Y-101782369D01*
X150625826Y-101770397D01*
X150589735Y-101749179D01*
X150581500Y-101743679D01*
X150480606Y-101682020D01*
X150391362Y-101641844D01*
X150335858Y-101625706D01*
X150288306Y-101618631D01*
X150251087Y-101625209D01*
X150218228Y-101641211D01*
X150174979Y-101672932D01*
X150139063Y-101711278D01*
X150135550Y-101716375D01*
X150106176Y-101761581D01*
X149956765Y-101752765D01*
X149852861Y-101749717D01*
X149774043Y-101754971D01*
X149716483Y-101769283D01*
X149676350Y-101793409D01*
X149660133Y-101811392D01*
X149638206Y-101836097D01*
X149613736Y-101844610D01*
X149574040Y-101841013D01*
X149570068Y-101840365D01*
X149505350Y-101825019D01*
X149457656Y-101800676D01*
X149425222Y-101772752D01*
X149392197Y-101750832D01*
X149365158Y-101744000D01*
X149329015Y-101736857D01*
X149294188Y-101722220D01*
X149215610Y-101685298D01*
X149112525Y-101646529D01*
X148990112Y-101607480D01*
X148853551Y-101569718D01*
X148708021Y-101534811D01*
X148600243Y-101512257D01*
X148529586Y-101497309D01*
X148468618Y-101482388D01*
X148423991Y-101469254D01*
X148402639Y-101459916D01*
X148376351Y-101446690D01*
X148332534Y-101432304D01*
X148302396Y-101424764D01*
X148248345Y-101408693D01*
X148217776Y-101388096D01*
X148208839Y-101373996D01*
X148194212Y-101352908D01*
X148168683Y-101343013D01*
X148123920Y-101340589D01*
X148080997Y-101342122D01*
G36*
X146288880Y-101617258D02*
X146249048Y-101631942D01*
X146204059Y-101644276D01*
X146144718Y-101652417D01*
X146102346Y-101654353D01*
X146003694Y-101661008D01*
X145924899Y-101683281D01*
X145860802Y-101724631D01*
X145806242Y-101788519D01*
X145756060Y-101878406D01*
X145750429Y-101890366D01*
X145718974Y-101957224D01*
X145687277Y-102023052D01*
X145660679Y-102076808D01*
X145653218Y-102091390D01*
X145621380Y-102181890D01*
X145616353Y-102235052D01*
X145608829Y-102292661D01*
X145589020Y-102342089D01*
X145561072Y-102375797D01*
X145533092Y-102386471D01*
X145516732Y-102399936D01*
X145511765Y-102437331D01*
X145517226Y-102469094D01*
X145534825Y-102512966D01*
X145566384Y-102572717D01*
X145613723Y-102652119D01*
X145621817Y-102665184D01*
X145741938Y-102869450D01*
X145838916Y-103059629D01*
X145913897Y-103239038D01*
X145968031Y-103410991D01*
X146002465Y-103578804D01*
X146018348Y-103745793D01*
X146019765Y-103814304D01*
X146019173Y-103880088D01*
X146016604Y-103921982D01*
X146010870Y-103945967D01*
X146000781Y-103958025D01*
X145990272Y-103962641D01*
X145949246Y-103989338D01*
X145916999Y-104034698D01*
X145900886Y-104087539D01*
X145900235Y-104099572D01*
X145905711Y-104135449D01*
X145920401Y-104189770D01*
X145941702Y-104253535D01*
X145954771Y-104288057D01*
X145995212Y-104406568D01*
X146014504Y-104504805D01*
X146012601Y-104583652D01*
X145989458Y-104643993D01*
X145945027Y-104686712D01*
X145933600Y-104693210D01*
X145871439Y-104738829D01*
X145820443Y-104806854D01*
X145794386Y-104858606D01*
X145773894Y-104922078D01*
X145762858Y-104993604D01*
X145760634Y-105067345D01*
X145766581Y-105137460D01*
X145780054Y-105198111D01*
X145800410Y-105243458D01*
X145827007Y-105267662D01*
X145839708Y-105270118D01*
X145860266Y-105275324D01*
X145869118Y-105296282D01*
X145870735Y-105326147D01*
X145883126Y-105386619D01*
X145920239Y-105459242D01*
X145923029Y-105463661D01*
X145950015Y-105508711D01*
X145965599Y-105545798D01*
X145972865Y-105586578D01*
X145974892Y-105642707D01*
X145974941Y-105660058D01*
X145963403Y-105793337D01*
X145943570Y-105876537D01*
X145923698Y-105957488D01*
X145921460Y-106023216D01*
X145937895Y-106083342D01*
X145972497Y-106145174D01*
X145993697Y-106179116D01*
X146006268Y-106208206D01*
X146011960Y-106241539D01*
X146012524Y-106288207D01*
X146010414Y-106342207D01*
X146005803Y-106421432D01*
X145999057Y-106512945D01*
X145991481Y-106599349D01*
X145989947Y-106614824D01*
X145981955Y-106707879D01*
X145975591Y-106810692D01*
X145970967Y-106917477D01*
X145968194Y-107022451D01*
X145967383Y-107119826D01*
X145968644Y-107203818D01*
X145972089Y-107268642D01*
X145976721Y-107303909D01*
X146001753Y-107372087D01*
X146049069Y-107451844D01*
X146067131Y-107477162D01*
X146127221Y-107561115D01*
X146172556Y-107632004D01*
X146208340Y-107699003D01*
X146239782Y-107771286D01*
X146251960Y-107802804D01*
X146271283Y-107857579D01*
X146282008Y-107901655D01*
X146285574Y-107946708D01*
X146283417Y-108004413D01*
X146280919Y-108038151D01*
X146276670Y-108105740D01*
X146277174Y-108151270D01*
X146283061Y-108182276D01*
X146294920Y-108206239D01*
X146315910Y-108232777D01*
X146331222Y-108243412D01*
X146342336Y-108230646D01*
X146360607Y-108196964D01*
X146382331Y-108149290D01*
X146385160Y-108142559D01*
X146414503Y-108054803D01*
X146432018Y-107965016D01*
X146436999Y-107881081D01*
X146428745Y-107810885D01*
X146417571Y-107779486D01*
X146403737Y-107744811D01*
X146396341Y-107705553D01*
X146395584Y-107656711D01*
X146401670Y-107593285D01*
X146414800Y-107510273D01*
X146432152Y-107418010D01*
X146453424Y-107293991D01*
X146463040Y-107192676D01*
X146460369Y-107108994D01*
X146444779Y-107037876D01*
X146415641Y-106974250D01*
X146372323Y-106913046D01*
X146368780Y-106908766D01*
X146340724Y-106857270D01*
X146335485Y-106794928D01*
X146352972Y-106717993D01*
X146363412Y-106689530D01*
X146386017Y-106615029D01*
X146392094Y-106551488D01*
X146381423Y-106504465D01*
X146371331Y-106490407D01*
X146349672Y-106457630D01*
X146326167Y-106404421D01*
X146304311Y-106339751D01*
X146288831Y-106278647D01*
X146285105Y-106243493D01*
X146282879Y-106185061D01*
X146282238Y-106109925D01*
X146283267Y-106024655D01*
X146284795Y-105969214D01*
X146287600Y-105872532D01*
X146288353Y-105800241D01*
X146286768Y-105746902D01*
X146282558Y-105707077D01*
X146275437Y-105675326D01*
X146268191Y-105654004D01*
X146255072Y-105615078D01*
X146250658Y-105582145D01*
X146254764Y-105543259D01*
X146265712Y-105492791D01*
X146277021Y-105428430D01*
X146285186Y-105350772D01*
X146288480Y-105276371D01*
X146288485Y-105274735D01*
X146290329Y-105216990D01*
X146295037Y-105171381D01*
X146301704Y-105145630D01*
X146303931Y-105142942D01*
X146325305Y-105118480D01*
X146349176Y-105074892D01*
X146371322Y-105022172D01*
X146387525Y-104970311D01*
X146393569Y-104930703D01*
X146391039Y-104893595D01*
X146383959Y-104835386D01*
X146373441Y-104764317D01*
X146361726Y-104694883D01*
X146345738Y-104593384D01*
X146339542Y-104515641D01*
X146344004Y-104456892D01*
X146359989Y-104412377D01*
X146388364Y-104377332D01*
X146424351Y-104350494D01*
X146479770Y-104306000D01*
X146519020Y-104250802D01*
X146542792Y-104181632D01*
X146551775Y-104095217D01*
X146546662Y-103988287D01*
X146528267Y-103858298D01*
X146517214Y-103789207D01*
X146509823Y-103731820D01*
X146506712Y-103691928D01*
X146508499Y-103675323D01*
X146508724Y-103675209D01*
X146551701Y-103653532D01*
X146592252Y-103621896D01*
X146620106Y-103589005D01*
X146625783Y-103576024D01*
X146624352Y-103525730D01*
X146600303Y-103470790D01*
X146558147Y-103419094D01*
X146518135Y-103387687D01*
X146454059Y-103347050D01*
X146448410Y-103034849D01*
X146444818Y-102897743D01*
X146439342Y-102786727D01*
X146431709Y-102698051D01*
X146421644Y-102627967D01*
X146417179Y-102605671D01*
X146404505Y-102540634D01*
X146400528Y-102498579D01*
X146404900Y-102474010D01*
X146408508Y-102468319D01*
X146429880Y-102454570D01*
X146472067Y-102435709D01*
X146527231Y-102415117D01*
X146547562Y-102408318D01*
X146609585Y-102386343D01*
X146665385Y-102363319D01*
X146705027Y-102343430D01*
X146711459Y-102339290D01*
X146743984Y-102320676D01*
X146774078Y-102318703D01*
X146807003Y-102327639D01*
X146882622Y-102339584D01*
X146979771Y-102333181D01*
X147096583Y-102308671D01*
X147200118Y-102277146D01*
X147266567Y-102255015D01*
X147324719Y-102236470D01*
X147367440Y-102223737D01*
X147385644Y-102219242D01*
X147413321Y-102206310D01*
X147420025Y-102186025D01*
X147402925Y-102168246D01*
X147400572Y-102167276D01*
X147372981Y-102149986D01*
X147339941Y-102120906D01*
X147335829Y-102116677D01*
X147302937Y-102093655D01*
X147247095Y-102066607D01*
X147174598Y-102037643D01*
X147091741Y-102008870D01*
X147004822Y-101982399D01*
X146920135Y-101960338D01*
X146843975Y-101944796D01*
X146807782Y-101939768D01*
X146749238Y-101931968D01*
X146711854Y-101921763D01*
X146686918Y-101905860D01*
X146671014Y-101888040D01*
X146621894Y-101826569D01*
X146585033Y-101786355D01*
X146556442Y-101763578D01*
X146532130Y-101754417D01*
X146531297Y-101754295D01*
X146496302Y-101742987D01*
X146479750Y-101731845D01*
X146452952Y-101716020D01*
X146442096Y-101714118D01*
X146422526Y-101702285D01*
X146398234Y-101672798D01*
X146391314Y-101661824D01*
X146363758Y-101625743D01*
X146332116Y-101611413D01*
X146288880Y-101617258D01*
X146288880Y-101617258D01*
G37*
X146288880Y-101617258D02*
X146249048Y-101631942D01*
X146204059Y-101644276D01*
X146144718Y-101652417D01*
X146102346Y-101654353D01*
X146003694Y-101661008D01*
X145924899Y-101683281D01*
X145860802Y-101724631D01*
X145806242Y-101788519D01*
X145756060Y-101878406D01*
X145750429Y-101890366D01*
X145718974Y-101957224D01*
X145687277Y-102023052D01*
X145660679Y-102076808D01*
X145653218Y-102091390D01*
X145621380Y-102181890D01*
X145616353Y-102235052D01*
X145608829Y-102292661D01*
X145589020Y-102342089D01*
X145561072Y-102375797D01*
X145533092Y-102386471D01*
X145516732Y-102399936D01*
X145511765Y-102437331D01*
X145517226Y-102469094D01*
X145534825Y-102512966D01*
X145566384Y-102572717D01*
X145613723Y-102652119D01*
X145621817Y-102665184D01*
X145741938Y-102869450D01*
X145838916Y-103059629D01*
X145913897Y-103239038D01*
X145968031Y-103410991D01*
X146002465Y-103578804D01*
X146018348Y-103745793D01*
X146019765Y-103814304D01*
X146019173Y-103880088D01*
X146016604Y-103921982D01*
X146010870Y-103945967D01*
X146000781Y-103958025D01*
X145990272Y-103962641D01*
X145949246Y-103989338D01*
X145916999Y-104034698D01*
X145900886Y-104087539D01*
X145900235Y-104099572D01*
X145905711Y-104135449D01*
X145920401Y-104189770D01*
X145941702Y-104253535D01*
X145954771Y-104288057D01*
X145995212Y-104406568D01*
X146014504Y-104504805D01*
X146012601Y-104583652D01*
X145989458Y-104643993D01*
X145945027Y-104686712D01*
X145933600Y-104693210D01*
X145871439Y-104738829D01*
X145820443Y-104806854D01*
X145794386Y-104858606D01*
X145773894Y-104922078D01*
X145762858Y-104993604D01*
X145760634Y-105067345D01*
X145766581Y-105137460D01*
X145780054Y-105198111D01*
X145800410Y-105243458D01*
X145827007Y-105267662D01*
X145839708Y-105270118D01*
X145860266Y-105275324D01*
X145869118Y-105296282D01*
X145870735Y-105326147D01*
X145883126Y-105386619D01*
X145920239Y-105459242D01*
X145923029Y-105463661D01*
X145950015Y-105508711D01*
X145965599Y-105545798D01*
X145972865Y-105586578D01*
X145974892Y-105642707D01*
X145974941Y-105660058D01*
X145963403Y-105793337D01*
X145943570Y-105876537D01*
X145923698Y-105957488D01*
X145921460Y-106023216D01*
X145937895Y-106083342D01*
X145972497Y-106145174D01*
X145993697Y-106179116D01*
X146006268Y-106208206D01*
X146011960Y-106241539D01*
X146012524Y-106288207D01*
X146010414Y-106342207D01*
X146005803Y-106421432D01*
X145999057Y-106512945D01*
X145991481Y-106599349D01*
X145989947Y-106614824D01*
X145981955Y-106707879D01*
X145975591Y-106810692D01*
X145970967Y-106917477D01*
X145968194Y-107022451D01*
X145967383Y-107119826D01*
X145968644Y-107203818D01*
X145972089Y-107268642D01*
X145976721Y-107303909D01*
X146001753Y-107372087D01*
X146049069Y-107451844D01*
X146067131Y-107477162D01*
X146127221Y-107561115D01*
X146172556Y-107632004D01*
X146208340Y-107699003D01*
X146239782Y-107771286D01*
X146251960Y-107802804D01*
X146271283Y-107857579D01*
X146282008Y-107901655D01*
X146285574Y-107946708D01*
X146283417Y-108004413D01*
X146280919Y-108038151D01*
X146276670Y-108105740D01*
X146277174Y-108151270D01*
X146283061Y-108182276D01*
X146294920Y-108206239D01*
X146315910Y-108232777D01*
X146331222Y-108243412D01*
X146342336Y-108230646D01*
X146360607Y-108196964D01*
X146382331Y-108149290D01*
X146385160Y-108142559D01*
X146414503Y-108054803D01*
X146432018Y-107965016D01*
X146436999Y-107881081D01*
X146428745Y-107810885D01*
X146417571Y-107779486D01*
X146403737Y-107744811D01*
X146396341Y-107705553D01*
X146395584Y-107656711D01*
X146401670Y-107593285D01*
X146414800Y-107510273D01*
X146432152Y-107418010D01*
X146453424Y-107293991D01*
X146463040Y-107192676D01*
X146460369Y-107108994D01*
X146444779Y-107037876D01*
X146415641Y-106974250D01*
X146372323Y-106913046D01*
X146368780Y-106908766D01*
X146340724Y-106857270D01*
X146335485Y-106794928D01*
X146352972Y-106717993D01*
X146363412Y-106689530D01*
X146386017Y-106615029D01*
X146392094Y-106551488D01*
X146381423Y-106504465D01*
X146371331Y-106490407D01*
X146349672Y-106457630D01*
X146326167Y-106404421D01*
X146304311Y-106339751D01*
X146288831Y-106278647D01*
X146285105Y-106243493D01*
X146282879Y-106185061D01*
X146282238Y-106109925D01*
X146283267Y-106024655D01*
X146284795Y-105969214D01*
X146287600Y-105872532D01*
X146288353Y-105800241D01*
X146286768Y-105746902D01*
X146282558Y-105707077D01*
X146275437Y-105675326D01*
X146268191Y-105654004D01*
X146255072Y-105615078D01*
X146250658Y-105582145D01*
X146254764Y-105543259D01*
X146265712Y-105492791D01*
X146277021Y-105428430D01*
X146285186Y-105350772D01*
X146288480Y-105276371D01*
X146288485Y-105274735D01*
X146290329Y-105216990D01*
X146295037Y-105171381D01*
X146301704Y-105145630D01*
X146303931Y-105142942D01*
X146325305Y-105118480D01*
X146349176Y-105074892D01*
X146371322Y-105022172D01*
X146387525Y-104970311D01*
X146393569Y-104930703D01*
X146391039Y-104893595D01*
X146383959Y-104835386D01*
X146373441Y-104764317D01*
X146361726Y-104694883D01*
X146345738Y-104593384D01*
X146339542Y-104515641D01*
X146344004Y-104456892D01*
X146359989Y-104412377D01*
X146388364Y-104377332D01*
X146424351Y-104350494D01*
X146479770Y-104306000D01*
X146519020Y-104250802D01*
X146542792Y-104181632D01*
X146551775Y-104095217D01*
X146546662Y-103988287D01*
X146528267Y-103858298D01*
X146517214Y-103789207D01*
X146509823Y-103731820D01*
X146506712Y-103691928D01*
X146508499Y-103675323D01*
X146508724Y-103675209D01*
X146551701Y-103653532D01*
X146592252Y-103621896D01*
X146620106Y-103589005D01*
X146625783Y-103576024D01*
X146624352Y-103525730D01*
X146600303Y-103470790D01*
X146558147Y-103419094D01*
X146518135Y-103387687D01*
X146454059Y-103347050D01*
X146448410Y-103034849D01*
X146444818Y-102897743D01*
X146439342Y-102786727D01*
X146431709Y-102698051D01*
X146421644Y-102627967D01*
X146417179Y-102605671D01*
X146404505Y-102540634D01*
X146400528Y-102498579D01*
X146404900Y-102474010D01*
X146408508Y-102468319D01*
X146429880Y-102454570D01*
X146472067Y-102435709D01*
X146527231Y-102415117D01*
X146547562Y-102408318D01*
X146609585Y-102386343D01*
X146665385Y-102363319D01*
X146705027Y-102343430D01*
X146711459Y-102339290D01*
X146743984Y-102320676D01*
X146774078Y-102318703D01*
X146807003Y-102327639D01*
X146882622Y-102339584D01*
X146979771Y-102333181D01*
X147096583Y-102308671D01*
X147200118Y-102277146D01*
X147266567Y-102255015D01*
X147324719Y-102236470D01*
X147367440Y-102223737D01*
X147385644Y-102219242D01*
X147413321Y-102206310D01*
X147420025Y-102186025D01*
X147402925Y-102168246D01*
X147400572Y-102167276D01*
X147372981Y-102149986D01*
X147339941Y-102120906D01*
X147335829Y-102116677D01*
X147302937Y-102093655D01*
X147247095Y-102066607D01*
X147174598Y-102037643D01*
X147091741Y-102008870D01*
X147004822Y-101982399D01*
X146920135Y-101960338D01*
X146843975Y-101944796D01*
X146807782Y-101939768D01*
X146749238Y-101931968D01*
X146711854Y-101921763D01*
X146686918Y-101905860D01*
X146671014Y-101888040D01*
X146621894Y-101826569D01*
X146585033Y-101786355D01*
X146556442Y-101763578D01*
X146532130Y-101754417D01*
X146531297Y-101754295D01*
X146496302Y-101742987D01*
X146479750Y-101731845D01*
X146452952Y-101716020D01*
X146442096Y-101714118D01*
X146422526Y-101702285D01*
X146398234Y-101672798D01*
X146391314Y-101661824D01*
X146363758Y-101625743D01*
X146332116Y-101611413D01*
X146288880Y-101617258D01*
D12*
X140852381Y-105033334D02*
X140852381Y-104461905D01*
X140852381Y-104747619D02*
X139852381Y-104747619D01*
X139995238Y-104652381D01*
X140090476Y-104557143D01*
X140138095Y-104461905D01*
X140185714Y-105890477D02*
X140852381Y-105890477D01*
X140185714Y-105461905D02*
X140709524Y-105461905D01*
X140804762Y-105509524D01*
X140852381Y-105604762D01*
X140852381Y-105747620D01*
X140804762Y-105842858D01*
X140757143Y-105890477D01*
X157452381Y-104785714D02*
X157452381Y-104880953D01*
X157500000Y-104976191D01*
X157547619Y-105023810D01*
X157642857Y-105071429D01*
X157833333Y-105119048D01*
X158071429Y-105119048D01*
X158261905Y-105071429D01*
X158357143Y-105023810D01*
X158404762Y-104976191D01*
X158452381Y-104880953D01*
X158452381Y-104785714D01*
X158404762Y-104690476D01*
X158357143Y-104642857D01*
X158261905Y-104595238D01*
X158071429Y-104547619D01*
X157833333Y-104547619D01*
X157642857Y-104595238D01*
X157547619Y-104642857D01*
X157500000Y-104690476D01*
X157452381Y-104785714D01*
X158357143Y-105547619D02*
X158404762Y-105595238D01*
X158452381Y-105547619D01*
X158404762Y-105500000D01*
X158357143Y-105547619D01*
X158452381Y-105547619D01*
X158452381Y-106547619D02*
X158452381Y-105976190D01*
X158452381Y-106261904D02*
X157452381Y-106261904D01*
X157595238Y-106166666D01*
X157690476Y-106071428D01*
X157738095Y-105976190D01*
X157785714Y-107404762D02*
X158452381Y-107404762D01*
X157785714Y-106976190D02*
X158309524Y-106976190D01*
X158404762Y-107023809D01*
X158452381Y-107119047D01*
X158452381Y-107261905D01*
X158404762Y-107357143D01*
X158357143Y-107404762D01*
X144414286Y-113052381D02*
X144319047Y-113052381D01*
X144223809Y-113100000D01*
X144176190Y-113147619D01*
X144128571Y-113242857D01*
X144080952Y-113433333D01*
X144080952Y-113671429D01*
X144128571Y-113861905D01*
X144176190Y-113957143D01*
X144223809Y-114004762D01*
X144319047Y-114052381D01*
X144414286Y-114052381D01*
X144509524Y-114004762D01*
X144557143Y-113957143D01*
X144604762Y-113861905D01*
X144652381Y-113671429D01*
X144652381Y-113433333D01*
X144604762Y-113242857D01*
X144557143Y-113147619D01*
X144509524Y-113100000D01*
X144414286Y-113052381D01*
X143652381Y-113957143D02*
X143604762Y-114004762D01*
X143652381Y-114052381D01*
X143700000Y-114004762D01*
X143652381Y-113957143D01*
X143652381Y-114052381D01*
X142652381Y-114052381D02*
X143223810Y-114052381D01*
X142938096Y-114052381D02*
X142938096Y-113052381D01*
X143033334Y-113195238D01*
X143128572Y-113290476D01*
X143223810Y-113338095D01*
X141795238Y-113385714D02*
X141795238Y-114052381D01*
X142223810Y-113385714D02*
X142223810Y-113909524D01*
X142176191Y-114004762D01*
X142080953Y-114052381D01*
X141938095Y-114052381D01*
X141842857Y-114004762D01*
X141795238Y-113957143D01*
X148014286Y-94452381D02*
X147919047Y-94452381D01*
X147823809Y-94500000D01*
X147776190Y-94547619D01*
X147728571Y-94642857D01*
X147680952Y-94833333D01*
X147680952Y-95071429D01*
X147728571Y-95261905D01*
X147776190Y-95357143D01*
X147823809Y-95404762D01*
X147919047Y-95452381D01*
X148014286Y-95452381D01*
X148109524Y-95404762D01*
X148157143Y-95357143D01*
X148204762Y-95261905D01*
X148252381Y-95071429D01*
X148252381Y-94833333D01*
X148204762Y-94642857D01*
X148157143Y-94547619D01*
X148109524Y-94500000D01*
X148014286Y-94452381D01*
X147252381Y-95357143D02*
X147204762Y-95404762D01*
X147252381Y-95452381D01*
X147300000Y-95404762D01*
X147252381Y-95357143D01*
X147252381Y-95452381D01*
X146252381Y-95452381D02*
X146823810Y-95452381D01*
X146538096Y-95452381D02*
X146538096Y-94452381D01*
X146633334Y-94595238D01*
X146728572Y-94690476D01*
X146823810Y-94738095D01*
X145395238Y-94785714D02*
X145395238Y-95452381D01*
X145823810Y-94785714D02*
X145823810Y-95309524D01*
X145776191Y-95404762D01*
X145680953Y-95452381D01*
X145538095Y-95452381D01*
X145442857Y-95404762D01*
X145395238Y-95357143D01*
X143342857Y-115452381D02*
X143914286Y-115452381D01*
X143628572Y-115452381D02*
X143628572Y-114452381D01*
X143723810Y-114595238D01*
X143819048Y-114690476D01*
X143914286Y-114738095D01*
X142723810Y-114452381D02*
X142628571Y-114452381D01*
X142533333Y-114500000D01*
X142485714Y-114547619D01*
X142438095Y-114642857D01*
X142390476Y-114833333D01*
X142390476Y-115071429D01*
X142438095Y-115261905D01*
X142485714Y-115357143D01*
X142533333Y-115404762D01*
X142628571Y-115452381D01*
X142723810Y-115452381D01*
X142819048Y-115404762D01*
X142866667Y-115357143D01*
X142914286Y-115261905D01*
X142961905Y-115071429D01*
X142961905Y-114833333D01*
X142914286Y-114642857D01*
X142866667Y-114547619D01*
X142819048Y-114500000D01*
X142723810Y-114452381D01*
X141533333Y-114785714D02*
X141533333Y-115452381D01*
X141961905Y-114785714D02*
X141961905Y-115309524D01*
X141914286Y-115404762D01*
X141819048Y-115452381D01*
X141676190Y-115452381D01*
X141580952Y-115404762D01*
X141533333Y-115357143D01*
X160414286Y-113747619D02*
X160366667Y-113700000D01*
X160271429Y-113652381D01*
X160033333Y-113652381D01*
X159938095Y-113700000D01*
X159890476Y-113747619D01*
X159842857Y-113842857D01*
X159842857Y-113938095D01*
X159890476Y-114080952D01*
X160461905Y-114652381D01*
X159842857Y-114652381D01*
X159461905Y-113747619D02*
X159414286Y-113700000D01*
X159319048Y-113652381D01*
X159080952Y-113652381D01*
X158985714Y-113700000D01*
X158938095Y-113747619D01*
X158890476Y-113842857D01*
X158890476Y-113938095D01*
X158938095Y-114080952D01*
X159509524Y-114652381D01*
X158890476Y-114652381D01*
X158033333Y-113985714D02*
X158033333Y-114652381D01*
X158461905Y-113985714D02*
X158461905Y-114509524D01*
X158414286Y-114604762D01*
X158319048Y-114652381D01*
X158176190Y-114652381D01*
X158080952Y-114604762D01*
X158033333Y-114557143D01*
D14*
X153296044Y-105186886D02*
X153296044Y-104436886D01*
X153010329Y-104436886D01*
X152938901Y-104472600D01*
X152903186Y-104508314D01*
X152867472Y-104579743D01*
X152867472Y-104686886D01*
X152903186Y-104758314D01*
X152938901Y-104794029D01*
X153010329Y-104829743D01*
X153296044Y-104829743D01*
X152546044Y-105186886D02*
X152546044Y-104436886D01*
X151760329Y-105115457D02*
X151796043Y-105151171D01*
X151903186Y-105186886D01*
X151974615Y-105186886D01*
X152081758Y-105151171D01*
X152153186Y-105079743D01*
X152188901Y-105008314D01*
X152224615Y-104865457D01*
X152224615Y-104758314D01*
X152188901Y-104615457D01*
X152153186Y-104544029D01*
X152081758Y-104472600D01*
X151974615Y-104436886D01*
X151903186Y-104436886D01*
X151796043Y-104472600D01*
X151760329Y-104508314D01*
X151474615Y-104508314D02*
X151438901Y-104472600D01*
X151367472Y-104436886D01*
X151188901Y-104436886D01*
X151117472Y-104472600D01*
X151081758Y-104508314D01*
X151046043Y-104579743D01*
X151046043Y-104651171D01*
X151081758Y-104758314D01*
X151510329Y-105186886D01*
X151046043Y-105186886D01*
X150403186Y-104686886D02*
X150403186Y-105186886D01*
X150581757Y-104401171D02*
X150760329Y-104936886D01*
X150296043Y-104936886D01*
X149760329Y-104794029D02*
X150010329Y-104794029D01*
X150010329Y-105186886D02*
X150010329Y-104436886D01*
X149653186Y-104436886D01*
X149153186Y-104436886D02*
X149153186Y-104972600D01*
X149188900Y-105079743D01*
X149260329Y-105151171D01*
X149367472Y-105186886D01*
X149438900Y-105186886D01*
X148474614Y-104436886D02*
X148617471Y-104436886D01*
X148688900Y-104472600D01*
X148724614Y-104508314D01*
X148796043Y-104615457D01*
X148831757Y-104758314D01*
X148831757Y-105044029D01*
X148796043Y-105115457D01*
X148760328Y-105151171D01*
X148688900Y-105186886D01*
X148546043Y-105186886D01*
X148474614Y-105151171D01*
X148438900Y-105115457D01*
X148403185Y-105044029D01*
X148403185Y-104865457D01*
X148438900Y-104794029D01*
X148474614Y-104758314D01*
X148546043Y-104722600D01*
X148688900Y-104722600D01*
X148760328Y-104758314D01*
X148796043Y-104794029D01*
X148831757Y-104865457D01*
X147760328Y-104686886D02*
X147760328Y-105186886D01*
X147938899Y-104401171D02*
X148117471Y-104936886D01*
X147653185Y-104936886D01*
X146974613Y-104472600D02*
X147046042Y-104436886D01*
X147153185Y-104436886D01*
X147260328Y-104472600D01*
X147331756Y-104544029D01*
X147367471Y-104615457D01*
X147403185Y-104758314D01*
X147403185Y-104865457D01*
X147367471Y-105008314D01*
X147331756Y-105079743D01*
X147260328Y-105151171D01*
X147153185Y-105186886D01*
X147081756Y-105186886D01*
X146974613Y-105151171D01*
X146938899Y-105115457D01*
X146938899Y-104865457D01*
X147081756Y-104865457D01*
X146367471Y-104794029D02*
X146260328Y-104829743D01*
X146224613Y-104865457D01*
X146188899Y-104936886D01*
X146188899Y-105044029D01*
X146224613Y-105115457D01*
X146260328Y-105151171D01*
X146331756Y-105186886D01*
X146617471Y-105186886D01*
X146617471Y-104436886D01*
X146367471Y-104436886D01*
X146296042Y-104472600D01*
X146260328Y-104508314D01*
X146224613Y-104579743D01*
X146224613Y-104651171D01*
X146260328Y-104722600D01*
X146296042Y-104758314D01*
X146367471Y-104794029D01*
X146617471Y-104794029D01*
X145724613Y-104436886D02*
X145653185Y-104436886D01*
X145581756Y-104472600D01*
X145546042Y-104508314D01*
X145510328Y-104579743D01*
X145474613Y-104722600D01*
X145474613Y-104901171D01*
X145510328Y-105044029D01*
X145546042Y-105115457D01*
X145581756Y-105151171D01*
X145653185Y-105186886D01*
X145724613Y-105186886D01*
X145796042Y-105151171D01*
X145831756Y-105115457D01*
X145867471Y-105044029D01*
X145903185Y-104901171D01*
X145903185Y-104722600D01*
X145867471Y-104579743D01*
X145831756Y-104508314D01*
X145796042Y-104472600D01*
X145724613Y-104436886D01*
X145010327Y-104436886D02*
X144938899Y-104436886D01*
X144867470Y-104472600D01*
X144831756Y-104508314D01*
X144796042Y-104579743D01*
X144760327Y-104722600D01*
X144760327Y-104901171D01*
X144796042Y-105044029D01*
X144831756Y-105115457D01*
X144867470Y-105151171D01*
X144938899Y-105186886D01*
X145010327Y-105186886D01*
X145081756Y-105151171D01*
X145117470Y-105115457D01*
X145153185Y-105044029D01*
X145188899Y-104901171D01*
X145188899Y-104722600D01*
X145153185Y-104579743D01*
X145117470Y-104508314D01*
X145081756Y-104472600D01*
X145010327Y-104436886D01*
X144117470Y-104686886D02*
X144117470Y-105186886D01*
X144296041Y-104401171D02*
X144474613Y-104936886D01*
X144010327Y-104936886D01*
D12*
X150995238Y-95452381D02*
X151566667Y-95452381D01*
X151280953Y-95452381D02*
X151280953Y-94452381D01*
X151376191Y-94595238D01*
X151471429Y-94690476D01*
X151566667Y-94738095D01*
X150376191Y-94452381D02*
X150280952Y-94452381D01*
X150185714Y-94500000D01*
X150138095Y-94547619D01*
X150090476Y-94642857D01*
X150042857Y-94833333D01*
X150042857Y-95071429D01*
X150090476Y-95261905D01*
X150138095Y-95357143D01*
X150185714Y-95404762D01*
X150280952Y-95452381D01*
X150376191Y-95452381D01*
X150471429Y-95404762D01*
X150519048Y-95357143D01*
X150566667Y-95261905D01*
X150614286Y-95071429D01*
X150614286Y-94833333D01*
X150566667Y-94642857D01*
X150519048Y-94547619D01*
X150471429Y-94500000D01*
X150376191Y-94452381D01*
X149614286Y-95452381D02*
X149614286Y-94452381D01*
X149519048Y-95071429D02*
X149233333Y-95452381D01*
X149233333Y-94785714D02*
X149614286Y-95166667D01*
X157485714Y-93752381D02*
X156866666Y-93752381D01*
X157200000Y-94133333D01*
X157057142Y-94133333D01*
X156961904Y-94180952D01*
X156914285Y-94228571D01*
X156866666Y-94323810D01*
X156866666Y-94561905D01*
X156914285Y-94657143D01*
X156961904Y-94704762D01*
X157057142Y-94752381D01*
X157342857Y-94752381D01*
X157438095Y-94704762D01*
X157485714Y-94657143D01*
X156533333Y-93752381D02*
X155914285Y-93752381D01*
X156247619Y-94133333D01*
X156104761Y-94133333D01*
X156009523Y-94180952D01*
X155961904Y-94228571D01*
X155914285Y-94323810D01*
X155914285Y-94561905D01*
X155961904Y-94657143D01*
X156009523Y-94704762D01*
X156104761Y-94752381D01*
X156390476Y-94752381D01*
X156485714Y-94704762D01*
X156533333Y-94657143D01*
X155295238Y-93752381D02*
X155199999Y-93752381D01*
X155104761Y-93800000D01*
X155057142Y-93847619D01*
X155009523Y-93942857D01*
X154961904Y-94133333D01*
X154961904Y-94371429D01*
X155009523Y-94561905D01*
X155057142Y-94657143D01*
X155104761Y-94704762D01*
X155199999Y-94752381D01*
X155295238Y-94752381D01*
X155390476Y-94704762D01*
X155438095Y-94657143D01*
X155485714Y-94561905D01*
X155533333Y-94371429D01*
X155533333Y-94133333D01*
X155485714Y-93942857D01*
X155438095Y-93847619D01*
X155390476Y-93800000D01*
X155295238Y-93752381D01*
X157485714Y-97152381D02*
X156866666Y-97152381D01*
X157200000Y-97533333D01*
X157057142Y-97533333D01*
X156961904Y-97580952D01*
X156914285Y-97628571D01*
X156866666Y-97723810D01*
X156866666Y-97961905D01*
X156914285Y-98057143D01*
X156961904Y-98104762D01*
X157057142Y-98152381D01*
X157342857Y-98152381D01*
X157438095Y-98104762D01*
X157485714Y-98057143D01*
X156533333Y-97152381D02*
X155914285Y-97152381D01*
X156247619Y-97533333D01*
X156104761Y-97533333D01*
X156009523Y-97580952D01*
X155961904Y-97628571D01*
X155914285Y-97723810D01*
X155914285Y-97961905D01*
X155961904Y-98057143D01*
X156009523Y-98104762D01*
X156104761Y-98152381D01*
X156390476Y-98152381D01*
X156485714Y-98104762D01*
X156533333Y-98057143D01*
X155295238Y-97152381D02*
X155199999Y-97152381D01*
X155104761Y-97200000D01*
X155057142Y-97247619D01*
X155009523Y-97342857D01*
X154961904Y-97533333D01*
X154961904Y-97771429D01*
X155009523Y-97961905D01*
X155057142Y-98057143D01*
X155104761Y-98104762D01*
X155199999Y-98152381D01*
X155295238Y-98152381D01*
X155390476Y-98104762D01*
X155438095Y-98057143D01*
X155485714Y-97961905D01*
X155533333Y-97771429D01*
X155533333Y-97533333D01*
X155485714Y-97342857D01*
X155438095Y-97247619D01*
X155390476Y-97200000D01*
X155295238Y-97152381D01*
X154314285Y-112452381D02*
X154790476Y-112452381D01*
X154838095Y-112928571D01*
X154790476Y-112880952D01*
X154695238Y-112833333D01*
X154457142Y-112833333D01*
X154361904Y-112880952D01*
X154314285Y-112928571D01*
X154266666Y-113023810D01*
X154266666Y-113261905D01*
X154314285Y-113357143D01*
X154361904Y-113404762D01*
X154457142Y-113452381D01*
X154695238Y-113452381D01*
X154790476Y-113404762D01*
X154838095Y-113357143D01*
X153314285Y-113452381D02*
X153885714Y-113452381D01*
X153600000Y-113452381D02*
X153600000Y-112452381D01*
X153695238Y-112595238D01*
X153790476Y-112690476D01*
X153885714Y-112738095D01*
X152695238Y-112452381D02*
X152599999Y-112452381D01*
X152504761Y-112500000D01*
X152457142Y-112547619D01*
X152409523Y-112642857D01*
X152361904Y-112833333D01*
X152361904Y-113071429D01*
X152409523Y-113261905D01*
X152457142Y-113357143D01*
X152504761Y-113404762D01*
X152599999Y-113452381D01*
X152695238Y-113452381D01*
X152790476Y-113404762D01*
X152838095Y-113357143D01*
X152885714Y-113261905D01*
X152933333Y-113071429D01*
X152933333Y-112833333D01*
X152885714Y-112642857D01*
X152838095Y-112547619D01*
X152790476Y-112500000D01*
X152695238Y-112452381D01*
X157285714Y-121452381D02*
X156666666Y-121452381D01*
X157000000Y-121833333D01*
X156857142Y-121833333D01*
X156761904Y-121880952D01*
X156714285Y-121928571D01*
X156666666Y-122023810D01*
X156666666Y-122261905D01*
X156714285Y-122357143D01*
X156761904Y-122404762D01*
X156857142Y-122452381D01*
X157142857Y-122452381D01*
X157238095Y-122404762D01*
X157285714Y-122357143D01*
X156333333Y-121452381D02*
X155714285Y-121452381D01*
X156047619Y-121833333D01*
X155904761Y-121833333D01*
X155809523Y-121880952D01*
X155761904Y-121928571D01*
X155714285Y-122023810D01*
X155714285Y-122261905D01*
X155761904Y-122357143D01*
X155809523Y-122404762D01*
X155904761Y-122452381D01*
X156190476Y-122452381D01*
X156285714Y-122404762D01*
X156333333Y-122357143D01*
X155095238Y-121452381D02*
X154999999Y-121452381D01*
X154904761Y-121500000D01*
X154857142Y-121547619D01*
X154809523Y-121642857D01*
X154761904Y-121833333D01*
X154761904Y-122071429D01*
X154809523Y-122261905D01*
X154857142Y-122357143D01*
X154904761Y-122404762D01*
X154999999Y-122452381D01*
X155095238Y-122452381D01*
X155190476Y-122404762D01*
X155238095Y-122357143D01*
X155285714Y-122261905D01*
X155333333Y-122071429D01*
X155333333Y-121833333D01*
X155285714Y-121642857D01*
X155238095Y-121547619D01*
X155190476Y-121500000D01*
X155095238Y-121452381D01*
X152566667Y-114257143D02*
X152566667Y-114733334D01*
X152852381Y-114161905D02*
X151852381Y-114495238D01*
X152852381Y-114828572D01*
X151852381Y-115066667D02*
X151852381Y-115733334D01*
X152852381Y-115066667D01*
X152852381Y-115733334D01*
X152852381Y-116638096D02*
X152852381Y-116066667D01*
X152852381Y-116352381D02*
X151852381Y-116352381D01*
X151995238Y-116257143D01*
X152090476Y-116161905D01*
X152138095Y-116066667D01*
X151852381Y-117257143D02*
X151852381Y-117352382D01*
X151900000Y-117447620D01*
X151947619Y-117495239D01*
X152042857Y-117542858D01*
X152233333Y-117590477D01*
X152471429Y-117590477D01*
X152661905Y-117542858D01*
X152757143Y-117495239D01*
X152804762Y-117447620D01*
X152852381Y-117352382D01*
X152852381Y-117257143D01*
X152804762Y-117161905D01*
X152757143Y-117114286D01*
X152661905Y-117066667D01*
X152471429Y-117019048D01*
X152233333Y-117019048D01*
X152042857Y-117066667D01*
X151947619Y-117114286D01*
X151900000Y-117161905D01*
X151852381Y-117257143D01*
X152280952Y-118161905D02*
X152233333Y-118066667D01*
X152185714Y-118019048D01*
X152090476Y-117971429D01*
X152042857Y-117971429D01*
X151947619Y-118019048D01*
X151900000Y-118066667D01*
X151852381Y-118161905D01*
X151852381Y-118352382D01*
X151900000Y-118447620D01*
X151947619Y-118495239D01*
X152042857Y-118542858D01*
X152090476Y-118542858D01*
X152185714Y-118495239D01*
X152233333Y-118447620D01*
X152280952Y-118352382D01*
X152280952Y-118161905D01*
X152328571Y-118066667D01*
X152376190Y-118019048D01*
X152471429Y-117971429D01*
X152661905Y-117971429D01*
X152757143Y-118019048D01*
X152804762Y-118066667D01*
X152852381Y-118161905D01*
X152852381Y-118352382D01*
X152804762Y-118447620D01*
X152757143Y-118495239D01*
X152661905Y-118542858D01*
X152471429Y-118542858D01*
X152376190Y-118495239D01*
X152328571Y-118447620D01*
X152280952Y-118352382D01*
X151852381Y-119400001D02*
X151852381Y-119209524D01*
X151900000Y-119114286D01*
X151947619Y-119066667D01*
X152090476Y-118971429D01*
X152280952Y-118923810D01*
X152661905Y-118923810D01*
X152757143Y-118971429D01*
X152804762Y-119019048D01*
X152852381Y-119114286D01*
X152852381Y-119304763D01*
X152804762Y-119400001D01*
X152757143Y-119447620D01*
X152661905Y-119495239D01*
X152423810Y-119495239D01*
X152328571Y-119447620D01*
X152280952Y-119400001D01*
X152233333Y-119304763D01*
X152233333Y-119114286D01*
X152280952Y-119019048D01*
X152328571Y-118971429D01*
X152423810Y-118923810D01*
X152852381Y-119923810D02*
X151852381Y-119923810D01*
X152328571Y-119923810D02*
X152328571Y-120495239D01*
X152852381Y-120495239D02*
X151852381Y-120495239D01*
M02*
