G04 #@! TF.FileFunction,Copper,L1,Top,Signal*
%FSLAX46Y46*%
G04 Gerber Fmt 4.6, Leading zero omitted, Abs format (unit mm)*
G04 Created by KiCad (PCBNEW 4.0.1-stable) date 2018/07/04 18:11:44*
%MOMM*%
G01*
G04 APERTURE LIST*
%ADD10C,0.100000*%
%ADD11R,1.000000X1.200000*%
%ADD12R,1.727200X2.032000*%
%ADD13O,1.727200X2.032000*%
%ADD14C,1.501140*%
%ADD15C,2.999740*%
%ADD16O,1.500000X2.500000*%
%ADD17C,6.000000*%
%ADD18C,0.600000*%
%ADD19C,0.500000*%
%ADD20C,1.000000*%
%ADD21C,0.250000*%
G04 APERTURE END LIST*
D10*
D11*
X154480000Y-92400000D03*
X152720000Y-92400000D03*
X154480000Y-95400000D03*
X152720000Y-95400000D03*
X152720000Y-114400000D03*
X154480000Y-114400000D03*
X154480000Y-117800000D03*
X152720000Y-117800000D03*
D12*
X137600000Y-93200000D03*
D13*
X140140000Y-93200000D03*
X142680000Y-93200000D03*
X145220000Y-93200000D03*
X147760000Y-93200000D03*
X150300000Y-93200000D03*
D14*
X138397880Y-101287140D03*
X138397880Y-103827140D03*
X138397880Y-105859140D03*
X138397880Y-108399140D03*
D15*
X141064880Y-98239140D03*
X141064880Y-111955140D03*
D16*
X139400000Y-118000000D03*
X141900000Y-118000000D03*
X144400000Y-118000000D03*
X146900000Y-118000000D03*
D17*
X161036000Y-93980000D03*
X133096000Y-119888000D03*
X133096000Y-93980000D03*
X161036000Y-119888000D03*
D18*
X147730000Y-96400000D03*
X151180000Y-96400000D03*
X156600000Y-105070000D03*
X155200000Y-112570000D03*
X146200000Y-110850000D03*
X149500000Y-115100000D03*
X144850000Y-115000000D03*
X156980000Y-92400000D03*
X156980000Y-95800000D03*
X142750000Y-108200000D03*
X142750000Y-107400000D03*
X142750000Y-103400000D03*
X144290000Y-102600000D03*
X155410000Y-93950000D03*
X146200000Y-99150000D03*
X147000000Y-99150000D03*
X154770000Y-97610000D03*
X151800000Y-100610000D03*
X151380000Y-113000000D03*
X156780000Y-120400000D03*
D19*
X147730000Y-96400000D02*
X151180000Y-96400000D01*
D20*
X155200000Y-106470000D02*
X155200000Y-112570000D01*
X155200000Y-106470000D02*
X156600000Y-105070000D01*
X138397880Y-108399140D02*
X138229140Y-108399140D01*
X138229140Y-108399140D02*
X136820000Y-106990000D01*
X140140000Y-95470000D02*
X140140000Y-93200000D01*
X136820000Y-98790000D02*
X140140000Y-95470000D01*
X136820000Y-106990000D02*
X136820000Y-98790000D01*
D19*
X144850000Y-115000000D02*
X145030000Y-115000000D01*
X146200000Y-113830000D02*
X146200000Y-110850000D01*
X145030000Y-115000000D02*
X146200000Y-113830000D01*
D20*
X144850000Y-115000000D02*
X149400000Y-115000000D01*
X149400000Y-115000000D02*
X149500000Y-115100000D01*
D19*
X154480000Y-92400000D02*
X156980000Y-92400000D01*
X154480000Y-95400000D02*
X156580000Y-95400000D01*
X156580000Y-95400000D02*
X156980000Y-95800000D01*
X142750000Y-108200000D02*
X142900000Y-108200000D01*
X143640000Y-116260000D02*
X141900000Y-118000000D01*
X143640000Y-108940000D02*
X143640000Y-116260000D01*
X142900000Y-108200000D02*
X143640000Y-108940000D01*
X142750000Y-107400000D02*
X141660000Y-107400000D01*
X142750000Y-107390000D02*
X142750000Y-107400000D01*
X138990000Y-110070000D02*
X138990000Y-117590000D01*
X141660000Y-107400000D02*
X138990000Y-110070000D01*
X138990000Y-117590000D02*
X139400000Y-118000000D01*
X138892860Y-103827140D02*
X139320000Y-103400000D01*
X139320000Y-103400000D02*
X142750000Y-103400000D01*
X138892860Y-103827140D02*
X138397880Y-103827140D01*
X144290000Y-102600000D02*
X144290000Y-103180000D01*
X141610860Y-105859140D02*
X138397880Y-105859140D01*
X144290000Y-103180000D02*
X141610860Y-105859140D01*
X155410000Y-93950000D02*
X152060000Y-93950000D01*
X146200000Y-96680000D02*
X146200000Y-99150000D01*
X147810000Y-95070000D02*
X146200000Y-96680000D01*
X150940000Y-95070000D02*
X147810000Y-95070000D01*
X152060000Y-93950000D02*
X150940000Y-95070000D01*
X147000000Y-99150000D02*
X147000000Y-97930000D01*
X147010000Y-99150000D02*
X147000000Y-99150000D01*
X147320000Y-97610000D02*
X154770000Y-97610000D01*
X147000000Y-97930000D02*
X147320000Y-97610000D01*
X151800000Y-100610000D02*
X146500000Y-100610000D01*
X145220000Y-99330000D02*
X145220000Y-93200000D01*
X146500000Y-100610000D02*
X145220000Y-99330000D01*
X152720000Y-114400000D02*
X152720000Y-114340000D01*
X152720000Y-114340000D02*
X151380000Y-113000000D01*
X154480000Y-117800000D02*
X155220000Y-117800000D01*
X156780000Y-119360000D02*
X156780000Y-120400000D01*
X155220000Y-117800000D02*
X156780000Y-119360000D01*
D21*
G36*
X158218845Y-92094079D02*
X157711578Y-93315715D01*
X157710424Y-94638482D01*
X158215558Y-95861001D01*
X159150079Y-96797155D01*
X160371715Y-97304422D01*
X161694482Y-97305576D01*
X162917001Y-96800442D01*
X163684000Y-96034781D01*
X163684000Y-117834256D01*
X162921921Y-117070845D01*
X161700285Y-116563578D01*
X160377518Y-116562424D01*
X159154999Y-117067558D01*
X158218845Y-118002079D01*
X157711578Y-119223715D01*
X157710424Y-120546482D01*
X158215558Y-121769001D01*
X158981219Y-122536000D01*
X135149744Y-122536000D01*
X135913155Y-121773921D01*
X136420422Y-120552285D01*
X136421576Y-119229518D01*
X135916442Y-118006999D01*
X134981921Y-117070845D01*
X133760285Y-116563578D01*
X132437518Y-116562424D01*
X131214999Y-117067558D01*
X130448000Y-117833219D01*
X130448000Y-98790000D01*
X135995000Y-98790000D01*
X135995000Y-106990000D01*
X136057799Y-107305714D01*
X136236637Y-107573363D01*
X137355008Y-108691734D01*
X137485524Y-109007606D01*
X137787823Y-109310432D01*
X138182997Y-109474523D01*
X138610886Y-109474897D01*
X138885328Y-109361500D01*
X138583414Y-109663414D01*
X138458769Y-109849957D01*
X138415000Y-110070000D01*
X138415000Y-117045532D01*
X138406830Y-117057759D01*
X138325000Y-117469144D01*
X138325000Y-118530856D01*
X138406830Y-118942241D01*
X138639860Y-119290996D01*
X138988615Y-119524026D01*
X139400000Y-119605856D01*
X139811385Y-119524026D01*
X140160140Y-119290996D01*
X140393170Y-118942241D01*
X140475000Y-118530856D01*
X140475000Y-117469144D01*
X140393170Y-117057759D01*
X140160140Y-116709004D01*
X139811385Y-116475974D01*
X139565000Y-116426965D01*
X139565000Y-113035650D01*
X140029825Y-113501287D01*
X140700298Y-113779692D01*
X141426277Y-113780326D01*
X142097235Y-113503091D01*
X142611027Y-112990195D01*
X142889432Y-112319722D01*
X142890066Y-111593743D01*
X142612831Y-110922785D01*
X142099935Y-110408993D01*
X141429462Y-110130588D01*
X140703483Y-110129954D01*
X140032525Y-110407189D01*
X139565000Y-110873899D01*
X139565000Y-110308172D01*
X141898173Y-107975000D01*
X142166688Y-107975000D01*
X142125109Y-108075134D01*
X142124892Y-108323775D01*
X142219842Y-108553571D01*
X142395504Y-108729540D01*
X142625134Y-108824891D01*
X142711795Y-108824967D01*
X143065000Y-109178172D01*
X143065000Y-116021827D01*
X142490903Y-116595924D01*
X142311385Y-116475974D01*
X141900000Y-116394144D01*
X141488615Y-116475974D01*
X141139860Y-116709004D01*
X140906830Y-117057759D01*
X140825000Y-117469144D01*
X140825000Y-118530856D01*
X140906830Y-118942241D01*
X141139860Y-119290996D01*
X141488615Y-119524026D01*
X141900000Y-119605856D01*
X142311385Y-119524026D01*
X142660140Y-119290996D01*
X142893170Y-118942241D01*
X142975000Y-118530856D01*
X142975000Y-117738172D01*
X143345106Y-117368067D01*
X143325000Y-117469144D01*
X143325000Y-118530856D01*
X143406830Y-118942241D01*
X143639860Y-119290996D01*
X143988615Y-119524026D01*
X144400000Y-119605856D01*
X144811385Y-119524026D01*
X145160140Y-119290996D01*
X145393170Y-118942241D01*
X145475000Y-118530856D01*
X145475000Y-117469144D01*
X145421464Y-117200000D01*
X153648633Y-117200000D01*
X153648633Y-118400000D01*
X153671295Y-118520438D01*
X153742474Y-118631053D01*
X153851080Y-118705260D01*
X153980000Y-118731367D01*
X154980000Y-118731367D01*
X155100438Y-118708705D01*
X155211053Y-118637526D01*
X155224570Y-118617743D01*
X156205000Y-119598173D01*
X156205000Y-120154983D01*
X156155109Y-120275134D01*
X156154892Y-120523775D01*
X156249842Y-120753571D01*
X156425504Y-120929540D01*
X156655134Y-121024891D01*
X156903775Y-121025108D01*
X157133571Y-120930158D01*
X157309540Y-120754496D01*
X157404891Y-120524866D01*
X157405108Y-120276225D01*
X157355000Y-120154955D01*
X157355000Y-119360000D01*
X157311231Y-119139957D01*
X157186586Y-118953413D01*
X155626586Y-117393414D01*
X155440043Y-117268769D01*
X155311367Y-117243174D01*
X155311367Y-117200000D01*
X155288705Y-117079562D01*
X155217526Y-116968947D01*
X155108920Y-116894740D01*
X154980000Y-116868633D01*
X153980000Y-116868633D01*
X153859562Y-116891295D01*
X153748947Y-116962474D01*
X153674740Y-117071080D01*
X153648633Y-117200000D01*
X145421464Y-117200000D01*
X145393170Y-117057759D01*
X145160140Y-116709004D01*
X144811385Y-116475974D01*
X144400000Y-116394144D01*
X144179597Y-116437985D01*
X144215000Y-116260000D01*
X144215000Y-115506083D01*
X144266637Y-115583363D01*
X144534286Y-115762201D01*
X144850000Y-115825000D01*
X149128611Y-115825000D01*
X149184286Y-115862201D01*
X149500000Y-115925000D01*
X149815714Y-115862201D01*
X150083363Y-115683363D01*
X150262201Y-115415714D01*
X150325000Y-115100000D01*
X150262201Y-114784286D01*
X150083363Y-114516637D01*
X149983363Y-114416637D01*
X149715714Y-114237799D01*
X149400000Y-114175000D01*
X146647737Y-114175000D01*
X146731231Y-114050043D01*
X146775000Y-113830000D01*
X146775000Y-113123775D01*
X150754892Y-113123775D01*
X150849842Y-113353571D01*
X151025504Y-113529540D01*
X151146688Y-113579860D01*
X151888633Y-114321806D01*
X151888633Y-115000000D01*
X151911295Y-115120438D01*
X151982474Y-115231053D01*
X152091080Y-115305260D01*
X152220000Y-115331367D01*
X153220000Y-115331367D01*
X153340438Y-115308705D01*
X153451053Y-115237526D01*
X153525260Y-115128920D01*
X153551367Y-115000000D01*
X153551367Y-113800000D01*
X153528705Y-113679562D01*
X153457526Y-113568947D01*
X153348920Y-113494740D01*
X153220000Y-113468633D01*
X152661806Y-113468633D01*
X151959840Y-112766668D01*
X151910158Y-112646429D01*
X151734496Y-112470460D01*
X151504866Y-112375109D01*
X151256225Y-112374892D01*
X151026429Y-112469842D01*
X150850460Y-112645504D01*
X150755109Y-112875134D01*
X150754892Y-113123775D01*
X146775000Y-113123775D01*
X146775000Y-111095017D01*
X146824891Y-110974866D01*
X146825108Y-110726225D01*
X146730158Y-110496429D01*
X146554496Y-110320460D01*
X146324866Y-110225109D01*
X146076225Y-110224892D01*
X145846429Y-110319842D01*
X145670460Y-110495504D01*
X145575109Y-110725134D01*
X145574892Y-110973775D01*
X145625000Y-111095045D01*
X145625000Y-113591828D01*
X145041828Y-114175000D01*
X144850000Y-114175000D01*
X144534286Y-114237799D01*
X144266637Y-114416637D01*
X144215000Y-114493917D01*
X144215000Y-108940000D01*
X144171231Y-108719957D01*
X144046586Y-108533414D01*
X143306586Y-107793414D01*
X143267031Y-107766984D01*
X143279540Y-107754496D01*
X143374891Y-107524866D01*
X143375108Y-107276225D01*
X143280158Y-107046429D01*
X143104496Y-106870460D01*
X142874866Y-106775109D01*
X142626225Y-106774892D01*
X142504955Y-106825000D01*
X141660000Y-106825000D01*
X141439957Y-106868769D01*
X141253413Y-106993414D01*
X139359973Y-108886855D01*
X139473263Y-108614023D01*
X139473637Y-108186134D01*
X139310236Y-107790674D01*
X139007937Y-107487848D01*
X138612763Y-107323757D01*
X138320227Y-107323501D01*
X137645000Y-106648274D01*
X137645000Y-106627360D01*
X137787823Y-106770432D01*
X138182997Y-106934523D01*
X138610886Y-106934897D01*
X139006346Y-106771496D01*
X139308367Y-106470000D01*
X154375000Y-106470000D01*
X154375000Y-112570000D01*
X154437799Y-112885714D01*
X154616637Y-113153363D01*
X154884286Y-113332201D01*
X155200000Y-113395000D01*
X155515714Y-113332201D01*
X155783363Y-113153363D01*
X155962201Y-112885714D01*
X156025000Y-112570000D01*
X156025000Y-106811726D01*
X157183363Y-105653363D01*
X157362201Y-105385714D01*
X157425000Y-105070000D01*
X157362201Y-104754286D01*
X157183363Y-104486637D01*
X156915714Y-104307799D01*
X156600000Y-104245000D01*
X156284286Y-104307799D01*
X156016637Y-104486637D01*
X154616637Y-105886637D01*
X154437799Y-106154286D01*
X154375000Y-106470000D01*
X139308367Y-106470000D01*
X139309172Y-106469197D01*
X139323729Y-106434140D01*
X141610860Y-106434140D01*
X141830903Y-106390371D01*
X142017446Y-106265726D01*
X144696586Y-103586586D01*
X144821231Y-103400043D01*
X144841944Y-103295909D01*
X144865000Y-103180000D01*
X144865000Y-102845017D01*
X144914891Y-102724866D01*
X144915108Y-102476225D01*
X144820158Y-102246429D01*
X144644496Y-102070460D01*
X144414866Y-101975109D01*
X144166225Y-101974892D01*
X143936429Y-102069842D01*
X143760460Y-102245504D01*
X143665109Y-102475134D01*
X143664892Y-102723775D01*
X143715000Y-102845045D01*
X143715000Y-102941828D01*
X143375103Y-103281725D01*
X143375108Y-103276225D01*
X143280158Y-103046429D01*
X143104496Y-102870460D01*
X142874866Y-102775109D01*
X142626225Y-102774892D01*
X142504955Y-102825000D01*
X139320000Y-102825000D01*
X139099957Y-102868769D01*
X139016564Y-102924490D01*
X139007937Y-102915848D01*
X138612763Y-102751757D01*
X138184874Y-102751383D01*
X137789414Y-102914784D01*
X137645000Y-103058947D01*
X137645000Y-99131726D01*
X139480453Y-97296273D01*
X139240328Y-97874558D01*
X139239694Y-98600537D01*
X139516929Y-99271495D01*
X140029825Y-99785287D01*
X140700298Y-100063692D01*
X141426277Y-100064326D01*
X142097235Y-99787091D01*
X142611027Y-99274195D01*
X142889432Y-98603722D01*
X142890066Y-97877743D01*
X142612831Y-97206785D01*
X142099935Y-96692993D01*
X141429462Y-96414588D01*
X140703483Y-96413954D01*
X140122865Y-96653861D01*
X140723363Y-96053363D01*
X140902201Y-95785714D01*
X140965000Y-95470000D01*
X140965000Y-94229474D01*
X140980467Y-94219139D01*
X141238123Y-93833530D01*
X141328600Y-93378672D01*
X141328600Y-93021328D01*
X144031400Y-93021328D01*
X144031400Y-93378672D01*
X144121877Y-93833530D01*
X144379533Y-94219139D01*
X144645000Y-94396519D01*
X144645000Y-99330000D01*
X144679525Y-99503571D01*
X144688769Y-99550043D01*
X144813414Y-99736586D01*
X146093413Y-101016586D01*
X146277426Y-101139540D01*
X146279957Y-101141231D01*
X146500000Y-101185000D01*
X151554983Y-101185000D01*
X151675134Y-101234891D01*
X151923775Y-101235108D01*
X152153571Y-101140158D01*
X152329540Y-100964496D01*
X152424891Y-100734866D01*
X152425108Y-100486225D01*
X152330158Y-100256429D01*
X152154496Y-100080460D01*
X151924866Y-99985109D01*
X151676225Y-99984892D01*
X151554955Y-100035000D01*
X146738173Y-100035000D01*
X146433106Y-99729933D01*
X146553571Y-99680158D01*
X146599927Y-99633883D01*
X146645504Y-99679540D01*
X146875134Y-99774891D01*
X147123775Y-99775108D01*
X147353571Y-99680158D01*
X147529540Y-99504496D01*
X147624891Y-99274866D01*
X147625108Y-99026225D01*
X147575000Y-98904955D01*
X147575000Y-98185000D01*
X154524983Y-98185000D01*
X154645134Y-98234891D01*
X154893775Y-98235108D01*
X155123571Y-98140158D01*
X155299540Y-97964496D01*
X155394891Y-97734866D01*
X155395108Y-97486225D01*
X155300158Y-97256429D01*
X155124496Y-97080460D01*
X154894866Y-96985109D01*
X154646225Y-96984892D01*
X154524955Y-97035000D01*
X147320000Y-97035000D01*
X147099957Y-97078769D01*
X146913413Y-97203414D01*
X146775000Y-97341827D01*
X146775000Y-96918172D01*
X147123752Y-96569420D01*
X147199842Y-96753571D01*
X147375504Y-96929540D01*
X147605134Y-97024891D01*
X147853775Y-97025108D01*
X147975045Y-96975000D01*
X150934983Y-96975000D01*
X151055134Y-97024891D01*
X151303775Y-97025108D01*
X151533571Y-96930158D01*
X151709540Y-96754496D01*
X151804891Y-96524866D01*
X151805108Y-96276225D01*
X151710158Y-96046429D01*
X151534496Y-95870460D01*
X151304866Y-95775109D01*
X151056225Y-95774892D01*
X150934955Y-95825000D01*
X147975017Y-95825000D01*
X147899521Y-95793652D01*
X148048173Y-95645000D01*
X150940000Y-95645000D01*
X151160043Y-95601231D01*
X151346586Y-95476586D01*
X152298173Y-94525000D01*
X153807183Y-94525000D01*
X153748947Y-94562474D01*
X153674740Y-94671080D01*
X153648633Y-94800000D01*
X153648633Y-96000000D01*
X153671295Y-96120438D01*
X153742474Y-96231053D01*
X153851080Y-96305260D01*
X153980000Y-96331367D01*
X154980000Y-96331367D01*
X155100438Y-96308705D01*
X155211053Y-96237526D01*
X155285260Y-96128920D01*
X155311367Y-96000000D01*
X155311367Y-95975000D01*
X156341828Y-95975000D01*
X156400161Y-96033333D01*
X156449842Y-96153571D01*
X156625504Y-96329540D01*
X156855134Y-96424891D01*
X157103775Y-96425108D01*
X157333571Y-96330158D01*
X157509540Y-96154496D01*
X157604891Y-95924866D01*
X157605108Y-95676225D01*
X157510158Y-95446429D01*
X157334496Y-95270460D01*
X157213313Y-95220140D01*
X156986586Y-94993414D01*
X156800043Y-94868769D01*
X156580000Y-94825000D01*
X155311367Y-94825000D01*
X155311367Y-94800000D01*
X155288705Y-94679562D01*
X155217526Y-94568947D01*
X155153207Y-94525000D01*
X155164983Y-94525000D01*
X155285134Y-94574891D01*
X155533775Y-94575108D01*
X155763571Y-94480158D01*
X155939540Y-94304496D01*
X156034891Y-94074866D01*
X156035108Y-93826225D01*
X155940158Y-93596429D01*
X155764496Y-93420460D01*
X155534866Y-93325109D01*
X155286225Y-93324892D01*
X155164955Y-93375000D01*
X152060000Y-93375000D01*
X151839957Y-93418769D01*
X151653413Y-93543414D01*
X151406770Y-93790057D01*
X151488600Y-93378672D01*
X151488600Y-93021328D01*
X151398123Y-92566470D01*
X151140467Y-92180861D01*
X150754858Y-91923205D01*
X150300000Y-91832728D01*
X149845142Y-91923205D01*
X149459533Y-92180861D01*
X149201877Y-92566470D01*
X149111400Y-93021328D01*
X149111400Y-93378672D01*
X149201877Y-93833530D01*
X149459533Y-94219139D01*
X149845142Y-94476795D01*
X149936665Y-94495000D01*
X148123335Y-94495000D01*
X148214858Y-94476795D01*
X148600467Y-94219139D01*
X148858123Y-93833530D01*
X148948600Y-93378672D01*
X148948600Y-93021328D01*
X148858123Y-92566470D01*
X148600467Y-92180861D01*
X148214858Y-91923205D01*
X147760000Y-91832728D01*
X147305142Y-91923205D01*
X146919533Y-92180861D01*
X146661877Y-92566470D01*
X146571400Y-93021328D01*
X146571400Y-93378672D01*
X146661877Y-93833530D01*
X146919533Y-94219139D01*
X147305142Y-94476795D01*
X147603332Y-94536109D01*
X147589957Y-94538769D01*
X147403414Y-94663413D01*
X145795000Y-96271828D01*
X145795000Y-94396519D01*
X146060467Y-94219139D01*
X146318123Y-93833530D01*
X146408600Y-93378672D01*
X146408600Y-93021328D01*
X146318123Y-92566470D01*
X146060467Y-92180861D01*
X145674858Y-91923205D01*
X145220000Y-91832728D01*
X144765142Y-91923205D01*
X144379533Y-92180861D01*
X144121877Y-92566470D01*
X144031400Y-93021328D01*
X141328600Y-93021328D01*
X141238123Y-92566470D01*
X140980467Y-92180861D01*
X140594858Y-91923205D01*
X140140000Y-91832728D01*
X139685142Y-91923205D01*
X139299533Y-92180861D01*
X139041877Y-92566470D01*
X138951400Y-93021328D01*
X138951400Y-93378672D01*
X139041877Y-93833530D01*
X139299533Y-94219139D01*
X139315000Y-94229474D01*
X139315000Y-95128274D01*
X136236637Y-98206637D01*
X136057799Y-98474286D01*
X135995000Y-98790000D01*
X130448000Y-98790000D01*
X130448000Y-96033744D01*
X131210079Y-96797155D01*
X132431715Y-97304422D01*
X133754482Y-97305576D01*
X134977001Y-96800442D01*
X135913155Y-95865921D01*
X136420422Y-94644285D01*
X136420723Y-94299385D01*
X136427695Y-94336438D01*
X136498874Y-94447053D01*
X136607480Y-94521260D01*
X136736400Y-94547367D01*
X138463600Y-94547367D01*
X138584038Y-94524705D01*
X138694653Y-94453526D01*
X138768860Y-94344920D01*
X138794967Y-94216000D01*
X138794967Y-92184000D01*
X138772305Y-92063562D01*
X138701126Y-91952947D01*
X138592520Y-91878740D01*
X138463600Y-91852633D01*
X136736400Y-91852633D01*
X136615962Y-91875295D01*
X136505347Y-91946474D01*
X136431140Y-92055080D01*
X136405033Y-92184000D01*
X136405033Y-93281481D01*
X135916442Y-92098999D01*
X135617965Y-91800000D01*
X153648633Y-91800000D01*
X153648633Y-93000000D01*
X153671295Y-93120438D01*
X153742474Y-93231053D01*
X153851080Y-93305260D01*
X153980000Y-93331367D01*
X154980000Y-93331367D01*
X155100438Y-93308705D01*
X155211053Y-93237526D01*
X155285260Y-93128920D01*
X155311367Y-93000000D01*
X155311367Y-92975000D01*
X156734983Y-92975000D01*
X156855134Y-93024891D01*
X157103775Y-93025108D01*
X157333571Y-92930158D01*
X157509540Y-92754496D01*
X157604891Y-92524866D01*
X157605108Y-92276225D01*
X157510158Y-92046429D01*
X157334496Y-91870460D01*
X157104866Y-91775109D01*
X156856225Y-91774892D01*
X156734955Y-91825000D01*
X155311367Y-91825000D01*
X155311367Y-91800000D01*
X155288705Y-91679562D01*
X155217526Y-91568947D01*
X155108920Y-91494740D01*
X154980000Y-91468633D01*
X153980000Y-91468633D01*
X153859562Y-91491295D01*
X153748947Y-91562474D01*
X153674740Y-91671080D01*
X153648633Y-91800000D01*
X135617965Y-91800000D01*
X135150781Y-91332000D01*
X158982256Y-91332000D01*
X158218845Y-92094079D01*
X158218845Y-92094079D01*
G37*
X158218845Y-92094079D02*
X157711578Y-93315715D01*
X157710424Y-94638482D01*
X158215558Y-95861001D01*
X159150079Y-96797155D01*
X160371715Y-97304422D01*
X161694482Y-97305576D01*
X162917001Y-96800442D01*
X163684000Y-96034781D01*
X163684000Y-117834256D01*
X162921921Y-117070845D01*
X161700285Y-116563578D01*
X160377518Y-116562424D01*
X159154999Y-117067558D01*
X158218845Y-118002079D01*
X157711578Y-119223715D01*
X157710424Y-120546482D01*
X158215558Y-121769001D01*
X158981219Y-122536000D01*
X135149744Y-122536000D01*
X135913155Y-121773921D01*
X136420422Y-120552285D01*
X136421576Y-119229518D01*
X135916442Y-118006999D01*
X134981921Y-117070845D01*
X133760285Y-116563578D01*
X132437518Y-116562424D01*
X131214999Y-117067558D01*
X130448000Y-117833219D01*
X130448000Y-98790000D01*
X135995000Y-98790000D01*
X135995000Y-106990000D01*
X136057799Y-107305714D01*
X136236637Y-107573363D01*
X137355008Y-108691734D01*
X137485524Y-109007606D01*
X137787823Y-109310432D01*
X138182997Y-109474523D01*
X138610886Y-109474897D01*
X138885328Y-109361500D01*
X138583414Y-109663414D01*
X138458769Y-109849957D01*
X138415000Y-110070000D01*
X138415000Y-117045532D01*
X138406830Y-117057759D01*
X138325000Y-117469144D01*
X138325000Y-118530856D01*
X138406830Y-118942241D01*
X138639860Y-119290996D01*
X138988615Y-119524026D01*
X139400000Y-119605856D01*
X139811385Y-119524026D01*
X140160140Y-119290996D01*
X140393170Y-118942241D01*
X140475000Y-118530856D01*
X140475000Y-117469144D01*
X140393170Y-117057759D01*
X140160140Y-116709004D01*
X139811385Y-116475974D01*
X139565000Y-116426965D01*
X139565000Y-113035650D01*
X140029825Y-113501287D01*
X140700298Y-113779692D01*
X141426277Y-113780326D01*
X142097235Y-113503091D01*
X142611027Y-112990195D01*
X142889432Y-112319722D01*
X142890066Y-111593743D01*
X142612831Y-110922785D01*
X142099935Y-110408993D01*
X141429462Y-110130588D01*
X140703483Y-110129954D01*
X140032525Y-110407189D01*
X139565000Y-110873899D01*
X139565000Y-110308172D01*
X141898173Y-107975000D01*
X142166688Y-107975000D01*
X142125109Y-108075134D01*
X142124892Y-108323775D01*
X142219842Y-108553571D01*
X142395504Y-108729540D01*
X142625134Y-108824891D01*
X142711795Y-108824967D01*
X143065000Y-109178172D01*
X143065000Y-116021827D01*
X142490903Y-116595924D01*
X142311385Y-116475974D01*
X141900000Y-116394144D01*
X141488615Y-116475974D01*
X141139860Y-116709004D01*
X140906830Y-117057759D01*
X140825000Y-117469144D01*
X140825000Y-118530856D01*
X140906830Y-118942241D01*
X141139860Y-119290996D01*
X141488615Y-119524026D01*
X141900000Y-119605856D01*
X142311385Y-119524026D01*
X142660140Y-119290996D01*
X142893170Y-118942241D01*
X142975000Y-118530856D01*
X142975000Y-117738172D01*
X143345106Y-117368067D01*
X143325000Y-117469144D01*
X143325000Y-118530856D01*
X143406830Y-118942241D01*
X143639860Y-119290996D01*
X143988615Y-119524026D01*
X144400000Y-119605856D01*
X144811385Y-119524026D01*
X145160140Y-119290996D01*
X145393170Y-118942241D01*
X145475000Y-118530856D01*
X145475000Y-117469144D01*
X145421464Y-117200000D01*
X153648633Y-117200000D01*
X153648633Y-118400000D01*
X153671295Y-118520438D01*
X153742474Y-118631053D01*
X153851080Y-118705260D01*
X153980000Y-118731367D01*
X154980000Y-118731367D01*
X155100438Y-118708705D01*
X155211053Y-118637526D01*
X155224570Y-118617743D01*
X156205000Y-119598173D01*
X156205000Y-120154983D01*
X156155109Y-120275134D01*
X156154892Y-120523775D01*
X156249842Y-120753571D01*
X156425504Y-120929540D01*
X156655134Y-121024891D01*
X156903775Y-121025108D01*
X157133571Y-120930158D01*
X157309540Y-120754496D01*
X157404891Y-120524866D01*
X157405108Y-120276225D01*
X157355000Y-120154955D01*
X157355000Y-119360000D01*
X157311231Y-119139957D01*
X157186586Y-118953413D01*
X155626586Y-117393414D01*
X155440043Y-117268769D01*
X155311367Y-117243174D01*
X155311367Y-117200000D01*
X155288705Y-117079562D01*
X155217526Y-116968947D01*
X155108920Y-116894740D01*
X154980000Y-116868633D01*
X153980000Y-116868633D01*
X153859562Y-116891295D01*
X153748947Y-116962474D01*
X153674740Y-117071080D01*
X153648633Y-117200000D01*
X145421464Y-117200000D01*
X145393170Y-117057759D01*
X145160140Y-116709004D01*
X144811385Y-116475974D01*
X144400000Y-116394144D01*
X144179597Y-116437985D01*
X144215000Y-116260000D01*
X144215000Y-115506083D01*
X144266637Y-115583363D01*
X144534286Y-115762201D01*
X144850000Y-115825000D01*
X149128611Y-115825000D01*
X149184286Y-115862201D01*
X149500000Y-115925000D01*
X149815714Y-115862201D01*
X150083363Y-115683363D01*
X150262201Y-115415714D01*
X150325000Y-115100000D01*
X150262201Y-114784286D01*
X150083363Y-114516637D01*
X149983363Y-114416637D01*
X149715714Y-114237799D01*
X149400000Y-114175000D01*
X146647737Y-114175000D01*
X146731231Y-114050043D01*
X146775000Y-113830000D01*
X146775000Y-113123775D01*
X150754892Y-113123775D01*
X150849842Y-113353571D01*
X151025504Y-113529540D01*
X151146688Y-113579860D01*
X151888633Y-114321806D01*
X151888633Y-115000000D01*
X151911295Y-115120438D01*
X151982474Y-115231053D01*
X152091080Y-115305260D01*
X152220000Y-115331367D01*
X153220000Y-115331367D01*
X153340438Y-115308705D01*
X153451053Y-115237526D01*
X153525260Y-115128920D01*
X153551367Y-115000000D01*
X153551367Y-113800000D01*
X153528705Y-113679562D01*
X153457526Y-113568947D01*
X153348920Y-113494740D01*
X153220000Y-113468633D01*
X152661806Y-113468633D01*
X151959840Y-112766668D01*
X151910158Y-112646429D01*
X151734496Y-112470460D01*
X151504866Y-112375109D01*
X151256225Y-112374892D01*
X151026429Y-112469842D01*
X150850460Y-112645504D01*
X150755109Y-112875134D01*
X150754892Y-113123775D01*
X146775000Y-113123775D01*
X146775000Y-111095017D01*
X146824891Y-110974866D01*
X146825108Y-110726225D01*
X146730158Y-110496429D01*
X146554496Y-110320460D01*
X146324866Y-110225109D01*
X146076225Y-110224892D01*
X145846429Y-110319842D01*
X145670460Y-110495504D01*
X145575109Y-110725134D01*
X145574892Y-110973775D01*
X145625000Y-111095045D01*
X145625000Y-113591828D01*
X145041828Y-114175000D01*
X144850000Y-114175000D01*
X144534286Y-114237799D01*
X144266637Y-114416637D01*
X144215000Y-114493917D01*
X144215000Y-108940000D01*
X144171231Y-108719957D01*
X144046586Y-108533414D01*
X143306586Y-107793414D01*
X143267031Y-107766984D01*
X143279540Y-107754496D01*
X143374891Y-107524866D01*
X143375108Y-107276225D01*
X143280158Y-107046429D01*
X143104496Y-106870460D01*
X142874866Y-106775109D01*
X142626225Y-106774892D01*
X142504955Y-106825000D01*
X141660000Y-106825000D01*
X141439957Y-106868769D01*
X141253413Y-106993414D01*
X139359973Y-108886855D01*
X139473263Y-108614023D01*
X139473637Y-108186134D01*
X139310236Y-107790674D01*
X139007937Y-107487848D01*
X138612763Y-107323757D01*
X138320227Y-107323501D01*
X137645000Y-106648274D01*
X137645000Y-106627360D01*
X137787823Y-106770432D01*
X138182997Y-106934523D01*
X138610886Y-106934897D01*
X139006346Y-106771496D01*
X139308367Y-106470000D01*
X154375000Y-106470000D01*
X154375000Y-112570000D01*
X154437799Y-112885714D01*
X154616637Y-113153363D01*
X154884286Y-113332201D01*
X155200000Y-113395000D01*
X155515714Y-113332201D01*
X155783363Y-113153363D01*
X155962201Y-112885714D01*
X156025000Y-112570000D01*
X156025000Y-106811726D01*
X157183363Y-105653363D01*
X157362201Y-105385714D01*
X157425000Y-105070000D01*
X157362201Y-104754286D01*
X157183363Y-104486637D01*
X156915714Y-104307799D01*
X156600000Y-104245000D01*
X156284286Y-104307799D01*
X156016637Y-104486637D01*
X154616637Y-105886637D01*
X154437799Y-106154286D01*
X154375000Y-106470000D01*
X139308367Y-106470000D01*
X139309172Y-106469197D01*
X139323729Y-106434140D01*
X141610860Y-106434140D01*
X141830903Y-106390371D01*
X142017446Y-106265726D01*
X144696586Y-103586586D01*
X144821231Y-103400043D01*
X144841944Y-103295909D01*
X144865000Y-103180000D01*
X144865000Y-102845017D01*
X144914891Y-102724866D01*
X144915108Y-102476225D01*
X144820158Y-102246429D01*
X144644496Y-102070460D01*
X144414866Y-101975109D01*
X144166225Y-101974892D01*
X143936429Y-102069842D01*
X143760460Y-102245504D01*
X143665109Y-102475134D01*
X143664892Y-102723775D01*
X143715000Y-102845045D01*
X143715000Y-102941828D01*
X143375103Y-103281725D01*
X143375108Y-103276225D01*
X143280158Y-103046429D01*
X143104496Y-102870460D01*
X142874866Y-102775109D01*
X142626225Y-102774892D01*
X142504955Y-102825000D01*
X139320000Y-102825000D01*
X139099957Y-102868769D01*
X139016564Y-102924490D01*
X139007937Y-102915848D01*
X138612763Y-102751757D01*
X138184874Y-102751383D01*
X137789414Y-102914784D01*
X137645000Y-103058947D01*
X137645000Y-99131726D01*
X139480453Y-97296273D01*
X139240328Y-97874558D01*
X139239694Y-98600537D01*
X139516929Y-99271495D01*
X140029825Y-99785287D01*
X140700298Y-100063692D01*
X141426277Y-100064326D01*
X142097235Y-99787091D01*
X142611027Y-99274195D01*
X142889432Y-98603722D01*
X142890066Y-97877743D01*
X142612831Y-97206785D01*
X142099935Y-96692993D01*
X141429462Y-96414588D01*
X140703483Y-96413954D01*
X140122865Y-96653861D01*
X140723363Y-96053363D01*
X140902201Y-95785714D01*
X140965000Y-95470000D01*
X140965000Y-94229474D01*
X140980467Y-94219139D01*
X141238123Y-93833530D01*
X141328600Y-93378672D01*
X141328600Y-93021328D01*
X144031400Y-93021328D01*
X144031400Y-93378672D01*
X144121877Y-93833530D01*
X144379533Y-94219139D01*
X144645000Y-94396519D01*
X144645000Y-99330000D01*
X144679525Y-99503571D01*
X144688769Y-99550043D01*
X144813414Y-99736586D01*
X146093413Y-101016586D01*
X146277426Y-101139540D01*
X146279957Y-101141231D01*
X146500000Y-101185000D01*
X151554983Y-101185000D01*
X151675134Y-101234891D01*
X151923775Y-101235108D01*
X152153571Y-101140158D01*
X152329540Y-100964496D01*
X152424891Y-100734866D01*
X152425108Y-100486225D01*
X152330158Y-100256429D01*
X152154496Y-100080460D01*
X151924866Y-99985109D01*
X151676225Y-99984892D01*
X151554955Y-100035000D01*
X146738173Y-100035000D01*
X146433106Y-99729933D01*
X146553571Y-99680158D01*
X146599927Y-99633883D01*
X146645504Y-99679540D01*
X146875134Y-99774891D01*
X147123775Y-99775108D01*
X147353571Y-99680158D01*
X147529540Y-99504496D01*
X147624891Y-99274866D01*
X147625108Y-99026225D01*
X147575000Y-98904955D01*
X147575000Y-98185000D01*
X154524983Y-98185000D01*
X154645134Y-98234891D01*
X154893775Y-98235108D01*
X155123571Y-98140158D01*
X155299540Y-97964496D01*
X155394891Y-97734866D01*
X155395108Y-97486225D01*
X155300158Y-97256429D01*
X155124496Y-97080460D01*
X154894866Y-96985109D01*
X154646225Y-96984892D01*
X154524955Y-97035000D01*
X147320000Y-97035000D01*
X147099957Y-97078769D01*
X146913413Y-97203414D01*
X146775000Y-97341827D01*
X146775000Y-96918172D01*
X147123752Y-96569420D01*
X147199842Y-96753571D01*
X147375504Y-96929540D01*
X147605134Y-97024891D01*
X147853775Y-97025108D01*
X147975045Y-96975000D01*
X150934983Y-96975000D01*
X151055134Y-97024891D01*
X151303775Y-97025108D01*
X151533571Y-96930158D01*
X151709540Y-96754496D01*
X151804891Y-96524866D01*
X151805108Y-96276225D01*
X151710158Y-96046429D01*
X151534496Y-95870460D01*
X151304866Y-95775109D01*
X151056225Y-95774892D01*
X150934955Y-95825000D01*
X147975017Y-95825000D01*
X147899521Y-95793652D01*
X148048173Y-95645000D01*
X150940000Y-95645000D01*
X151160043Y-95601231D01*
X151346586Y-95476586D01*
X152298173Y-94525000D01*
X153807183Y-94525000D01*
X153748947Y-94562474D01*
X153674740Y-94671080D01*
X153648633Y-94800000D01*
X153648633Y-96000000D01*
X153671295Y-96120438D01*
X153742474Y-96231053D01*
X153851080Y-96305260D01*
X153980000Y-96331367D01*
X154980000Y-96331367D01*
X155100438Y-96308705D01*
X155211053Y-96237526D01*
X155285260Y-96128920D01*
X155311367Y-96000000D01*
X155311367Y-95975000D01*
X156341828Y-95975000D01*
X156400161Y-96033333D01*
X156449842Y-96153571D01*
X156625504Y-96329540D01*
X156855134Y-96424891D01*
X157103775Y-96425108D01*
X157333571Y-96330158D01*
X157509540Y-96154496D01*
X157604891Y-95924866D01*
X157605108Y-95676225D01*
X157510158Y-95446429D01*
X157334496Y-95270460D01*
X157213313Y-95220140D01*
X156986586Y-94993414D01*
X156800043Y-94868769D01*
X156580000Y-94825000D01*
X155311367Y-94825000D01*
X155311367Y-94800000D01*
X155288705Y-94679562D01*
X155217526Y-94568947D01*
X155153207Y-94525000D01*
X155164983Y-94525000D01*
X155285134Y-94574891D01*
X155533775Y-94575108D01*
X155763571Y-94480158D01*
X155939540Y-94304496D01*
X156034891Y-94074866D01*
X156035108Y-93826225D01*
X155940158Y-93596429D01*
X155764496Y-93420460D01*
X155534866Y-93325109D01*
X155286225Y-93324892D01*
X155164955Y-93375000D01*
X152060000Y-93375000D01*
X151839957Y-93418769D01*
X151653413Y-93543414D01*
X151406770Y-93790057D01*
X151488600Y-93378672D01*
X151488600Y-93021328D01*
X151398123Y-92566470D01*
X151140467Y-92180861D01*
X150754858Y-91923205D01*
X150300000Y-91832728D01*
X149845142Y-91923205D01*
X149459533Y-92180861D01*
X149201877Y-92566470D01*
X149111400Y-93021328D01*
X149111400Y-93378672D01*
X149201877Y-93833530D01*
X149459533Y-94219139D01*
X149845142Y-94476795D01*
X149936665Y-94495000D01*
X148123335Y-94495000D01*
X148214858Y-94476795D01*
X148600467Y-94219139D01*
X148858123Y-93833530D01*
X148948600Y-93378672D01*
X148948600Y-93021328D01*
X148858123Y-92566470D01*
X148600467Y-92180861D01*
X148214858Y-91923205D01*
X147760000Y-91832728D01*
X147305142Y-91923205D01*
X146919533Y-92180861D01*
X146661877Y-92566470D01*
X146571400Y-93021328D01*
X146571400Y-93378672D01*
X146661877Y-93833530D01*
X146919533Y-94219139D01*
X147305142Y-94476795D01*
X147603332Y-94536109D01*
X147589957Y-94538769D01*
X147403414Y-94663413D01*
X145795000Y-96271828D01*
X145795000Y-94396519D01*
X146060467Y-94219139D01*
X146318123Y-93833530D01*
X146408600Y-93378672D01*
X146408600Y-93021328D01*
X146318123Y-92566470D01*
X146060467Y-92180861D01*
X145674858Y-91923205D01*
X145220000Y-91832728D01*
X144765142Y-91923205D01*
X144379533Y-92180861D01*
X144121877Y-92566470D01*
X144031400Y-93021328D01*
X141328600Y-93021328D01*
X141238123Y-92566470D01*
X140980467Y-92180861D01*
X140594858Y-91923205D01*
X140140000Y-91832728D01*
X139685142Y-91923205D01*
X139299533Y-92180861D01*
X139041877Y-92566470D01*
X138951400Y-93021328D01*
X138951400Y-93378672D01*
X139041877Y-93833530D01*
X139299533Y-94219139D01*
X139315000Y-94229474D01*
X139315000Y-95128274D01*
X136236637Y-98206637D01*
X136057799Y-98474286D01*
X135995000Y-98790000D01*
X130448000Y-98790000D01*
X130448000Y-96033744D01*
X131210079Y-96797155D01*
X132431715Y-97304422D01*
X133754482Y-97305576D01*
X134977001Y-96800442D01*
X135913155Y-95865921D01*
X136420422Y-94644285D01*
X136420723Y-94299385D01*
X136427695Y-94336438D01*
X136498874Y-94447053D01*
X136607480Y-94521260D01*
X136736400Y-94547367D01*
X138463600Y-94547367D01*
X138584038Y-94524705D01*
X138694653Y-94453526D01*
X138768860Y-94344920D01*
X138794967Y-94216000D01*
X138794967Y-92184000D01*
X138772305Y-92063562D01*
X138701126Y-91952947D01*
X138592520Y-91878740D01*
X138463600Y-91852633D01*
X136736400Y-91852633D01*
X136615962Y-91875295D01*
X136505347Y-91946474D01*
X136431140Y-92055080D01*
X136405033Y-92184000D01*
X136405033Y-93281481D01*
X135916442Y-92098999D01*
X135617965Y-91800000D01*
X153648633Y-91800000D01*
X153648633Y-93000000D01*
X153671295Y-93120438D01*
X153742474Y-93231053D01*
X153851080Y-93305260D01*
X153980000Y-93331367D01*
X154980000Y-93331367D01*
X155100438Y-93308705D01*
X155211053Y-93237526D01*
X155285260Y-93128920D01*
X155311367Y-93000000D01*
X155311367Y-92975000D01*
X156734983Y-92975000D01*
X156855134Y-93024891D01*
X157103775Y-93025108D01*
X157333571Y-92930158D01*
X157509540Y-92754496D01*
X157604891Y-92524866D01*
X157605108Y-92276225D01*
X157510158Y-92046429D01*
X157334496Y-91870460D01*
X157104866Y-91775109D01*
X156856225Y-91774892D01*
X156734955Y-91825000D01*
X155311367Y-91825000D01*
X155311367Y-91800000D01*
X155288705Y-91679562D01*
X155217526Y-91568947D01*
X155108920Y-91494740D01*
X154980000Y-91468633D01*
X153980000Y-91468633D01*
X153859562Y-91491295D01*
X153748947Y-91562474D01*
X153674740Y-91671080D01*
X153648633Y-91800000D01*
X135617965Y-91800000D01*
X135150781Y-91332000D01*
X158982256Y-91332000D01*
X158218845Y-92094079D01*
M02*
