M48
;DRILL file {KiCad 4.0.1-stable} date 2018/07/04 18:11:50
;FORMAT={-:-/ absolute / metric / decimal}
FMAT,2
METRIC,TZ
T1C0.400
T2C1.000
T3C1.001
T4C1.016
T5C2.301
T6C3.000
%
G90
G05
M71
T1
X142.75Y-103.4
X142.75Y-107.4
X142.75Y-108.2
X144.29Y-102.6
X144.85Y-115.
X146.2Y-99.15
X146.2Y-110.85
X147.Y-99.15
X147.73Y-96.4
X149.5Y-115.1
X151.18Y-96.4
X151.38Y-113.
X151.8Y-100.61
X154.77Y-97.61
X155.2Y-112.57
X155.41Y-93.95
X156.6Y-105.07
X156.78Y-120.4
X156.98Y-92.4
X156.98Y-95.8
T2
X139.4Y-118.
X141.9Y-118.
X144.4Y-118.
X146.9Y-118.
T3
X138.398Y-101.287
X138.398Y-103.827
X138.398Y-105.859
X138.398Y-108.399
T4
X137.6Y-93.2
X140.14Y-93.2
X142.68Y-93.2
X145.22Y-93.2
X147.76Y-93.2
X150.3Y-93.2
T5
X141.065Y-98.239
X141.065Y-111.955
T6
X133.096Y-93.98
X133.096Y-119.888
X161.036Y-93.98
X161.036Y-119.888
T0
M30
